SplineFontDB: 1.0
FontName: THFahkwang-Bold
FullName: THFahkwang-Bold
FamilyName: TH Fah kwang
Weight: Bold
Copyright: Copyright (c) 2006 by Department of Intellectual Property (DIP), Ministry of Commerce and Software Industry Promotion Agency (Public Organization) (SIPA). All rights reserved.
Version: 1.1
ItalicAngle: 0
UnderlinePosition: -35
UnderlineWidth: 30
Ascent: 800
Descent: 200
Order2: 1
XUID: [1021 375 425136265 717862]
FSType: 0
OS2Version: 3
OS2_WeightWidthSlopeOnly: 0
OS2_UseTypoMetrics: 1
CreationTime: 1158667080
ModificationTime: 1174405934
PfmFamily: 17
TTFWeight: 700
TTFWidth: 5
LineGap: 60
VLineGap: 0
Panose: 2 0 5 6 0 0 0 2 0 4
OS2TypoAscent: 0
OS2TypoAOffset: 1
OS2TypoDescent: 0
OS2TypoDOffset: 1
OS2TypoLinegap: 0
OS2WinAscent: -5
OS2WinAOffset: 1
OS2WinDescent: -231
OS2WinDOffset: 1
HheadAscent: -5
HheadAOffset: 1
HheadDescent: 231
HheadDOffset: 1
OS2SubXSize: 700
OS2SubYSize: 650
OS2SubXOff: 0
OS2SubYOff: 140
OS2SupXSize: 700
OS2SupYSize: 650
OS2SupXOff: 0
OS2SupYOff: 477
OS2StrikeYSize: 30
OS2StrikeYPos: 250
OS2FamilyClass: 773
OS2Vendor: 'ipth'
ScriptLang: 2
 1 latn 1 dflt 
 0 
ChainSub: coverage 0 0 'liga' 0 0 0 1
 1 0 1
  Coverage: 64 uni0E48.alt2 uni0E49.alt2 uni0E4A.alt2 uni0E4B.alt2 uni0E4C.alt2
  FCoverage: 7 uni0E33
 1
  SeqLookup: 0 'L026'
EndFPST
ChainSub: coverage 0 0 'liga' 0 0 0 1
 1 1 0
  Coverage: 7 uni0E47
  BCoverage: 12 uni0E2C.alt1
 1
  SeqLookup: 0 'L025'
EndFPST
ChainSub: coverage 0 0 'liga' 0 0 0 1
 1 0 1
  Coverage: 7 uni0E2C
  FCoverage: 39 uni0E34 uni0E35 uni0E36 uni0E37 uni0E47
 1
  SeqLookup: 0 'L025'
EndFPST
ChainSub: coverage 0 0 'liga' 0 0 0 1
 1 0 1
  Coverage: 15 uni0E0E uni0E0F
  FCoverage: 38 uni0E38.alt1 uni0E39.alt1 uni0E3A.alt1
 1
  SeqLookup: 0 'L025'
EndFPST
ChainSub: coverage 0 0 'liga' 0 0 0 1
 1 1 0
  Coverage: 5 a b c
  BCoverage: 23 uni0E1B uni0E1D uni0E1F
 1
  SeqLookup: 0 'L025'
EndFPST
ChainSub: coverage 0 0 'liga' 0 0 0 1
 1 0 1
  Coverage: 5 a b c

StartChar: .notdef
Encoding: 65536 -1 0
Width: 376
Flags: W
Fore
0 1 m 1,0,-1
 0 511 l 1,1,-1
 376 511 l 1,2,-1
 376 1 l 1,3,-1
 0 1 l 1,0,-1
301 472 m 1,4,-1
 73 472 l 1,5,-1
 187 299 l 1,6,-1
 301 472 l 1,4,-1
159 254 m 1,7,-1
 48 423 l 1,8,-1
 48 87 l 1,9,-1
 159 254 l 1,7,-1
72 38 m 1,10,-1
 301 38 l 1,11,-1
 187 211 l 1,12,-1
 72 38 l 1,10,-1
215 254 m 1,13,-1
 328 84 l 1,14,-1
 328 424 l 1,15,-1
 215 254 l 1,13,-1
EndSplineSet
EndChar
StartChar: numbersign
Encoding: 35 35 4
Width: 504
Flags: W
Fore
359 269 m 1,0,-1
 346 179 l 1,1,-1
 418 179 l 1,2,-1
 418 136 l 1,3,-1
 339 136 l 1,4,-1
 319 0 l 1,5,-1
 259 0 l 1,6,-1
 279 136 l 1,7,-1
 207 136 l 1,8,-1
 186 0 l 1,9,-1
 127 0 l 1,10,-1
 147 136 l 1,11,-1
 67 136 l 1,12,-1
 67 179 l 1,13,-1
 154 179 l 1,14,-1
 167 269 l 1,15,-1
 87 269 l 1,16,-1
 87 313 l 1,17,-1
 173 313 l 1,18,-1
 193 448 l 1,19,-1
 253 448 l 1,20,-1
 233 313 l 1,21,-1
 305 313 l 1,22,-1
 326 448 l 1,23,-1
 385 448 l 1,24,-1
 365 313 l 1,25,-1
 437 313 l 1,26,-1
 437 269 l 1,27,-1
 359 269 l 1,0,-1
227 269 m 1,28,-1
 214 179 l 1,29,-1
 286 179 l 1,30,-1
 300 269 l 1,31,-1
 227 269 l 1,28,-1
EndSplineSet
EndChar
StartChar: dollar
Encoding: 36 36 5
Width: 508
Flags: W
Fore
460 146 m 0,0,1
 460 111 460 111 444 87 c 128,-1,2
 428 63 428 63 403.5 47 c 128,-1,3
 379 31 379 31 348.5 23 c 128,-1,4
 318 15 318 15 289 12 c 1,5,-1
 289 -54 l 1,6,-1
 239 -54 l 1,7,-1
 239 11 l 1,8,9
 207 13 207 13 174.5 22 c 128,-1,10
 142 31 142 31 115 49 c 128,-1,11
 88 67 88 67 70 93.5 c 128,-1,12
 52 120 52 120 48 156 c 1,13,-1
 135 156 l 1,14,15
 137 110 137 110 171 80 c 128,-1,16
 205 50 205 50 260 50 c 0,17,18
 279 50 279 50 299.5 54 c 128,-1,19
 320 58 320 58 337.5 67.5 c 128,-1,20
 355 77 355 77 366.5 92.5 c 128,-1,21
 378 108 378 108 378 132 c 0,22,23
 378 155 378 155 355.5 168.5 c 128,-1,24
 333 182 333 182 299 192 c 128,-1,25
 265 202 265 202 225 210.5 c 128,-1,26
 185 219 185 219 151 232 c 128,-1,27
 117 245 117 245 94.5 266 c 128,-1,28
 72 287 72 287 72 322 c 0,29,30
 72 354 72 354 88 376 c 128,-1,31
 104 398 104 398 129 412 c 128,-1,32
 154 426 154 426 183.5 432.5 c 128,-1,33
 213 439 213 439 239 441 c 1,34,-1
 239 503 l 1,35,-1
 289 503 l 1,36,-1
 289 440 l 1,37,38
 348 434 348 434 391.5 405.5 c 128,-1,39
 435 377 435 377 457 320 c 1,40,-1
 375 320 l 1,41,42
 364 356 364 356 337 379 c 128,-1,43
 310 402 310 402 259 402 c 0,44,45
 243 402 243 402 224.5 398.5 c 128,-1,46
 206 395 206 395 190.5 387.5 c 128,-1,47
 175 380 175 380 164.5 366.5 c 128,-1,48
 154 353 154 353 154 334 c 256,49,50
 154 315 154 315 176.5 304 c 128,-1,51
 199 293 199 293 233 284.5 c 128,-1,52
 267 276 267 276 307 267 c 128,-1,53
 347 258 347 258 381 243.5 c 128,-1,54
 415 229 415 229 437.5 206 c 128,-1,55
 460 183 460 183 460 146 c 0,0,1
EndSplineSet
EndChar
StartChar: percent
Encoding: 37 37 6
Width: 549
Flags: W
Fore
524 132 m 256,0,1
 524 105 524 105 515 81 c 128,-1,2
 506 57 506 57 490.5 39 c 128,-1,3
 475 21 475 21 453.5 10 c 128,-1,4
 432 -1 432 -1 407 -1 c 0,5,6
 381 -1 381 -1 359.5 10 c 128,-1,7
 338 21 338 21 322.5 39 c 128,-1,8
 307 57 307 57 298 81 c 128,-1,9
 289 105 289 105 289 132 c 256,10,11
 289 159 289 159 298 183 c 128,-1,12
 307 207 307 207 322.5 225 c 128,-1,13
 338 243 338 243 359.5 254 c 128,-1,14
 381 265 381 265 407 265 c 0,15,16
 432 265 432 265 453.5 254 c 128,-1,17
 475 243 475 243 490.5 225 c 128,-1,18
 506 207 506 207 515 183 c 128,-1,19
 524 159 524 159 524 132 c 256,0,1
156 -11 m 1,20,-1
 97 -11 l 1,21,-1
 390 460 l 1,22,-1
 450 460 l 1,23,-1
 156 -11 l 1,20,-1
259 317 m 256,24,25
 259 290 259 290 250 266 c 128,-1,26
 241 242 241 242 225.5 224 c 128,-1,27
 210 206 210 206 188.5 195 c 128,-1,28
 167 184 167 184 142 184 c 0,29,30
 116 184 116 184 94.5 195 c 128,-1,31
 73 206 73 206 57.5 224 c 128,-1,32
 42 242 42 242 33 266 c 128,-1,33
 24 290 24 290 24 317 c 256,34,35
 24 344 24 344 33 368 c 128,-1,36
 42 392 42 392 57.5 410 c 128,-1,37
 73 428 73 428 94.5 439 c 128,-1,38
 116 450 116 450 142 450 c 0,39,40
 167 450 167 450 188.5 439 c 128,-1,41
 210 428 210 428 225.5 410 c 128,-1,42
 241 392 241 392 250 368 c 128,-1,43
 259 344 259 344 259 317 c 256,24,25
457 132 m 256,44,45
 457 188 457 188 444.5 208.5 c 128,-1,46
 432 229 432 229 407 229 c 0,47,48
 383 229 383 229 370 208.5 c 128,-1,49
 357 188 357 188 357 132 c 256,50,51
 357 76 357 76 369.5 56 c 128,-1,52
 382 36 382 36 407 36 c 256,53,54
 432 36 432 36 444.5 56 c 128,-1,55
 457 76 457 76 457 132 c 256,44,45
192 317 m 256,56,57
 192 373 192 373 179.5 393 c 128,-1,58
 167 413 167 413 142 413 c 0,59,60
 118 413 118 413 105 393 c 128,-1,61
 92 373 92 373 92 317 c 256,62,63
 92 261 92 261 104.5 240.5 c 128,-1,64
 117 220 117 220 142 220 c 256,65,66
 167 220 167 220 179.5 240.5 c 128,-1,67
 192 261 192 261 192 317 c 256,56,57
EndSplineSet
EndChar
StartChar: ampersand
Encoding: 38 38 7
Width: 547
Flags: W
Fore
430 -1 m 1,0,1
 417 6 417 6 405.5 14.5 c 128,-1,2
 394 23 394 23 376 33 c 1,3,4
 344 10 344 10 306 -2 c 128,-1,5
 268 -14 268 -14 225 -14 c 0,6,7
 193 -14 193 -14 160 -7.5 c 128,-1,8
 127 -1 127 -1 101 14 c 128,-1,9
 75 29 75 29 58.5 52.5 c 128,-1,10
 42 76 42 76 42 110 c 0,11,12
 42 135 42 135 51 154.5 c 128,-1,13
 60 174 60 174 75 189 c 128,-1,14
 90 204 90 204 109.5 215.5 c 128,-1,15
 129 227 129 227 149 237 c 1,16,17
 132 257 132 257 121.5 279.5 c 128,-1,18
 111 302 111 302 111 325 c 0,19,20
 111 350 111 350 121 372.5 c 128,-1,21
 131 395 131 395 148.5 412 c 128,-1,22
 166 429 166 429 190 438.5 c 128,-1,23
 214 448 214 448 243 448 c 0,24,25
 263 448 263 448 283.5 442.5 c 128,-1,26
 304 437 304 437 320.5 426 c 128,-1,27
 337 415 337 415 347.5 398 c 128,-1,28
 358 381 358 381 358 359 c 0,29,30
 358 336 358 336 349.5 318.5 c 128,-1,31
 341 301 341 301 326.5 287 c 128,-1,32
 312 273 312 273 293.5 261.5 c 128,-1,33
 275 250 275 250 254 240 c 1,34,35
 287 205 287 205 321.5 174 c 128,-1,36
 356 143 356 143 388 118 c 1,37,38
 399 144 399 144 402.5 172.5 c 128,-1,39
 406 201 406 201 400 242 c 1,40,-1
 486 242 l 1,41,42
 483 192 483 192 469 154.5 c 128,-1,43
 455 117 455 117 432 87 c 1,44,45
 458 70 458 70 490.5 45.5 c 128,-1,46
 523 21 523 21 551 -1 c 1,47,-1
 430 -1 l 1,0,1
285 353 m 0,48,49
 285 377 285 377 269.5 393 c 128,-1,50
 254 409 254 409 227 409 c 0,51,52
 216 409 216 409 207.5 404 c 128,-1,53
 199 399 199 399 192.5 391.5 c 128,-1,54
 186 384 186 384 182.5 375.5 c 128,-1,55
 179 367 179 367 179 360 c 0,56,57
 179 334 179 334 191 314.5 c 128,-1,58
 203 295 203 295 224 272 c 1,59,60
 251 286 251 286 268 304.5 c 128,-1,61
 285 323 285 323 285 353 c 0,48,49
339 61 m 1,62,63
 304 89 304 89 263.5 125 c 128,-1,64
 223 161 223 161 181 203 c 1,65,66
 156 189 156 189 142 172 c 128,-1,67
 128 155 128 155 128 130 c 0,68,69
 128 108 128 108 138.5 89 c 128,-1,70
 149 70 149 70 165.5 55.5 c 128,-1,71
 182 41 182 41 202.5 33 c 128,-1,72
 223 25 223 25 242 25 c 0,73,74
 272 25 272 25 296 36 c 128,-1,75
 320 47 320 47 339 61 c 1,62,63
EndSplineSet
EndChar
StartChar: quotesingle
Encoding: 39 39 8
Width: 169
Flags: W
Fore
97 252 m 1,0,-1
 71 252 l 1,1,-1
 46 433 l 2,2,3
 45 439 45 439 46 447.5 c 128,-1,4
 47 456 47 456 51 463.5 c 128,-1,5
 55 471 55 471 63 476 c 128,-1,6
 71 481 71 481 84 481 c 256,7,8
 97 481 97 481 105 476 c 128,-1,9
 113 471 113 471 117.5 463.5 c 128,-1,10
 122 456 122 456 123 447.5 c 128,-1,11
 124 439 124 439 123 433 c 2,12,-1
 97 252 l 1,0,-1
EndSplineSet
EndChar
StartChar: parenleft
Encoding: 40 40 9
Width: 231
Flags: W
Fore
155 -146 m 1,0,1
 99 -72 99 -72 68 2 c 128,-1,2
 37 76 37 76 37 168 c 256,3,4
 37 260 37 260 68 334 c 128,-1,5
 99 408 99 408 155 482 c 1,6,-1
 194 482 l 1,7,8
 174 447 174 447 159 416 c 128,-1,9
 144 385 144 385 133.5 349.5 c 128,-1,10
 123 314 123 314 118 271 c 128,-1,11
 113 228 113 228 113 168 c 0,12,13
 113 107 113 107 117 64.5 c 128,-1,14
 121 22 121 22 130.5 -12 c 128,-1,15
 140 -46 140 -46 155.5 -77 c 128,-1,16
 171 -108 171 -108 194 -146 c 1,17,-1
 155 -146 l 1,0,1
EndSplineSet
EndChar
StartChar: parenright
Encoding: 41 41 10
Width: 231
Flags: W
Fore
194 168 m 256,0,1
 194 76 194 76 162.5 2 c 128,-1,2
 131 -72 131 -72 76 -146 c 1,3,-1
 37 -146 l 1,4,5
 60 -108 60 -108 75.5 -77 c 128,-1,6
 91 -46 91 -46 100.5 -12 c 128,-1,7
 110 22 110 22 114 64.5 c 128,-1,8
 118 107 118 107 118 168 c 0,9,10
 118 228 118 228 112.5 271 c 128,-1,11
 107 314 107 314 97 349.5 c 128,-1,12
 87 385 87 385 71.5 416 c 128,-1,13
 56 447 56 447 37 482 c 1,14,-1
 76 482 l 1,15,16
 131 408 131 408 162.5 334 c 128,-1,17
 194 260 194 260 194 168 c 256,0,1
EndSplineSet
EndChar
StartChar: asterisk
Encoding: 42 42 11
Width: 364
Flags: W
Fore
214 326 m 1,0,-1
 302 257 l 1,1,-1
 231 211 l 1,2,-1
 182 309 l 1,3,-1
 133 211 l 1,4,-1
 62 257 l 1,5,-1
 150 326 l 1,6,-1
 37 339 l 1,7,-1
 64 415 l 1,8,-1
 164 363 l 1,9,-1
 136 466 l 1,10,-1
 225 466 l 1,11,-1
 197 361 l 1,12,-1
 300 415 l 1,13,-1
 327 339 l 1,14,-1
 214 326 l 1,0,-1
EndSplineSet
EndChar
StartChar: plus
Encoding: 43 43 12
Width: 469
Flags: W
Fore
267 164 m 1,0,-1
 267 0 l 1,1,-1
 202 0 l 1,2,-1
 202 164 l 1,3,-1
 34 164 l 1,4,-1
 34 216 l 1,5,-1
 202 216 l 1,6,-1
 202 379 l 1,7,-1
 267 379 l 1,8,-1
 267 216 l 1,9,-1
 435 216 l 1,10,-1
 435 164 l 1,11,-1
 267 164 l 1,0,-1
EndSplineSet
EndChar
StartChar: comma
Encoding: 44 44 13
Width: 263
Flags: W
Fore
176 19 m 0,0,1
 176 -13 176 -13 155.5 -45.5 c 128,-1,2
 135 -78 135 -78 101 -94 c 1,3,-1
 87 -75 l 1,4,5
 104 -68 104 -68 119.5 -50 c 128,-1,6
 135 -32 135 -32 137 -7 c 1,7,8
 125 -11 125 -11 114 -8.5 c 128,-1,9
 103 -6 103 -6 94.5 0 c 128,-1,10
 86 6 86 6 81.5 14 c 128,-1,11
 77 22 77 22 77 31 c 0,12,13
 77 48 77 48 89.5 63.5 c 128,-1,14
 102 79 102 79 126 79 c 0,15,16
 151 79 151 79 163.5 62 c 128,-1,17
 176 45 176 45 176 19 c 0,0,1
EndSplineSet
EndChar
StartChar: hyphen
Encoding: 45 45 14
Width: 321
Flags: W
Fore
306 170 m 1,0,-1
 15 170 l 1,1,-1
 15 225 l 1,2,-1
 306 225 l 1,3,-1
 306 170 l 1,0,-1
EndSplineSet
EndChar
StartChar: period
Encoding: 46 46 15
Width: 266
Flags: W
Fore
179 38 m 256,0,1
 179 18 179 18 166 5 c 128,-1,2
 153 -8 153 -8 133 -8 c 256,3,4
 113 -8 113 -8 100 5 c 128,-1,5
 87 18 87 18 87 38 c 256,6,7
 87 58 87 58 100 71 c 128,-1,8
 113 84 113 84 133 84 c 256,9,10
 153 84 153 84 166 71 c 128,-1,11
 179 58 179 58 179 38 c 256,0,1
EndSplineSet
EndChar
StartChar: slash
Encoding: 47 47 16
Width: 236
Flags: W
Fore
50 -15 m 1,0,-1
 -15 -15 l 1,1,-1
 186 481 l 1,2,-1
 251 481 l 1,3,-1
 50 -15 l 1,0,-1
EndSplineSet
EndChar
StartChar: zero
Encoding: 48 48 17
Width: 471
Flags: W
Fore
449 228 m 256,0,1
 449 180 449 180 433.5 137.5 c 128,-1,2
 418 95 418 95 389.5 62.5 c 128,-1,3
 361 30 361 30 321.5 11.5 c 128,-1,4
 282 -7 282 -7 235 -7 c 256,5,6
 188 -7 188 -7 149 11.5 c 128,-1,7
 110 30 110 30 81.5 62.5 c 128,-1,8
 53 95 53 95 37 137.5 c 128,-1,9
 21 180 21 180 21 228 c 256,10,11
 21 276 21 276 37 318.5 c 128,-1,12
 53 361 53 361 81.5 393 c 128,-1,13
 110 425 110 425 149 443.5 c 128,-1,14
 188 462 188 462 235 462 c 256,15,16
 282 462 282 462 321.5 443.5 c 128,-1,17
 361 425 361 425 389.5 393 c 128,-1,18
 418 361 418 361 433.5 318.5 c 128,-1,19
 449 276 449 276 449 228 c 256,0,1
366 228 m 256,20,21
 366 278 366 278 356 314.5 c 128,-1,22
 346 351 346 351 328.5 375 c 128,-1,23
 311 399 311 399 287 410.5 c 128,-1,24
 263 422 263 422 235 422 c 0,25,26
 208 422 208 422 184 410.5 c 128,-1,27
 160 399 160 399 142.5 375 c 128,-1,28
 125 351 125 351 115 314.5 c 128,-1,29
 105 278 105 278 105 228 c 256,30,31
 105 178 105 178 115 141 c 128,-1,32
 125 104 125 104 142.5 80 c 128,-1,33
 160 56 160 56 184 44.5 c 128,-1,34
 208 33 208 33 235 33 c 0,35,36
 263 33 263 33 287 44.5 c 128,-1,37
 311 56 311 56 328.5 80 c 128,-1,38
 346 104 346 104 356 141 c 128,-1,39
 366 178 366 178 366 228 c 256,20,21
EndSplineSet
EndChar
StartChar: one
Encoding: 49 49 18
Width: 471
Flags: W
Fore
201 0 m 1,0,-1
 201 353 l 1,1,-1
 89 353 l 1,2,-1
 89 391 l 1,3,4
 125 391 125 391 147.5 393.5 c 128,-1,5
 170 396 170 396 185 403.5 c 128,-1,6
 200 411 200 411 210 424.5 c 128,-1,7
 220 438 220 438 231 461 c 1,8,-1
 282 461 l 1,9,-1
 282 0 l 1,10,-1
 201 0 l 1,0,-1
EndSplineSet
EndChar
StartChar: two
Encoding: 50 50 19
Width: 471
Flags: W
Fore
27 0 m 1,0,1
 34 48 34 48 57.5 79 c 128,-1,2
 81 110 81 110 113 132.5 c 128,-1,3
 145 155 145 155 183 172 c 128,-1,4
 221 189 221 189 258 209 c 0,5,6
 274 218 274 218 289.5 227.5 c 128,-1,7
 305 237 305 237 317 249.5 c 128,-1,8
 329 262 329 262 336 277.5 c 128,-1,9
 343 293 343 293 343 313 c 0,10,11
 343 332 343 332 335.5 351.5 c 128,-1,12
 328 371 328 371 313 386 c 128,-1,13
 298 401 298 401 275.5 410.5 c 128,-1,14
 253 420 253 420 223 420 c 0,15,16
 172 420 172 420 136.5 387 c 128,-1,17
 101 354 101 354 100 297 c 1,18,-1
 16 297 l 1,19,20
 22 339 22 339 41 369 c 128,-1,21
 60 399 60 399 88 419 c 128,-1,22
 116 439 116 439 150.5 448.5 c 128,-1,23
 185 458 185 458 223 458 c 0,24,25
 263 458 263 458 299.5 449 c 128,-1,26
 336 440 336 440 364 422 c 128,-1,27
 392 404 392 404 408.5 376.5 c 128,-1,28
 425 349 425 349 425 312 c 0,29,30
 425 272 425 272 405 243.5 c 128,-1,31
 385 215 385 215 354.5 194 c 128,-1,32
 324 173 324 173 286.5 157 c 128,-1,33
 249 141 249 141 214.5 126.5 c 128,-1,34
 180 112 180 112 153 97 c 128,-1,35
 126 82 126 82 115 63 c 1,36,-1
 435 63 l 1,37,-1
 435 0 l 1,38,-1
 27 0 l 1,0,1
EndSplineSet
EndChar
StartChar: three
Encoding: 51 51 20
Width: 471
Flags: W
Fore
448 136 m 0,0,1
 448 98 448 98 428.5 71 c 128,-1,2
 409 44 409 44 378 26.5 c 128,-1,3
 347 9 347 9 307.5 1 c 128,-1,4
 268 -7 268 -7 229 -7 c 0,5,6
 191 -7 191 -7 156 2.5 c 128,-1,7
 121 12 121 12 93 31.5 c 128,-1,8
 65 51 65 51 46 81.5 c 128,-1,9
 27 112 27 112 21 154 c 1,10,-1
 105 154 l 1,11,12
 106 97 106 97 141.5 64.5 c 128,-1,13
 177 32 177 32 229 32 c 0,14,15
 257 32 257 32 281.5 40 c 128,-1,16
 306 48 306 48 325 62.5 c 128,-1,17
 344 77 344 77 355 96 c 128,-1,18
 366 115 366 115 366 137 c 0,19,20
 366 163 366 163 349.5 180.5 c 128,-1,21
 333 198 333 198 305.5 208 c 128,-1,22
 278 218 278 218 242 219 c 128,-1,23
 206 220 206 220 167 213 c 1,24,-1
 167 264 l 1,25,26
 208 258 208 258 240.5 261.5 c 128,-1,27
 273 265 273 265 295.5 276 c 128,-1,28
 318 287 318 287 329.5 303.5 c 128,-1,29
 341 320 341 320 341 339 c 0,30,31
 341 369 341 369 314 394.5 c 128,-1,32
 287 420 287 420 232 420 c 0,33,34
 187 420 187 420 161 391.5 c 128,-1,35
 135 363 135 363 131 312 c 1,36,-1
 49 312 l 1,37,38
 52 349 52 349 68 376.5 c 128,-1,39
 84 404 84 404 108.5 422 c 128,-1,40
 133 440 133 440 165 449 c 128,-1,41
 197 458 197 458 232 458 c 0,42,43
 269 458 269 458 303.5 451 c 128,-1,44
 338 444 338 444 364.5 430 c 128,-1,45
 391 416 391 416 407 393 c 128,-1,46
 423 370 423 370 423 339 c 0,47,48
 423 304 423 304 402.5 281 c 128,-1,49
 382 258 382 258 355 245 c 1,50,51
 393 234 393 234 420.5 207.5 c 128,-1,52
 448 181 448 181 448 136 c 0,0,1
EndSplineSet
EndChar
StartChar: four
Encoding: 52 52 21
Width: 471
Flags: W
Fore
420 110 m 1,0,-1
 335 110 l 1,1,-1
 335 0 l 1,2,-1
 253 0 l 1,3,-1
 254 110 l 1,4,-1
 17 110 l 1,5,-1
 -2 132 l 1,6,-1
 308 461 l 1,7,-1
 335 461 l 1,8,-1
 335 158 l 1,9,-1
 446 158 l 1,10,-1
 420 110 l 1,0,-1
254 329 m 1,11,-1
 93 158 l 1,12,-1
 254 158 l 1,13,-1
 254 329 l 1,11,-1
EndSplineSet
EndChar
StartChar: five
Encoding: 53 53 22
Width: 471
Flags: W
Fore
449 140 m 0,0,1
 449 101 449 101 428.5 73 c 128,-1,2
 408 45 408 45 376.5 27.5 c 128,-1,3
 345 10 345 10 307 1.5 c 128,-1,4
 269 -7 269 -7 233 -7 c 0,5,6
 195 -7 195 -7 160 2.5 c 128,-1,7
 125 12 125 12 97.5 31.5 c 128,-1,8
 70 51 70 51 50.5 81 c 128,-1,9
 31 111 31 111 25 153 c 1,10,-1
 109 153 l 1,11,12
 110 97 110 97 145.5 64 c 128,-1,13
 181 31 181 31 232 31 c 0,14,15
 260 31 260 31 284 40 c 128,-1,16
 308 49 308 49 326 64 c 128,-1,17
 344 79 344 79 354 99 c 128,-1,18
 364 119 364 119 364 141 c 0,19,20
 364 165 364 165 354 185.5 c 128,-1,21
 344 206 344 206 326 221 c 128,-1,22
 308 236 308 236 282 245 c 128,-1,23
 256 254 256 254 225 254 c 0,24,25
 188 254 188 254 158.5 241.5 c 128,-1,26
 129 229 129 229 98 209 c 1,27,-1
 60 219 l 1,28,-1
 85 453 l 1,29,-1
 426 453 l 1,30,-1
 403 390 l 1,31,-1
 132 390 l 1,32,-1
 121 276 l 1,33,34
 144 285 144 285 174 290 c 128,-1,35
 204 295 204 295 233 295 c 0,36,37
 279 295 279 295 319 285 c 128,-1,38
 359 275 359 275 387.5 255.5 c 128,-1,39
 416 236 416 236 432.5 207 c 128,-1,40
 449 178 449 178 449 140 c 0,0,1
EndSplineSet
EndChar
StartChar: six
Encoding: 54 54 23
Width: 471
Flags: W
Fore
447 164 m 0,0,1
 447 124 447 124 430.5 92 c 128,-1,2
 414 60 414 60 386 38 c 128,-1,3
 358 16 358 16 320.5 4.5 c 128,-1,4
 283 -7 283 -7 240 -7 c 0,5,6
 192 -7 192 -7 152 10 c 128,-1,7
 112 27 112 27 83 57 c 128,-1,8
 54 87 54 87 38 127 c 128,-1,9
 22 167 22 167 22 214 c 0,10,11
 22 263 22 263 36 307.5 c 128,-1,12
 50 352 50 352 78.5 385.5 c 128,-1,13
 107 419 107 419 149.5 438.5 c 128,-1,14
 192 458 192 458 249 458 c 0,15,16
 280 458 280 458 309 452.5 c 128,-1,17
 338 447 338 447 363 433.5 c 128,-1,18
 388 420 388 420 406.5 398 c 128,-1,19
 425 376 425 376 435 344 c 1,20,-1
 354 344 l 1,21,22
 337 379 337 379 313 398 c 128,-1,23
 289 417 289 417 247 417 c 0,24,25
 215 417 215 417 190 403 c 128,-1,26
 165 389 165 389 148 367.5 c 128,-1,27
 131 346 131 346 121 319 c 128,-1,28
 111 292 111 292 108 267 c 1,29,30
 130 290 130 290 165.5 306.5 c 128,-1,31
 201 323 201 323 252 323 c 0,32,33
 294 323 294 323 329.5 312 c 128,-1,34
 365 301 365 301 391 280.5 c 128,-1,35
 417 260 417 260 432 230.5 c 128,-1,36
 447 201 447 201 447 164 c 0,0,1
361 157 m 0,37,38
 361 213 361 213 329 246 c 128,-1,39
 297 279 297 279 241 279 c 0,40,41
 186 279 186 279 153.5 246 c 128,-1,42
 121 213 121 213 121 157 c 0,43,44
 121 100 121 100 153 67 c 128,-1,45
 185 34 185 34 241 34 c 0,46,47
 296 34 296 34 328.5 67 c 128,-1,48
 361 100 361 100 361 157 c 0,37,38
EndSplineSet
EndChar
StartChar: seven
Encoding: 55 55 24
Width: 471
Flags: W
Fore
449 453 m 1,0,1
 449 415 449 415 430 385 c 128,-1,2
 411 355 411 355 388 329 c 0,3,4
 350 287 350 287 318 254 c 128,-1,5
 286 221 286 221 263 186 c 128,-1,6
 240 151 240 151 226.5 107.5 c 128,-1,7
 213 64 213 64 213 0 c 1,8,-1
 127 0 l 1,9,10
 127 80 127 80 155.5 140 c 128,-1,11
 184 200 184 200 242 256 c 0,12,13
 253 267 253 267 272 284 c 128,-1,14
 291 301 291 301 310 320.5 c 128,-1,15
 329 340 329 340 345.5 358.5 c 128,-1,16
 362 377 362 377 369 391 c 1,17,-1
 29 391 l 1,18,-1
 50 453 l 1,19,-1
 449 453 l 1,20,-1
 449 453 l 1,0,1
EndSplineSet
EndChar
StartChar: eight
Encoding: 56 56 25
Width: 471
Flags: W
Fore
455 140 m 0,0,1
 455 101 455 101 434.5 73 c 128,-1,2
 414 45 414 45 382 27 c 128,-1,3
 350 9 350 9 310.5 1 c 128,-1,4
 271 -7 271 -7 233 -7 c 0,5,6
 196 -7 196 -7 157.5 0 c 128,-1,7
 119 7 119 7 87.5 23.5 c 128,-1,8
 56 40 56 40 36 66.5 c 128,-1,9
 16 93 16 93 16 131 c 0,10,11
 16 154 16 154 26.5 173 c 128,-1,12
 37 192 37 192 53.5 207 c 128,-1,13
 70 222 70 222 91 232.5 c 128,-1,14
 112 243 112 243 133 249 c 1,15,16
 98 262 98 262 73 286 c 128,-1,17
 48 310 48 310 48 346 c 0,18,19
 48 377 48 377 66 399.5 c 128,-1,20
 84 422 84 422 112 436 c 128,-1,21
 140 450 140 450 174 456.5 c 128,-1,22
 208 463 208 463 240 463 c 0,23,24
 274 463 274 463 307 456.5 c 128,-1,25
 340 450 340 450 366.5 436.5 c 128,-1,26
 393 423 393 423 409 403 c 128,-1,27
 425 383 425 383 425 356 c 0,28,29
 425 321 425 321 395 294 c 128,-1,30
 365 267 365 267 324 255 c 1,31,32
 349 251 349 251 372.5 241.5 c 128,-1,33
 396 232 396 232 414.5 217.5 c 128,-1,34
 433 203 433 203 444 183.5 c 128,-1,35
 455 164 455 164 455 140 c 0,0,1
344 353 m 0,36,37
 344 388 344 388 313 406 c 128,-1,38
 282 424 282 424 239 424 c 0,39,40
 193 424 193 424 160 407.5 c 128,-1,41
 127 391 127 391 127 357 c 0,42,43
 127 340 127 340 141 327.5 c 128,-1,44
 155 315 155 315 175.5 306 c 128,-1,45
 196 297 196 297 218 290.5 c 128,-1,46
 240 284 240 284 256 280 c 1,47,48
 271 284 271 284 286.5 290.5 c 128,-1,49
 302 297 302 297 314.5 306 c 128,-1,50
 327 315 327 315 335.5 326.5 c 128,-1,51
 344 338 344 338 344 353 c 0,36,37
373 135 m 0,52,53
 373 151 373 151 360 165 c 128,-1,54
 347 179 347 179 323.5 191 c 128,-1,55
 300 203 300 203 268 212 c 128,-1,56
 236 221 236 221 197 227 c 1,57,58
 178 224 178 224 161 216 c 128,-1,59
 144 208 144 208 131.5 196.5 c 128,-1,60
 119 185 119 185 111.5 170.5 c 128,-1,61
 104 156 104 156 104 140 c 0,62,63
 104 96 104 96 136 65 c 128,-1,64
 168 34 168 34 233 34 c 0,65,66
 299 34 299 34 336 62.5 c 128,-1,67
 373 91 373 91 373 135 c 0,52,53
EndSplineSet
EndChar
StartChar: nine
Encoding: 57 57 26
Width: 471
Flags: W
Fore
449 237 m 0,0,1
 449 187 449 187 435 143 c 128,-1,2
 421 99 421 99 392.5 65.5 c 128,-1,3
 364 32 364 32 321.5 12.5 c 128,-1,4
 279 -7 279 -7 222 -7 c 0,5,6
 191 -7 191 -7 162 -1.5 c 128,-1,7
 133 4 133 4 108 17.5 c 128,-1,8
 83 31 83 31 64.5 53 c 128,-1,9
 46 75 46 75 36 107 c 1,10,-1
 117 107 l 1,11,12
 134 72 134 72 158 53 c 128,-1,13
 182 34 182 34 224 34 c 0,14,15
 256 34 256 34 280.5 48 c 128,-1,16
 305 62 305 62 322.5 83.5 c 128,-1,17
 340 105 340 105 350 131.5 c 128,-1,18
 360 158 360 158 363 184 c 1,19,20
 341 161 341 161 305.5 144.5 c 128,-1,21
 270 128 270 128 220 128 c 0,22,23
 178 128 178 128 142.5 139 c 128,-1,24
 107 150 107 150 80.5 170.5 c 128,-1,25
 54 191 54 191 39.5 220.5 c 128,-1,26
 25 250 25 250 25 287 c 0,27,28
 25 327 25 327 41 359 c 128,-1,29
 57 391 57 391 85 413 c 128,-1,30
 113 435 113 435 150.5 446.5 c 128,-1,31
 188 458 188 458 231 458 c 0,32,33
 279 458 279 458 319 441 c 128,-1,34
 359 424 359 424 388 394 c 128,-1,35
 417 364 417 364 433 323.5 c 128,-1,36
 449 283 449 283 449 237 c 0,0,1
350 294 m 0,37,38
 350 351 350 351 318 384 c 128,-1,39
 286 417 286 417 231 417 c 0,40,41
 175 417 175 417 143 384 c 128,-1,42
 111 351 111 351 111 294 c 0,43,44
 111 238 111 238 143 205 c 128,-1,45
 175 172 175 172 230 172 c 0,46,47
 286 172 286 172 318 205 c 128,-1,48
 350 238 350 238 350 294 c 0,37,38
EndSplineSet
EndChar
StartChar: colon
Encoding: 58 58 27
Width: 261
Flags: W
Fore
175 288 m 0,0,1
 175 268 175 268 161.5 254.5 c 128,-1,2
 148 241 148 241 128 241 c 0,3,4
 109 241 109 241 95.5 254.5 c 128,-1,5
 82 268 82 268 82 288 c 0,6,7
 82 307 82 307 95.5 320.5 c 128,-1,8
 109 334 109 334 128 334 c 0,9,10
 148 334 148 334 161.5 320.5 c 128,-1,11
 175 307 175 307 175 288 c 0,0,1
175 38 m 256,12,13
 175 18 175 18 161.5 5 c 128,-1,14
 148 -8 148 -8 128 -8 c 0,15,16
 109 -8 109 -8 95.5 5 c 128,-1,17
 82 18 82 18 82 38 c 256,18,19
 82 58 82 58 95.5 71 c 128,-1,20
 109 84 109 84 128 84 c 0,21,22
 148 84 148 84 161.5 71 c 128,-1,23
 175 58 175 58 175 38 c 256,12,13
EndSplineSet
EndChar
StartChar: semicolon
Encoding: 59 59 28
Width: 273
Flags: W
Fore
184 288 m 0,0,1
 184 268 184 268 170.5 254.5 c 128,-1,2
 157 241 157 241 138 241 c 0,3,4
 118 241 118 241 104.5 254.5 c 128,-1,5
 91 268 91 268 91 288 c 0,6,7
 91 307 91 307 104.5 320.5 c 128,-1,8
 118 334 118 334 138 334 c 0,9,10
 157 334 157 334 170.5 320.5 c 128,-1,11
 184 307 184 307 184 288 c 0,0,1
186 19 m 0,12,13
 186 -13 186 -13 165.5 -45.5 c 128,-1,14
 145 -78 145 -78 110 -94 c 1,15,-1
 96 -75 l 1,16,17
 113 -68 113 -68 129 -50 c 128,-1,18
 145 -32 145 -32 147 -7 c 1,19,20
 135 -11 135 -11 124 -8.5 c 128,-1,21
 113 -6 113 -6 104.5 0 c 128,-1,22
 96 6 96 6 91.5 14 c 128,-1,23
 87 22 87 22 87 31 c 0,24,25
 87 48 87 48 99 63.5 c 128,-1,26
 111 79 111 79 136 79 c 256,27,28
 161 79 161 79 173.5 62 c 128,-1,29
 186 45 186 45 186 19 c 0,12,13
EndSplineSet
EndChar
StartChar: less
Encoding: 60 60 29
Width: 470
Flags: W
Fore
129 190 m 1,0,-1
 432 60 l 1,1,-1
 432 -7 l 1,2,-1
 39 163 l 1,3,-1
 39 216 l 1,4,-1
 432 386 l 1,5,-1
 432 320 l 1,6,-1
 129 190 l 1,0,-1
EndSplineSet
EndChar
StartChar: equal
Encoding: 61 61 30
Width: 469
Flags: W
Fore
34 237 m 1,0,-1
 34 285 l 1,1,-1
 435 285 l 1,2,-1
 435 237 l 1,3,-1
 34 237 l 1,0,-1
34 100 m 1,4,-1
 34 148 l 1,5,-1
 435 148 l 1,6,-1
 435 100 l 1,7,-1
 34 100 l 1,4,-1
EndSplineSet
EndChar
StartChar: greater
Encoding: 62 62 31
Width: 470
Flags: W
Fore
39 -7 m 1,0,-1
 39 60 l 1,1,-1
 341 190 l 1,2,-1
 39 320 l 1,3,-1
 39 386 l 1,4,-1
 432 216 l 1,5,-1
 432 163 l 1,6,-1
 39 -7 l 1,0,-1
EndSplineSet
EndChar
StartChar: question
Encoding: 63 63 32
Width: 397
Flags: W
Fore
361 344 m 0,0,1
 361 317 361 317 349.5 299 c 128,-1,2
 338 281 338 281 320.5 267 c 128,-1,3
 303 253 303 253 282.5 240 c 128,-1,4
 262 227 262 227 244 211 c 128,-1,5
 226 195 226 195 214 173 c 128,-1,6
 202 151 202 151 201 118 c 1,7,-1
 161 118 l 1,8,9
 159 157 159 157 166 183.5 c 128,-1,10
 173 210 173 210 185 228.5 c 128,-1,11
 197 247 197 247 211 259.5 c 128,-1,12
 225 272 225 272 237 284 c 128,-1,13
 249 296 249 296 257.5 310 c 128,-1,14
 266 324 266 324 266 345 c 256,15,16
 266 366 266 366 263.5 384.5 c 128,-1,17
 261 403 261 403 252.5 416 c 128,-1,18
 244 429 244 429 229 436.5 c 128,-1,19
 214 444 214 444 190 444 c 0,20,21
 164 444 164 444 148 431.5 c 128,-1,22
 132 419 132 419 123 399.5 c 128,-1,23
 114 380 114 380 111 357 c 128,-1,24
 108 334 108 334 108 313 c 1,25,-1
 26 313 l 1,26,27
 26 391 26 391 70.5 436 c 128,-1,28
 115 481 115 481 192 481 c 0,29,30
 223 481 223 481 253.5 473 c 128,-1,31
 284 465 284 465 308 448 c 128,-1,32
 332 431 332 431 346.5 405 c 128,-1,33
 361 379 361 379 361 344 c 0,0,1
228 36 m 256,34,35
 228 16 228 16 214.5 2.5 c 128,-1,36
 201 -11 201 -11 181 -11 c 256,37,38
 161 -11 161 -11 147.5 2.5 c 128,-1,39
 134 16 134 16 134 36 c 256,40,41
 134 56 134 56 147.5 69.5 c 128,-1,42
 161 83 161 83 181 83 c 256,43,44
 201 83 201 83 214.5 69.5 c 128,-1,45
 228 56 228 56 228 36 c 256,34,35
EndSplineSet
EndChar
StartChar: at
Encoding: 64 64 33
Width: 615
Flags: W
Fore
572 268 m 0,0,1
 572 239 572 239 561.5 208.5 c 128,-1,2
 551 178 551 178 531.5 152 c 128,-1,3
 512 126 512 126 484.5 109.5 c 128,-1,4
 457 93 457 93 423 93 c 0,5,6
 399 93 399 93 380.5 111 c 128,-1,7
 362 129 362 129 355 148 c 1,8,9
 338 126 338 126 318 110 c 128,-1,10
 298 94 298 94 269 94 c 0,11,12
 246 94 246 94 231 103 c 128,-1,13
 216 112 216 112 207 126.5 c 128,-1,14
 198 141 198 141 194.5 157.5 c 128,-1,15
 191 174 191 174 191 189 c 0,16,17
 191 214 191 214 200 245 c 128,-1,18
 209 276 209 276 227.5 303 c 128,-1,19
 246 330 246 330 273.5 348 c 128,-1,20
 301 366 301 366 339 366 c 0,21,22
 379 366 379 366 395 325 c 1,23,-1
 417 359 l 1,24,-1
 474 359 l 1,25,-1
 423 173 l 2,26,27
 418 156 418 156 418.5 144 c 128,-1,28
 419 132 419 132 431 132 c 0,29,30
 449 132 449 132 465 145 c 128,-1,31
 481 158 481 158 492.5 178 c 128,-1,32
 504 198 504 198 510.5 221.5 c 128,-1,33
 517 245 517 245 517 266 c 0,34,35
 517 303 517 303 502 335.5 c 128,-1,36
 487 368 487 368 460.5 393 c 128,-1,37
 434 418 434 418 398.5 432.5 c 128,-1,38
 363 447 363 447 322 447 c 0,39,40
 277 447 277 447 241 429 c 128,-1,41
 205 411 205 411 180 380 c 128,-1,42
 155 349 155 349 141.5 309 c 128,-1,43
 128 269 128 269 128 225 c 256,44,45
 128 181 128 181 143.5 144.5 c 128,-1,46
 159 108 159 108 186 82 c 128,-1,47
 213 56 213 56 249.5 41.5 c 128,-1,48
 286 27 286 27 327 27 c 0,49,50
 369 27 369 27 406 40 c 128,-1,51
 443 53 443 53 475 73 c 1,52,-1
 500 33 l 1,53,54
 461 13 461 13 420 -1 c 128,-1,55
 379 -15 379 -15 331 -15 c 0,56,57
 270 -15 270 -15 217.5 3 c 128,-1,58
 165 21 165 21 126 53 c 128,-1,59
 87 85 87 85 65 128.5 c 128,-1,60
 43 172 43 172 43 223 c 0,61,62
 43 277 43 277 64 324 c 128,-1,63
 85 371 85 371 122 406 c 128,-1,64
 159 441 159 441 210 461 c 128,-1,65
 261 481 261 481 321 481 c 0,66,67
 374 481 374 481 420 465.5 c 128,-1,68
 466 450 466 450 499.5 422 c 128,-1,69
 533 394 533 394 552.5 354.5 c 128,-1,70
 572 315 572 315 572 268 c 0,0,1
373 277 m 0,71,72
 373 298 373 298 367 310.5 c 128,-1,73
 361 323 361 323 351 323 c 0,74,75
 317 323 317 323 292.5 286.5 c 128,-1,76
 268 250 268 250 268 192 c 0,77,78
 268 171 268 171 274.5 155 c 128,-1,79
 281 139 281 139 298 139 c 0,80,81
 310 139 310 139 323 151.5 c 128,-1,82
 336 164 336 164 347 183.5 c 128,-1,83
 358 203 358 203 365.5 228 c 128,-1,84
 373 253 373 253 373 277 c 0,71,72
EndSplineSet
EndChar
StartChar: A
Encoding: 65 65 34
Width: 582
Flags: W
Fore
481 0 m 1,0,-1
 356 225 l 1,1,-1
 188 225 l 1,2,-1
 60 0 l 1,3,-1
 5 0 l 1,4,-1
 285 482 l 1,5,-1
 313 482 l 1,6,-1
 577 0 l 1,7,-1
 481 0 l 1,0,-1
274 379 m 1,8,-1
 216 275 l 1,9,-1
 329 275 l 1,10,-1
 274 379 l 1,8,-1
EndSplineSet
EndChar
StartChar: B
Encoding: 66 66 35
Width: 563
Flags: W
Fore
538 134 m 0,0,1
 538 90 538 90 512.5 64 c 128,-1,2
 487 38 487 38 448.5 23.5 c 128,-1,3
 410 9 410 9 365.5 4.5 c 128,-1,4
 321 0 321 0 283 0 c 2,5,-1
 50 0 l 1,6,-1
 50 466 l 1,7,-1
 293 466 l 2,8,9
 325 466 325 466 360.5 461.5 c 128,-1,10
 396 457 396 457 425.5 444.5 c 128,-1,11
 455 432 455 432 474.5 410 c 128,-1,12
 494 388 494 388 494 353 c 256,13,14
 494 318 494 318 469 293 c 128,-1,15
 444 268 444 268 407 254 c 1,16,17
 433 248 433 248 456.5 238.5 c 128,-1,18
 480 229 480 229 498 214.5 c 128,-1,19
 516 200 516 200 527 180.5 c 128,-1,20
 538 161 538 161 538 134 c 0,0,1
407 349 m 0,21,22
 407 374 407 374 393 389 c 128,-1,23
 379 404 379 404 357 412 c 128,-1,24
 335 420 335 420 309 423 c 128,-1,25
 283 426 283 426 259 426 c 2,26,-1
 133 426 l 1,27,-1
 133 270 l 1,28,-1
 261 270 l 2,29,30
 330 270 330 270 368.5 292 c 128,-1,31
 407 314 407 314 407 349 c 0,21,22
447 130 m 0,32,33
 447 163 447 163 429.5 182.5 c 128,-1,34
 412 202 412 202 385 212.5 c 128,-1,35
 358 223 358 223 325 226 c 128,-1,36
 292 229 292 229 261 229 c 2,37,-1
 133 229 l 1,38,-1
 133 40 l 1,39,-1
 319 40 l 2,40,41
 344 40 344 40 367.5 46.5 c 128,-1,42
 391 53 391 53 408.5 65 c 128,-1,43
 426 77 426 77 436.5 93.5 c 128,-1,44
 447 110 447 110 447 130 c 0,32,33
EndSplineSet
EndChar
StartChar: C
Encoding: 67 67 36
Width: 589
Flags: W
Fore
564 135 m 1,0,1
 526 57 526 57 462 21 c 128,-1,2
 398 -15 398 -15 317 -15 c 0,3,4
 256 -15 256 -15 203 4 c 128,-1,5
 150 23 150 23 110.5 56 c 128,-1,6
 71 89 71 89 48 133.5 c 128,-1,7
 25 178 25 178 25 230 c 0,8,9
 25 287 25 287 48 333.5 c 128,-1,10
 71 380 71 380 110.5 413 c 128,-1,11
 150 446 150 446 203.5 464 c 128,-1,12
 257 482 257 482 318 482 c 0,13,14
 355 482 355 482 391.5 473.5 c 128,-1,15
 428 465 428 465 460 447 c 128,-1,16
 492 429 492 429 519 400.5 c 128,-1,17
 546 372 546 372 564 332 c 1,18,-1
 464 332 l 1,19,20
 444 382 444 382 406 412.5 c 128,-1,21
 368 443 368 443 317 443 c 0,22,23
 275 443 275 443 238.5 427.5 c 128,-1,24
 202 412 202 412 175.5 384.5 c 128,-1,25
 149 357 149 357 133.5 319.5 c 128,-1,26
 118 282 118 282 118 237 c 256,27,28
 118 192 118 192 133.5 153 c 128,-1,29
 149 114 149 114 175.5 85 c 128,-1,30
 202 56 202 56 238.5 39.5 c 128,-1,31
 275 23 275 23 317 23 c 0,32,33
 368 23 368 23 407 53.5 c 128,-1,34
 446 84 446 84 466 135 c 1,35,-1
 564 135 l 1,36,-1
 564 135 l 1,0,1
EndSplineSet
EndChar
StartChar: D
Encoding: 68 68 37
Width: 586
Flags: W
Fore
561 247 m 0,0,1
 561 195 561 195 545 150 c 128,-1,2
 529 105 529 105 491 71.5 c 128,-1,3
 453 38 453 38 390.5 19 c 128,-1,4
 328 0 328 0 234 0 c 2,5,-1
 50 0 l 1,6,-1
 50 466 l 1,7,-1
 230 466 l 2,8,9
 320 466 320 466 382.5 449.5 c 128,-1,10
 445 433 445 433 485 403.5 c 128,-1,11
 525 374 525 374 543 334 c 128,-1,12
 561 294 561 294 561 247 c 0,0,1
466 247 m 0,13,14
 466 283 466 283 455.5 315.5 c 128,-1,15
 445 348 445 348 419.5 372.5 c 128,-1,16
 394 397 394 397 351.5 411.5 c 128,-1,17
 309 426 309 426 244 426 c 2,18,-1
 133 426 l 1,19,-1
 133 40 l 1,20,-1
 244 40 l 2,21,22
 308 40 308 40 351 54.5 c 128,-1,23
 394 69 394 69 419.5 96 c 128,-1,24
 445 123 445 123 455.5 161.5 c 128,-1,25
 466 200 466 200 466 247 c 0,13,14
EndSplineSet
EndChar
StartChar: E
Encoding: 69 69 38
Width: 484
Flags: W
Fore
50 0 m 1,0,-1
 50 466 l 1,1,-1
 469 466 l 1,2,-1
 469 426 l 1,3,-1
 132 426 l 1,4,-1
 132 270 l 1,5,-1
 398 270 l 1,6,-1
 398 230 l 1,7,-1
 132 230 l 1,8,-1
 133 40 l 1,9,-1
 469 40 l 1,10,-1
 469 0 l 1,11,-1
 50 0 l 1,0,-1
EndSplineSet
EndChar
StartChar: F
Encoding: 70 70 39
Width: 484
Flags: W
Fore
132 426 m 1,0,-1
 132 270 l 1,1,-1
 398 270 l 1,2,-1
 398 230 l 1,3,-1
 132 230 l 1,4,-1
 133 0 l 1,5,-1
 50 0 l 1,6,-1
 50 466 l 1,7,-1
 469 466 l 1,8,-1
 469 426 l 1,9,-1
 132 426 l 1,0,-1
EndSplineSet
EndChar
StartChar: G
Encoding: 71 71 40
Width: 608
Flags: W
Fore
464 332 m 1,0,1
 442 383 442 383 403.5 413 c 128,-1,2
 365 443 365 443 310 443 c 0,3,4
 271 443 271 443 236.5 428 c 128,-1,5
 202 413 202 413 176 385.5 c 128,-1,6
 150 358 150 358 134.5 320.5 c 128,-1,7
 119 283 119 283 119 238 c 0,8,9
 119 188 119 188 135 148 c 128,-1,10
 151 108 151 108 177.5 80.5 c 128,-1,11
 204 53 204 53 238 38.5 c 128,-1,12
 272 24 272 24 307 24 c 0,13,14
 358 24 358 24 400.5 43.5 c 128,-1,15
 443 63 443 63 469 91 c 1,16,-1
 469 211 l 1,17,-1
 301 211 l 1,18,-1
 301 252 l 1,19,-1
 551 252 l 1,20,-1
 551 70 l 1,21,22
 527 47 527 47 498 31 c 128,-1,23
 469 15 469 15 437.5 4.5 c 128,-1,24
 406 -6 406 -6 372.5 -10.5 c 128,-1,25
 339 -15 339 -15 307 -15 c 0,26,27
 258 -15 258 -15 208 1.5 c 128,-1,28
 158 18 158 18 117 49.5 c 128,-1,29
 76 81 76 81 50 126.5 c 128,-1,30
 24 172 24 172 24 230 c 0,31,32
 24 287 24 287 47 333.5 c 128,-1,33
 70 380 70 380 109.5 413 c 128,-1,34
 149 446 149 446 201 464 c 128,-1,35
 253 482 253 482 310 482 c 0,36,37
 346 482 346 482 383.5 474.5 c 128,-1,38
 421 467 421 467 454.5 450 c 128,-1,39
 488 433 488 433 516.5 404 c 128,-1,40
 545 375 545 375 563 332 c 1,41,-1
 464 332 l 1,0,1
EndSplineSet
EndChar
StartChar: H
Encoding: 72 72 41
Width: 576
Flags: W
Fore
526 0 m 1,0,-1
 444 0 l 1,1,-1
 444 230 l 1,2,-1
 132 230 l 1,3,-1
 132 0 l 1,4,-1
 50 0 l 1,5,-1
 50 466 l 1,6,-1
 132 466 l 1,7,-1
 132 270 l 1,8,-1
 444 270 l 1,9,-1
 444 466 l 1,10,-1
 526 466 l 1,11,-1
 526 0 l 1,0,-1
EndSplineSet
EndChar
StartChar: I
Encoding: 73 73 42
Width: 182
Flags: W
Fore
50 0 m 1,0,-1
 50 466 l 1,1,-1
 132 466 l 1,2,-1
 132 0 l 1,3,-1
 50 0 l 1,0,-1
EndSplineSet
EndChar
StartChar: J
Encoding: 74 74 43
Width: 375
Flags: W
Fore
325 147 m 1,0,1
 325 106 325 106 312 75 c 128,-1,2
 299 44 299 44 276.5 23 c 128,-1,3
 254 2 254 2 224.5 -9 c 128,-1,4
 195 -20 195 -20 163 -20 c 0,5,6
 133 -20 133 -20 104 -12 c 128,-1,7
 75 -4 75 -4 51.5 12 c 128,-1,8
 28 28 28 28 13 52.5 c 128,-1,9
 -2 77 -2 77 -4 110 c 1,10,-1
 82 110 l 1,11,12
 84 71 84 71 104 44.5 c 128,-1,13
 124 18 124 18 161 18 c 0,14,15
 196 18 196 18 219 49.5 c 128,-1,16
 242 81 242 81 242 135 c 2,17,-1
 242 466 l 1,18,-1
 325 466 l 1,19,-1
 325 147 l 1,20,-1
 325 147 l 1,0,1
EndSplineSet
EndChar
StartChar: K
Encoding: 75 75 44
Width: 527
Flags: W
Fore
422 0 m 1,0,-1
 228 270 l 1,1,-1
 132 197 l 1,2,-1
 132 0 l 1,3,-1
 50 0 l 1,4,-1
 50 466 l 1,5,-1
 132 466 l 1,6,-1
 132 257 l 1,7,-1
 400 466 l 1,8,-1
 483 466 l 1,9,-1
 291 319 l 1,10,-1
 522 0 l 1,11,-1
 422 0 l 1,0,-1
EndSplineSet
EndChar
StartChar: L
Encoding: 76 76 45
Width: 428
Flags: W
Fore
50 0 m 1,0,-1
 50 466 l 1,1,-1
 132 466 l 1,2,-1
 132 40 l 1,3,-1
 423 40 l 1,4,-1
 423 0 l 1,5,-1
 50 0 l 1,0,-1
EndSplineSet
EndChar
StartChar: M
Encoding: 77 77 46
Width: 644
Flags: W
Fore
512 0 m 1,0,-1
 512 358 l 1,1,-1
 318 -8 l 1,2,-1
 292 -8 l 1,3,-1
 100 363 l 1,4,-1
 100 0 l 1,5,-1
 50 0 l 1,6,-1
 50 466 l 1,7,-1
 143 466 l 1,8,-1
 328 106 l 1,9,-1
 518 466 l 1,10,-1
 594 466 l 1,11,-1
 594 0 l 1,12,-1
 512 0 l 1,0,-1
EndSplineSet
EndChar
StartChar: N
Encoding: 78 78 47
Width: 563
Flags: W
Fore
485 -15 m 1,0,-1
 100 382 l 1,1,-1
 100 -1 l 1,2,-1
 50 -1 l 1,3,-1
 50 466 l 1,4,-1
 131 466 l 1,5,-1
 463 124 l 1,6,-1
 463 466 l 1,7,-1
 513 466 l 1,8,-1
 513 -15 l 1,9,-1
 485 -15 l 1,0,-1
EndSplineSet
EndChar
StartChar: O
Encoding: 79 79 48
Width: 624
Flags: W
Fore
599 233 m 256,0,1
 599 181 599 181 576 135.5 c 128,-1,2
 553 90 553 90 514 56 c 128,-1,3
 475 22 475 22 422.5 2.5 c 128,-1,4
 370 -17 370 -17 311 -17 c 256,5,6
 252 -17 252 -17 200 2.5 c 128,-1,7
 148 22 148 22 109 55.5 c 128,-1,8
 70 89 70 89 47.5 134.5 c 128,-1,9
 25 180 25 180 25 232 c 256,10,11
 25 284 25 284 47.5 329.5 c 128,-1,12
 70 375 70 375 109 409 c 128,-1,13
 148 443 148 443 200.5 462.5 c 128,-1,14
 253 482 253 482 312 482 c 256,15,16
 371 482 371 482 423.5 462.5 c 128,-1,17
 476 443 476 443 515 409.5 c 128,-1,18
 554 376 554 376 576.5 330.5 c 128,-1,19
 599 285 599 285 599 233 c 256,0,1
504 233 m 256,20,21
 504 278 504 278 490.5 317 c 128,-1,22
 477 356 477 356 451.5 385 c 128,-1,23
 426 414 426 414 390.5 430.5 c 128,-1,24
 355 447 355 447 312 447 c 0,25,26
 268 447 268 447 233 430 c 128,-1,27
 198 413 198 413 172.5 384 c 128,-1,28
 147 355 147 355 133.5 316 c 128,-1,29
 120 277 120 277 120 232 c 256,30,31
 120 187 120 187 133.5 148.5 c 128,-1,32
 147 110 147 110 172 81 c 128,-1,33
 197 52 197 52 232 35.5 c 128,-1,34
 267 19 267 19 311 19 c 256,35,36
 355 19 355 19 390.5 35.5 c 128,-1,37
 426 52 426 52 451.5 81 c 128,-1,38
 477 110 477 110 490.5 149 c 128,-1,39
 504 188 504 188 504 233 c 256,20,21
EndSplineSet
EndChar
StartChar: P
Encoding: 80 80 49
Width: 524
Flags: W
Fore
499 337 m 0,0,1
 499 294 499 294 475.5 267.5 c 128,-1,2
 452 241 452 241 413 226 c 128,-1,3
 374 211 374 211 322 206 c 128,-1,4
 270 201 270 201 213 201 c 2,5,-1
 132 201 l 1,6,-1
 132 0 l 1,7,-1
 50 0 l 1,8,-1
 50 466 l 1,9,-1
 215 466 l 2,10,11
 280 466 280 466 332.5 460 c 128,-1,12
 385 454 385 454 422 439 c 128,-1,13
 459 424 459 424 479 399 c 128,-1,14
 499 374 499 374 499 337 c 0,0,1
408 339 m 0,15,16
 408 354 408 354 398.5 369.5 c 128,-1,17
 389 385 389 385 367 397.5 c 128,-1,18
 345 410 345 410 308.5 418 c 128,-1,19
 272 426 272 426 217 426 c 2,20,-1
 132 426 l 1,21,-1
 132 242 l 1,22,-1
 214 242 l 2,23,24
 318 242 318 242 363 267 c 128,-1,25
 408 292 408 292 408 339 c 0,15,16
EndSplineSet
EndChar
StartChar: Q
Encoding: 81 81 50
Width: 624
Flags: W
Fore
272 -20 m 1,0,1
 219 -14 219 -14 173.5 8 c 128,-1,2
 128 30 128 30 95 63.5 c 128,-1,3
 62 97 62 97 43.5 139.5 c 128,-1,4
 25 182 25 182 25 229 c 0,5,6
 25 281 25 281 47.5 327.5 c 128,-1,7
 70 374 70 374 109 408 c 128,-1,8
 148 442 148 442 200.5 462 c 128,-1,9
 253 482 253 482 312 482 c 256,10,11
 371 482 371 482 423.5 462.5 c 128,-1,12
 476 443 476 443 515 409 c 128,-1,13
 554 375 554 375 576.5 329 c 128,-1,14
 599 283 599 283 599 230 c 0,15,16
 599 185 599 185 581.5 144 c 128,-1,17
 564 103 564 103 533.5 70 c 128,-1,18
 503 37 503 37 461.5 14.5 c 128,-1,19
 420 -8 420 -8 372 -16 c 1,20,21
 376 -37 376 -37 391.5 -57.5 c 128,-1,22
 407 -78 407 -78 429.5 -91.5 c 128,-1,23
 452 -105 452 -105 480.5 -109 c 128,-1,24
 509 -113 509 -113 539 -102 c 1,25,-1
 528 -138 l 1,26,27
 490 -156 490 -156 450 -154 c 128,-1,28
 410 -152 410 -152 374 -135 c 128,-1,29
 338 -118 338 -118 311 -88 c 128,-1,30
 284 -58 284 -58 272 -20 c 1,0,1
504 230 m 256,31,32
 504 275 504 275 490.5 314.5 c 128,-1,33
 477 354 477 354 451.5 383 c 128,-1,34
 426 412 426 412 390.5 429 c 128,-1,35
 355 446 355 446 312 446 c 0,36,37
 268 446 268 446 233 429 c 128,-1,38
 198 412 198 412 172.5 382.5 c 128,-1,39
 147 353 147 353 133.5 313.5 c 128,-1,40
 120 274 120 274 120 229 c 256,41,42
 120 184 120 184 133.5 145 c 128,-1,43
 147 106 147 106 172 76.5 c 128,-1,44
 197 47 197 47 232 30.5 c 128,-1,45
 267 14 267 14 311 14 c 256,46,47
 355 14 355 14 390.5 31 c 128,-1,48
 426 48 426 48 451.5 77 c 128,-1,49
 477 106 477 106 490.5 145.5 c 128,-1,50
 504 185 504 185 504 230 c 256,31,32
EndSplineSet
EndChar
StartChar: R
Encoding: 82 82 51
Width: 534
Flags: W
Fore
425 0 m 1,0,1
 405 18 405 18 393 45 c 128,-1,2
 381 72 381 72 372 99 c 2,3,-1
 362 131 l 2,4,5
 352 160 352 160 333 180.5 c 128,-1,6
 314 201 314 201 284 201 c 2,7,-1
 108 201 l 1,8,-1
 108 0 l 1,9,-1
 25 0 l 1,10,-1
 25 466 l 1,11,-1
 190 466 l 2,12,13
 242 466 242 466 293.5 462 c 128,-1,14
 345 458 345 458 386 445 c 128,-1,15
 427 432 427 432 452.5 406 c 128,-1,16
 478 380 478 380 478 337 c 0,17,18
 478 317 478 317 466.5 299 c 128,-1,19
 455 281 455 281 437 267 c 128,-1,20
 419 253 419 253 397 243 c 128,-1,21
 375 233 375 233 354 228 c 1,22,23
 394 220 394 220 418.5 195 c 128,-1,24
 443 170 443 170 452 142 c 2,25,-1
 471 85 l 2,26,27
 476 68 476 68 488 45 c 128,-1,28
 500 22 500 22 524 0 c 1,29,-1
 425 0 l 1,0,1
381 339 m 0,30,31
 381 358 381 358 372.5 374 c 128,-1,32
 364 390 364 390 343.5 401.5 c 128,-1,33
 323 413 323 413 288 419.5 c 128,-1,34
 253 426 253 426 201 426 c 2,35,-1
 108 426 l 1,36,-1
 108 242 l 1,37,-1
 206 242 l 2,38,39
 256 242 256 242 289.5 248 c 128,-1,40
 323 254 323 254 343.5 266.5 c 128,-1,41
 364 279 364 279 372.5 297 c 128,-1,42
 381 315 381 315 381 339 c 0,30,31
EndSplineSet
EndChar
StartChar: S
Encoding: 83 83 52
Width: 515
Flags: W
Fore
490 139 m 0,0,1
 490 95 490 95 470 65.5 c 128,-1,2
 450 36 450 36 417.5 18 c 128,-1,3
 385 0 385 0 343 -8 c 128,-1,4
 301 -16 301 -16 257 -16 c 0,5,6
 212 -16 212 -16 172 -5 c 128,-1,7
 132 6 132 6 100.5 27 c 128,-1,8
 69 48 69 48 49 80 c 128,-1,9
 29 112 29 112 25 154 c 1,10,-1
 121 154 l 1,11,12
 122 126 122 126 133 102 c 128,-1,13
 144 78 144 78 162 60.5 c 128,-1,14
 180 43 180 43 204 33 c 128,-1,15
 228 23 228 23 257 23 c 0,16,17
 288 23 288 23 314.5 30.5 c 128,-1,18
 341 38 341 38 360.5 51 c 128,-1,19
 380 64 380 64 391 82.5 c 128,-1,20
 402 101 402 101 402 122 c 0,21,22
 402 141 402 141 391.5 153.5 c 128,-1,23
 381 166 381 166 365 174.5 c 128,-1,24
 349 183 349 183 331 188.5 c 128,-1,25
 313 194 313 194 298 197 c 0,26,27
 266 205 266 205 222 213 c 128,-1,28
 178 221 178 221 137.5 236 c 128,-1,29
 97 251 97 251 69 276 c 128,-1,30
 41 301 41 301 41 344 c 0,31,32
 41 381 41 381 61 407 c 128,-1,33
 81 433 81 433 112.5 449.5 c 128,-1,34
 144 466 144 466 182.5 473 c 128,-1,35
 221 480 221 480 257 480 c 0,36,37
 349 480 349 480 409.5 444.5 c 128,-1,38
 470 409 470 409 482 342 c 1,39,-1
 394 342 l 1,40,41
 391 360 391 360 382.5 377.5 c 128,-1,42
 374 395 374 395 358 409.5 c 128,-1,43
 342 424 342 424 317.5 433 c 128,-1,44
 293 442 293 442 257 442 c 0,45,46
 200 442 200 442 164.5 417.5 c 128,-1,47
 129 393 129 393 129 357 c 0,48,49
 129 339 129 339 139.5 327 c 128,-1,50
 150 315 150 315 166 306.5 c 128,-1,51
 182 298 182 298 200 293 c 128,-1,52
 218 288 218 288 232 285 c 0,53,54
 264 277 264 277 308.5 269 c 128,-1,55
 353 261 353 261 393.5 246.5 c 128,-1,56
 434 232 434 232 462 206.5 c 128,-1,57
 490 181 490 181 490 139 c 0,0,1
EndSplineSet
EndChar
StartChar: T
Encoding: 84 84 53
Width: 487
Flags: W
Fore
286 426 m 1,0,-1
 286 0 l 1,1,-1
 201 0 l 1,2,-1
 201 426 l 1,3,-1
 10 426 l 1,4,-1
 10 466 l 1,5,-1
 477 466 l 1,6,-1
 477 426 l 1,7,-1
 286 426 l 1,0,-1
EndSplineSet
EndChar
StartChar: U
Encoding: 85 85 54
Width: 605
Flags: W
Fore
552 192 m 1,0,1
 552 141 552 141 533.5 102 c 128,-1,2
 515 63 515 63 482 37 c 128,-1,3
 449 11 449 11 402.5 -2.5 c 128,-1,4
 356 -16 356 -16 301 -16 c 0,5,6
 245 -16 245 -16 199 -2.5 c 128,-1,7
 153 11 153 11 120 37 c 128,-1,8
 87 63 87 63 68.5 102 c 128,-1,9
 50 141 50 141 50 192 c 2,10,-1
 50 466 l 1,11,-1
 132 466 l 1,12,-1
 132 181 l 2,13,14
 132 149 132 149 143.5 120 c 128,-1,15
 155 91 155 91 176.5 69.5 c 128,-1,16
 198 48 198 48 229.5 35 c 128,-1,17
 261 22 261 22 301 22 c 256,18,19
 341 22 341 22 372 35 c 128,-1,20
 403 48 403 48 425 69.5 c 128,-1,21
 447 91 447 91 458.5 120 c 128,-1,22
 470 149 470 149 470 181 c 2,23,-1
 470 466 l 1,24,-1
 552 466 l 1,25,-1
 552 192 l 1,26,-1
 552 192 l 1,0,1
EndSplineSet
EndChar
StartChar: V
Encoding: 86 86 55
Width: 562
Flags: W
Fore
287 -13 m 1,0,-1
 259 -13 l 1,1,-1
 5 466 l 1,2,-1
 99 466 l 1,3,-1
 295 95 l 1,4,-1
 501 466 l 1,5,-1
 557 466 l 1,6,-1
 287 -13 l 1,0,-1
EndSplineSet
EndChar
StartChar: W
Encoding: 87 87 56
Width: 726
Flags: W
Fore
526 -13 m 1,0,-1
 497 -13 l 1,1,-1
 353 321 l 1,2,-1
 229 -13 l 1,3,-1
 199 -13 l 1,4,-1
 5 466 l 1,5,-1
 96 466 l 1,6,-1
 233 131 l 1,7,-1
 361 466 l 1,8,-1
 384 466 l 1,9,-1
 531 123 l 1,10,-1
 672 466 l 1,11,-1
 721 466 l 1,12,-1
 526 -13 l 1,0,-1
EndSplineSet
EndChar
StartChar: X
Encoding: 88 88 57
Width: 488
Flags: W
Fore
287 249 m 1,0,-1
 481 -1 l 1,1,-1
 385 -1 l 1,2,-1
 234 190 l 1,3,-1
 62 -1 l 1,4,-1
 5 -1 l 1,5,-1
 210 221 l 1,6,-1
 21 466 l 1,7,-1
 117 466 l 1,8,-1
 263 279 l 1,9,-1
 425 466 l 1,10,-1
 483 466 l 1,11,-1
 287 249 l 1,0,-1
EndSplineSet
EndChar
StartChar: Y
Encoding: 89 89 58
Width: 541
Flags: W
Fore
305 207 m 1,0,-1
 305 0 l 1,1,-1
 221 0 l 1,2,-1
 221 197 l 1,3,-1
 5 466 l 1,4,-1
 101 466 l 1,5,-1
 281 244 l 1,6,-1
 476 466 l 1,7,-1
 536 466 l 1,8,-1
 305 207 l 1,0,-1
EndSplineSet
EndChar
StartChar: Z
Encoding: 90 90 59
Width: 486
Flags: W
Fore
139 40 m 1,0,-1
 459 40 l 1,1,-1
 441 0 l 1,2,-1
 10 0 l 1,3,-1
 350 426 l 1,4,-1
 41 426 l 1,5,-1
 60 466 l 1,6,-1
 476 466 l 1,7,-1
 139 40 l 1,0,-1
EndSplineSet
EndChar
StartChar: bracketleft
Encoding: 91 91 60
Width: 228
Flags: W
Fore
177 -131 m 1,0,1
 45 -131 45 -131 45 11 c 2,2,-1
 45 339 l 2,3,4
 45 481 45 481 177 481 c 1,5,-1
 177 455 l 1,6,7
 156 452 156 452 144 446.5 c 128,-1,8
 132 441 132 441 126 431 c 128,-1,9
 120 421 120 421 118 405 c 128,-1,10
 116 389 116 389 116 365 c 2,11,-1
 116 -16 l 2,12,13
 116 -40 116 -40 118 -56 c 128,-1,14
 120 -72 120 -72 126 -82 c 128,-1,15
 132 -92 132 -92 144 -97 c 128,-1,16
 156 -102 156 -102 177 -105 c 1,17,-1
 177 -131 l 1,18,-1
 177 -131 l 1,0,1
EndSplineSet
EndChar
StartChar: backslash
Encoding: 92 92 61
Width: 242
Flags: W
Fore
188 -15 m 1,0,-1
 -15 481 l 1,1,-1
 56 481 l 1,2,-1
 260 -15 l 1,3,-1
 188 -15 l 1,0,-1
EndSplineSet
EndChar
StartChar: bracketright
Encoding: 93 93 62
Width: 228
Flags: W
Fore
183 11 m 1,0,1
 183 -131 183 -131 51 -131 c 1,2,-1
 51 -105 l 1,3,4
 72 -102 72 -102 84 -97 c 128,-1,5
 96 -92 96 -92 102 -82 c 128,-1,6
 108 -72 108 -72 109.5 -56 c 128,-1,7
 111 -40 111 -40 111 -16 c 2,8,-1
 111 365 l 2,9,10
 111 389 111 389 109.5 405 c 128,-1,11
 108 421 108 421 102 431 c 128,-1,12
 96 441 96 441 84 446.5 c 128,-1,13
 72 452 72 452 51 455 c 1,14,-1
 51 481 l 1,15,16
 183 481 183 481 183 339 c 2,17,-1
 183 11 l 1,18,-1
 183 11 l 1,0,1
EndSplineSet
EndChar
StartChar: asciicircum
Encoding: 94 94 63
Width: 477
Flags: W
Fore
338 183 m 1,0,-1
 239 361 l 1,1,-1
 140 183 l 1,2,-1
 63 183 l 1,3,-1
 209 448 l 1,4,-1
 269 448 l 1,5,-1
 416 183 l 1,6,-1
 338 183 l 1,0,-1
EndSplineSet
EndChar
StartChar: underscore
Encoding: 95 95 64
Width: 404
Flags: W
Fore
5 -91 m 1,0,-1
 5 -55 l 1,1,-1
 399 -55 l 1,2,-1
 399 -91 l 1,3,-1
 5 -91 l 1,0,-1
EndSplineSet
EndChar
StartChar: grave
Encoding: 96 96 65
Width: 228
Flags: W
Fore
148 425 m 1,0,-1
 35 481 l 2,1,2
 -3 500 -3 500 -3 520 c 0,3,4
 -3 531 -3 531 3.5 542 c 128,-1,5
 10 553 10 553 27 553 c 0,6,7
 38 553 38 553 48 548 c 128,-1,8
 58 543 58 543 66 537 c 2,9,-1
 198 425 l 1,10,-1
 148 425 l 1,0,-1
EndSplineSet
EndChar
StartChar: a
Encoding: 97 97 66
Width: 429
Flags: W
Fore
329 -1 m 1,0,1
 325 10 325 10 321.5 21 c 128,-1,2
 318 32 318 32 317 44 c 1,3,4
 291 15 291 15 254.5 2.5 c 128,-1,5
 218 -10 218 -10 179 -10 c 0,6,7
 150 -10 150 -10 121.5 -3 c 128,-1,8
 93 4 93 4 70.5 18 c 128,-1,9
 48 32 48 32 34 53.5 c 128,-1,10
 20 75 20 75 20 104 c 0,11,12
 20 142 20 142 44 166 c 128,-1,13
 68 190 68 190 104 203 c 128,-1,14
 140 216 140 216 181 220.5 c 128,-1,15
 222 225 222 225 257 225 c 0,16,17
 259 225 259 225 276.5 225.5 c 128,-1,18
 294 226 294 226 310 226 c 1,19,20
 310 263 310 263 287 291.5 c 128,-1,21
 264 320 264 320 211 320 c 0,22,23
 175 320 175 320 152 303 c 128,-1,24
 129 286 129 286 121 247 c 1,25,-1
 38 247 l 1,26,27
 55 304 55 304 103.5 331.5 c 128,-1,28
 152 359 152 359 211 359 c 0,29,30
 299 359 299 359 340.5 322.5 c 128,-1,31
 382 286 382 286 382 225 c 2,32,-1
 382 86 l 2,33,34
 382 60 382 60 387.5 38 c 128,-1,35
 393 16 393 16 399 -1 c 1,36,-1
 329 -1 l 1,0,1
258 186 m 2,37,38
 227 186 227 186 199 180.5 c 128,-1,39
 171 175 171 175 150 164.5 c 128,-1,40
 129 154 129 154 116.5 138.5 c 128,-1,41
 104 123 104 123 104 102 c 0,42,43
 104 88 104 88 111 75 c 128,-1,44
 118 62 118 62 131 51.5 c 128,-1,45
 144 41 144 41 160.5 34.5 c 128,-1,46
 177 28 177 28 197 28 c 0,47,48
 221 28 221 28 241.5 37.5 c 128,-1,49
 262 47 262 47 277.5 64.5 c 128,-1,50
 293 82 293 82 301.5 106 c 128,-1,51
 310 130 310 130 310 160 c 2,52,-1
 310 186 l 1,53,-1
 258 186 l 2,37,38
EndSplineSet
Substitution: 0 65534 'L025' uni0E38
Substitution: 0 65534 'L025' uni0E38
EndChar
StartChar: b
Encoding: 98 98 67
Width: 463
Flags: W
Fore
249 -11 m 0,0,1
 207 -11 207 -11 173.5 3.5 c 128,-1,2
 140 18 140 18 117 44 c 1,3,-1
 117 -1 l 1,4,-1
 45 -1 l 1,5,-1
 45 484 l 1,6,-1
 117 484 l 1,7,-1
 117 306 l 1,8,9
 163 366 163 366 249 366 c 0,10,11
 290 366 290 366 325.5 352.5 c 128,-1,12
 361 339 361 339 387 314.5 c 128,-1,13
 413 290 413 290 428 255.5 c 128,-1,14
 443 221 443 221 443 178 c 0,15,16
 443 139 443 139 428 104.5 c 128,-1,17
 413 70 413 70 387 44.5 c 128,-1,18
 361 19 361 19 325.5 4 c 128,-1,19
 290 -11 290 -11 249 -11 c 0,0,1
237 327 m 0,20,21
 214 327 214 327 192 315 c 128,-1,22
 170 303 170 303 153.5 282.5 c 128,-1,23
 137 262 137 262 127 234.5 c 128,-1,24
 117 207 117 207 117 176 c 0,25,26
 117 146 117 146 127 119 c 128,-1,27
 137 92 137 92 153.5 72 c 128,-1,28
 170 52 170 52 192 40.5 c 128,-1,29
 214 29 214 29 237 29 c 0,30,31
 261 29 261 29 283.5 39.5 c 128,-1,32
 306 50 306 50 323 69.5 c 128,-1,33
 340 89 340 89 350.5 116 c 128,-1,34
 361 143 361 143 361 176 c 0,35,36
 361 210 361 210 350.5 237.5 c 128,-1,37
 340 265 340 265 323 285 c 128,-1,38
 306 305 306 305 283.5 316 c 128,-1,39
 261 327 261 327 237 327 c 0,20,21
EndSplineSet
Substitution: 0 65534 'L025' uni0E39
Substitution: 0 65534 'L025' uni0E39
EndChar
StartChar: c
Encoding: 99 99 68
Width: 447
Flags: W
Fore
238 -10 m 0,0,1
 195 -10 195 -10 156.5 3.5 c 128,-1,2
 118 17 118 17 88.5 41.5 c 128,-1,3
 59 66 59 66 42 99.5 c 128,-1,4
 25 133 25 133 25 174 c 256,5,6
 25 215 25 215 42 249 c 128,-1,7
 59 283 59 283 88.5 307.5 c 128,-1,8
 118 332 118 332 156.5 345.5 c 128,-1,9
 195 359 195 359 238 359 c 0,10,11
 269 359 269 359 298.5 352.5 c 128,-1,12
 328 346 328 346 353.5 331 c 128,-1,13
 379 316 379 316 398 292.5 c 128,-1,14
 417 269 417 269 427 235 c 1,15,-1
 344 235 l 1,16,17
 327 277 327 277 300 298.5 c 128,-1,18
 273 320 273 320 234 320 c 0,19,20
 205 320 205 320 182 308.5 c 128,-1,21
 159 297 159 297 143 277.5 c 128,-1,22
 127 258 127 258 118.5 232 c 128,-1,23
 110 206 110 206 110 178 c 0,24,25
 110 112 110 112 143 70.5 c 128,-1,26
 176 29 176 29 234 29 c 0,27,28
 309 29 309 29 344 113 c 1,29,-1
 427 113 l 1,30,31
 417 80 417 80 398 56.5 c 128,-1,32
 379 33 379 33 353.5 18 c 128,-1,33
 328 3 328 3 298.5 -3.5 c 128,-1,34
 269 -10 269 -10 238 -10 c 0,0,1
EndSplineSet
Substitution: 0 65534 'L025' uni0E3A
Substitution: 0 65534 'L025' uni0E3A
EndChar
StartChar: d
Encoding: 100 100 69
Width: 463
Flags: W
Fore
345 44 m 1,0,1
 322 18 322 18 288.5 3.5 c 128,-1,2
 255 -11 255 -11 213 -11 c 0,3,4
 172 -11 172 -11 136.5 4 c 128,-1,5
 101 19 101 19 75 44.5 c 128,-1,6
 49 70 49 70 34.5 104.5 c 128,-1,7
 20 139 20 139 20 178 c 0,8,9
 20 221 20 221 35 255.5 c 128,-1,10
 50 290 50 290 76 314.5 c 128,-1,11
 102 339 102 339 137 352.5 c 128,-1,12
 172 366 172 366 213 366 c 0,13,14
 298 366 298 366 345 306 c 1,15,-1
 345 484 l 1,16,-1
 418 484 l 1,17,-1
 418 -1 l 1,18,-1
 345 -1 l 1,19,-1
 345 44 l 1,0,1
225 327 m 0,20,21
 201 327 201 327 179 316 c 128,-1,22
 157 305 157 305 140 285 c 128,-1,23
 123 265 123 265 112.5 237.5 c 128,-1,24
 102 210 102 210 102 176 c 0,25,26
 102 143 102 143 112 116 c 128,-1,27
 122 89 122 89 139.5 69.5 c 128,-1,28
 157 50 157 50 179 39.5 c 128,-1,29
 201 29 201 29 225 29 c 256,30,31
 249 29 249 29 270.5 40.5 c 128,-1,32
 292 52 292 52 308.5 72 c 128,-1,33
 325 92 325 92 335 119 c 128,-1,34
 345 146 345 146 345 176 c 0,35,36
 345 207 345 207 335 234.5 c 128,-1,37
 325 262 325 262 308.5 282.5 c 128,-1,38
 292 303 292 303 270 315 c 128,-1,39
 248 327 248 327 225 327 c 0,20,21
EndSplineSet
EndChar
StartChar: e
Encoding: 101 101 70
Width: 452
Flags: W
Fore
111 205 m 1,0,1
 110 197 110 197 110.5 188 c 128,-1,2
 111 179 111 179 111 171 c 0,3,4
 111 144 111 144 119.5 118.5 c 128,-1,5
 128 93 128 93 144.5 73 c 128,-1,6
 161 53 161 53 185.5 41 c 128,-1,7
 210 29 210 29 242 29 c 0,8,9
 266 29 266 29 285.5 39 c 128,-1,10
 305 49 305 49 319.5 65 c 128,-1,11
 334 81 334 81 342.5 100.5 c 128,-1,12
 351 120 351 120 353 140 c 1,13,-1
 428 140 l 1,14,15
 426 104 426 104 410 76 c 128,-1,16
 394 48 394 48 369 28.5 c 128,-1,17
 344 9 344 9 311 -1 c 128,-1,18
 278 -11 278 -11 241 -11 c 0,19,20
 191 -11 191 -11 151 4.5 c 128,-1,21
 111 20 111 20 83 45.5 c 128,-1,22
 55 71 55 71 40 103.5 c 128,-1,23
 25 136 25 136 25 170 c 0,24,25
 25 213 25 213 41.5 248 c 128,-1,26
 58 283 58 283 86.5 307.5 c 128,-1,27
 115 332 115 332 153 345.5 c 128,-1,28
 191 359 191 359 233 359 c 0,29,30
 267 359 267 359 300.5 351 c 128,-1,31
 334 343 334 343 361.5 325 c 128,-1,32
 389 307 389 307 408 277.5 c 128,-1,33
 427 248 427 248 432 205 c 1,34,-1
 111 205 l 1,0,1
229 321 m 0,35,36
 211 321 211 321 195 314.5 c 128,-1,37
 179 308 179 308 165.5 297.5 c 128,-1,38
 152 287 152 287 142.5 273.5 c 128,-1,39
 133 260 133 260 128 246 c 1,40,-1
 338 246 l 1,41,42
 327 275 327 275 300.5 298 c 128,-1,43
 274 321 274 321 229 321 c 0,35,36
EndSplineSet
EndChar
StartChar: f
Encoding: 102 102 71
Width: 245
Flags: W
Fore
201 431 m 0,0,1
 181 431 181 431 165 419.5 c 128,-1,2
 149 408 149 408 149 386 c 2,3,-1
 149 335 l 1,4,-1
 222 335 l 1,5,-1
 201 294 l 1,6,-1
 149 294 l 1,7,-1
 149 0 l 1,8,-1
 76 0 l 1,9,-1
 76 294 l 1,10,-1
 12 294 l 1,11,-1
 33 335 l 1,12,-1
 76 335 l 1,13,14
 76 370 76 370 90.5 398.5 c 128,-1,15
 105 427 105 427 129 446.5 c 128,-1,16
 153 466 153 466 185 475.5 c 128,-1,17
 217 485 217 485 253 482 c 1,18,-1
 253 412 l 1,19,20
 233 423 233 423 220.5 427 c 128,-1,21
 208 431 208 431 201 431 c 0,0,1
EndSplineSet
EndChar
StartChar: g
Encoding: 103 103 72
Width: 462
Flags: W
Fore
211 -133 m 0,0,1
 181 -133 181 -133 146.5 -126.5 c 128,-1,2
 112 -120 112 -120 82 -107 c 128,-1,3
 52 -94 52 -94 32.5 -74.5 c 128,-1,4
 13 -55 13 -55 13 -28 c 0,5,6
 13 -13 13 -13 22.5 -0.5 c 128,-1,7
 32 12 32 12 46.5 21.5 c 128,-1,8
 61 31 61 31 78.5 38.5 c 128,-1,9
 96 46 96 46 113 50 c 1,10,11
 96 54 96 54 87 64 c 128,-1,12
 78 74 78 74 78 85 c 0,13,14
 78 99 78 99 90 108 c 128,-1,15
 102 117 102 117 120 119 c 1,16,17
 78 142 78 142 58.5 172 c 128,-1,18
 39 202 39 202 39 230 c 256,19,20
 39 258 39 258 54 282 c 128,-1,21
 69 306 69 306 94.5 323 c 128,-1,22
 120 340 120 340 153.5 349.5 c 128,-1,23
 187 359 187 359 223 359 c 0,24,25
 237 359 237 359 256.5 357 c 128,-1,26
 276 355 276 355 295 350 c 1,27,28
 312 380 312 380 340.5 393 c 128,-1,29
 369 406 369 406 428 405 c 1,30,-1
 428 334 l 1,31,32
 390 343 390 343 368.5 340 c 128,-1,33
 347 337 347 337 336 332 c 1,34,35
 367 315 367 315 386.5 288.5 c 128,-1,36
 406 262 406 262 406 230 c 0,37,38
 406 202 406 202 391 178.5 c 128,-1,39
 376 155 376 155 350.5 137.5 c 128,-1,40
 325 120 325 120 292 110 c 128,-1,41
 259 100 259 100 223 100 c 2,42,-1
 173 100 l 2,43,44
 169 100 169 100 162 99 c 128,-1,45
 155 98 155 98 155 94 c 0,46,47
 155 89 155 89 165.5 86 c 128,-1,48
 176 83 176 83 209 83 c 0,49,50
 234 83 234 83 272.5 82 c 128,-1,51
 311 81 311 81 347.5 72 c 128,-1,52
 384 63 384 63 410 43.5 c 128,-1,53
 436 24 436 24 436 -13 c 256,54,55
 436 -50 436 -50 413 -73 c 128,-1,56
 390 -96 390 -96 356.5 -109.5 c 128,-1,57
 323 -123 323 -123 283.5 -128 c 128,-1,58
 244 -133 244 -133 211 -133 c 0,0,1
223 319 m 0,59,60
 177 319 177 319 149.5 295.5 c 128,-1,61
 122 272 122 272 122 230 c 0,62,63
 122 187 122 187 149.5 163.5 c 128,-1,64
 177 140 177 140 223 140 c 256,65,66
 269 140 269 140 296 163.5 c 128,-1,67
 323 187 323 187 323 230 c 0,68,69
 323 272 323 272 296.5 295.5 c 128,-1,70
 270 319 270 319 223 319 c 0,59,60
227 32 m 0,71,72
 186 32 186 32 160 27 c 128,-1,73
 134 22 134 22 119 13 c 128,-1,74
 104 4 104 4 98.5 -7.5 c 128,-1,75
 93 -19 93 -19 93 -32 c 0,76,77
 93 -43 93 -43 102 -54 c 128,-1,78
 111 -65 111 -65 128 -74.5 c 128,-1,79
 145 -84 145 -84 170 -90 c 128,-1,80
 195 -96 195 -96 227 -96 c 0,81,82
 258 -96 258 -96 282.5 -89 c 128,-1,83
 307 -82 307 -82 324.5 -72.5 c 128,-1,84
 342 -63 342 -63 351.5 -52 c 128,-1,85
 361 -41 361 -41 361 -32 c 0,86,87
 361 -21 361 -21 354 -9.5 c 128,-1,88
 347 2 347 2 331.5 11 c 128,-1,89
 316 20 316 20 290 26 c 128,-1,90
 264 32 264 32 227 32 c 0,71,72
EndSplineSet
EndChar
StartChar: h
Encoding: 104 104 73
Width: 446
Flags: W
Fore
326 238 m 2,0,1
 326 270 326 270 300.5 295 c 128,-1,2
 275 320 275 320 227 320 c 0,3,4
 203 320 203 320 183 310.5 c 128,-1,5
 163 301 163 301 148.5 284 c 128,-1,6
 134 267 134 267 125.5 244 c 128,-1,7
 117 221 117 221 117 195 c 2,8,-1
 117 0 l 1,9,-1
 45 0 l 1,10,-1
 45 458 l 1,11,-1
 117 458 l 1,12,-1
 117 303 l 1,13,14
 140 334 140 334 174.5 346.5 c 128,-1,15
 209 359 209 359 235 359 c 0,16,17
 270 359 270 359 300 351 c 128,-1,18
 330 343 330 343 352.5 326 c 128,-1,19
 375 309 375 309 388 283.5 c 128,-1,20
 401 258 401 258 401 222 c 2,21,-1
 401 0 l 1,22,-1
 326 0 l 1,23,-1
 326 238 l 2,0,1
EndSplineSet
EndChar
StartChar: i
Encoding: 105 105 74
Width: 194
Flags: W
Fore
97 373 m 256,0,1
 77 373 77 373 63.5 386 c 128,-1,2
 50 399 50 399 50 417 c 0,3,4
 50 436 50 436 63.5 448.5 c 128,-1,5
 77 461 77 461 97 461 c 256,6,7
 117 461 117 461 130.5 448.5 c 128,-1,8
 144 436 144 436 144 417 c 0,9,10
 144 399 144 399 130.5 386 c 128,-1,11
 117 373 117 373 97 373 c 256,0,1
60 355 m 1,12,-1
 132 355 l 1,13,-1
 132 0 l 1,14,-1
 60 0 l 1,15,-1
 60 355 l 1,12,-1
EndSplineSet
EndChar
StartChar: j
Encoding: 106 106 75
Width: 212
Flags: W
Fore
115 372 m 256,0,1
 95 372 95 372 81.5 385 c 128,-1,2
 68 398 68 398 68 417 c 256,3,4
 68 436 68 436 81.5 448.5 c 128,-1,5
 95 461 95 461 115 461 c 256,6,7
 135 461 135 461 148.5 448.5 c 128,-1,8
 162 436 162 436 162 417 c 256,9,10
 162 398 162 398 148.5 385 c 128,-1,11
 135 372 135 372 115 372 c 256,0,1
20 -123 m 0,12,13
 6 -123 6 -123 -17 -119 c 128,-1,14
 -40 -115 -40 -115 -59 -101 c 1,15,-1
 -27 -51 l 1,16,17
 -15 -62 -15 -62 -2.5 -66.5 c 128,-1,18
 10 -71 10 -71 17 -71 c 0,19,20
 30 -71 30 -71 41.5 -66.5 c 128,-1,21
 53 -62 53 -62 61 -50 c 128,-1,22
 69 -38 69 -38 73.5 -17 c 128,-1,23
 78 4 78 4 78 37 c 2,24,-1
 78 353 l 1,25,-1
 151 353 l 1,26,-1
 151 52 l 2,27,28
 151 4 151 4 140.5 -29.5 c 128,-1,29
 130 -63 130 -63 112 -83.5 c 128,-1,30
 94 -104 94 -104 70 -113.5 c 128,-1,31
 46 -123 46 -123 20 -123 c 0,12,13
EndSplineSet
EndChar
StartChar: k
Encoding: 107 107 76
Width: 401
Flags: W
Fore
175 200 m 1,0,-1
 117 157 l 1,1,-1
 117 0 l 1,2,-1
 45 0 l 1,3,-1
 45 484 l 1,4,-1
 117 484 l 1,5,-1
 117 211 l 1,6,-1
 303 356 l 1,7,-1
 379 356 l 1,8,-1
 230 243 l 1,9,-1
 410 0 l 1,10,-1
 326 0 l 1,11,-1
 175 200 l 1,0,-1
EndSplineSet
EndChar
StartChar: l
Encoding: 108 108 77
Width: 162
Flags: W
Fore
45 484 m 1,0,-1
 117 484 l 1,1,-1
 117 0 l 1,2,-1
 45 0 l 1,3,-1
 45 484 l 1,0,-1
EndSplineSet
EndChar
StartChar: m
Encoding: 109 109 78
Width: 684
Flags: W
Fore
564 231 m 2,0,1
 564 269 564 269 538 294 c 128,-1,2
 512 319 512 319 475 319 c 0,3,4
 433 319 433 319 408.5 286 c 128,-1,5
 384 253 384 253 384 178 c 2,6,-1
 384 0 l 1,7,-1
 309 0 l 1,8,-1
 309 191 l 2,9,10
 309 249 309 249 288 284 c 128,-1,11
 267 319 267 319 223 319 c 0,12,13
 200 319 200 319 180.5 308.5 c 128,-1,14
 161 298 161 298 147 280.5 c 128,-1,15
 133 263 133 263 125 240.5 c 128,-1,16
 117 218 117 218 117 195 c 2,17,-1
 117 0 l 1,18,-1
 45 0 l 1,19,-1
 45 348 l 1,20,-1
 117 348 l 1,21,-1
 117 300 l 1,22,23
 135 330 135 330 167 344 c 128,-1,24
 199 358 199 358 234 358 c 0,25,26
 272 358 272 358 305 340 c 128,-1,27
 338 322 338 322 358 280 c 1,28,29
 368 304 368 304 381.5 319.5 c 128,-1,30
 395 335 395 335 411 343.5 c 128,-1,31
 427 352 427 352 444 355 c 128,-1,32
 461 358 461 358 478 358 c 0,33,34
 506 358 506 358 534.5 351.5 c 128,-1,35
 563 345 563 345 586.5 329 c 128,-1,36
 610 313 610 313 624.5 287.5 c 128,-1,37
 639 262 639 262 639 225 c 2,38,-1
 639 0 l 1,39,-1
 564 0 l 1,40,-1
 564 231 l 2,0,1
EndSplineSet
EndChar
StartChar: n
Encoding: 110 110 79
Width: 446
Flags: W
Fore
326 237 m 2,0,1
 326 269 326 269 300.5 294 c 128,-1,2
 275 319 275 319 227 319 c 0,3,4
 203 319 203 319 183 309.5 c 128,-1,5
 163 300 163 300 148.5 283 c 128,-1,6
 134 266 134 266 125.5 243.5 c 128,-1,7
 117 221 117 221 117 195 c 2,8,-1
 117 0 l 1,9,-1
 45 0 l 1,10,-1
 45 348 l 1,11,-1
 117 348 l 1,12,-1
 117 303 l 1,13,14
 140 334 140 334 174.5 346 c 128,-1,15
 209 358 209 358 235 358 c 0,16,17
 270 358 270 358 300 350 c 128,-1,18
 330 342 330 342 352.5 325 c 128,-1,19
 375 308 375 308 388 282.5 c 128,-1,20
 401 257 401 257 401 221 c 2,21,-1
 401 0 l 1,22,-1
 326 0 l 1,23,-1
 326 237 l 2,0,1
EndSplineSet
EndChar
StartChar: o
Encoding: 111 111 80
Width: 462
Flags: W
Fore
230 -10 m 0,0,1
 186 -10 186 -10 148 2.5 c 128,-1,2
 110 15 110 15 81.5 39 c 128,-1,3
 53 63 53 63 36.5 97 c 128,-1,4
 20 131 20 131 20 174 c 256,5,6
 20 217 20 217 36.5 251 c 128,-1,7
 53 285 53 285 82 308.5 c 128,-1,8
 111 332 111 332 149 344.5 c 128,-1,9
 187 357 187 357 231 357 c 0,10,11
 274 357 274 357 312.5 344.5 c 128,-1,12
 351 332 351 332 380 308.5 c 128,-1,13
 409 285 409 285 425.5 251 c 128,-1,14
 442 217 442 217 442 174 c 256,15,16
 442 131 442 131 425 97 c 128,-1,17
 408 63 408 63 379.5 39 c 128,-1,18
 351 15 351 15 312 2.5 c 128,-1,19
 273 -10 273 -10 230 -10 c 0,0,1
231 318 m 256,20,21
 174 318 174 318 139 282 c 128,-1,22
 104 246 104 246 104 174 c 256,23,24
 104 102 104 102 139.5 65.5 c 128,-1,25
 175 29 175 29 232 29 c 256,26,27
 289 29 289 29 324 65.5 c 128,-1,28
 359 102 359 102 359 174 c 256,29,30
 359 246 359 246 323.5 282 c 128,-1,31
 288 318 288 318 231 318 c 256,20,21
EndSplineSet
EndChar
StartChar: p
Encoding: 112 112 81
Width: 468
Flags: W
Fore
249 -19 m 0,0,1
 207 -19 207 -19 173.5 -3 c 128,-1,2
 140 13 140 13 117 39 c 1,3,-1
 117 -129 l 1,4,-1
 45 -129 l 1,5,-1
 45 347 l 1,6,-1
 107 347 l 1,7,-1
 112 295 l 1,8,9
 133 324 133 324 169 340.5 c 128,-1,10
 205 357 205 357 249 357 c 0,11,12
 290 357 290 357 325.5 342 c 128,-1,13
 361 327 361 327 387 301.5 c 128,-1,14
 413 276 413 276 428 242 c 128,-1,15
 443 208 443 208 443 169 c 0,16,17
 443 126 443 126 428 91 c 128,-1,18
 413 56 413 56 387 31.5 c 128,-1,19
 361 7 361 7 325.5 -6 c 128,-1,20
 290 -19 290 -19 249 -19 c 0,0,1
237 317 m 0,21,22
 214 317 214 317 192 305.5 c 128,-1,23
 170 294 170 294 153.5 274.5 c 128,-1,24
 137 255 137 255 127 228 c 128,-1,25
 117 201 117 201 117 171 c 0,26,27
 117 140 117 140 127 112.5 c 128,-1,28
 137 85 137 85 153.5 64.5 c 128,-1,29
 170 44 170 44 192 32 c 128,-1,30
 214 20 214 20 237 20 c 0,31,32
 261 20 261 20 283.5 31 c 128,-1,33
 306 42 306 42 323 62 c 128,-1,34
 340 82 340 82 350.5 109.5 c 128,-1,35
 361 137 361 137 361 171 c 0,36,37
 361 204 361 204 350.5 230.5 c 128,-1,38
 340 257 340 257 323 276.5 c 128,-1,39
 306 296 306 296 283.5 306.5 c 128,-1,40
 261 317 261 317 237 317 c 0,21,22
EndSplineSet
EndChar
StartChar: q
Encoding: 113 113 82
Width: 468
Flags: W
Fore
351 39 m 1,0,1
 328 13 328 13 294.5 -3 c 128,-1,2
 261 -19 261 -19 219 -19 c 0,3,4
 178 -19 178 -19 142.5 -6 c 128,-1,5
 107 7 107 7 81 31.5 c 128,-1,6
 55 56 55 56 40 91 c 128,-1,7
 25 126 25 126 25 169 c 0,8,9
 25 208 25 208 40 242 c 128,-1,10
 55 276 55 276 81 301.5 c 128,-1,11
 107 327 107 327 142.5 342 c 128,-1,12
 178 357 178 357 219 357 c 0,13,14
 263 357 263 357 299 340.5 c 128,-1,15
 335 324 335 324 356 295 c 1,16,-1
 361 347 l 1,17,-1
 423 347 l 1,18,-1
 423 -129 l 1,19,-1
 351 -129 l 1,20,-1
 351 39 l 1,0,1
230 317 m 256,21,22
 206 317 206 317 184 306.5 c 128,-1,23
 162 296 162 296 145 276.5 c 128,-1,24
 128 257 128 257 117.5 230.5 c 128,-1,25
 107 204 107 204 107 171 c 0,26,27
 107 137 107 137 117.5 109.5 c 128,-1,28
 128 82 128 82 145 62 c 128,-1,29
 162 42 162 42 184 31 c 128,-1,30
 206 20 206 20 230 20 c 256,31,32
 254 20 254 20 275.5 32 c 128,-1,33
 297 44 297 44 314 64.5 c 128,-1,34
 331 85 331 85 341 112.5 c 128,-1,35
 351 140 351 140 351 171 c 0,36,37
 351 201 351 201 341 228 c 128,-1,38
 331 255 331 255 314 274.5 c 128,-1,39
 297 294 297 294 275.5 305.5 c 128,-1,40
 254 317 254 317 230 317 c 256,21,22
EndSplineSet
EndChar
StartChar: r
Encoding: 114 114 83
Width: 264
Flags: W
Fore
245 286 m 1,0,1
 236 292 236 292 223 296.5 c 128,-1,2
 210 301 210 301 205 301 c 0,3,4
 159 301 159 301 138 271 c 128,-1,5
 117 241 117 241 117 189 c 2,6,-1
 117 0 l 1,7,-1
 45 0 l 1,8,-1
 45 348 l 1,9,-1
 117 348 l 1,10,-1
 117 294 l 1,11,12
 138 332 138 332 175.5 345.5 c 128,-1,13
 213 359 213 359 258 354 c 1,14,-1
 245 286 l 1,15,-1
 245 286 l 1,0,1
EndSplineSet
EndChar
StartChar: s
Encoding: 115 115 84
Width: 415
Flags: W
Fore
209 -12 m 0,0,1
 175 -12 175 -12 144 -3.5 c 128,-1,2
 113 5 113 5 88.5 21 c 128,-1,3
 64 37 64 37 47.5 61 c 128,-1,4
 31 85 31 85 25 116 c 1,5,-1
 100 116 l 1,6,7
 103 99 103 99 111.5 83.5 c 128,-1,8
 120 68 120 68 133.5 55 c 128,-1,9
 147 42 147 42 166 34.5 c 128,-1,10
 185 27 185 27 209 27 c 0,11,12
 257 27 257 27 285.5 45 c 128,-1,13
 314 63 314 63 314 93 c 0,14,15
 314 106 314 106 306.5 114 c 128,-1,16
 299 122 299 122 287.5 127.5 c 128,-1,17
 276 133 276 133 263.5 135.5 c 128,-1,18
 251 138 251 138 242 140 c 0,19,20
 216 145 216 145 182.5 149.5 c 128,-1,21
 149 154 149 154 119 165 c 128,-1,22
 89 176 89 176 68 196.5 c 128,-1,23
 47 217 47 217 47 254 c 0,24,25
 47 283 47 283 62.5 302.5 c 128,-1,26
 78 322 78 322 102.5 334 c 128,-1,27
 127 346 127 346 156 351.5 c 128,-1,28
 185 357 185 357 212 357 c 0,29,30
 281 357 281 357 329.5 324.5 c 128,-1,31
 378 292 378 292 389 230 c 1,32,-1
 313 230 l 1,33,34
 310 246 310 246 302 262 c 128,-1,35
 294 278 294 278 281.5 290.5 c 128,-1,36
 269 303 269 303 251.5 310.5 c 128,-1,37
 234 318 234 318 211 318 c 0,38,39
 168 318 168 318 144.5 302.5 c 128,-1,40
 121 287 121 287 121 264 c 0,41,42
 121 250 121 250 128 241 c 128,-1,43
 135 232 135 232 145.5 226 c 128,-1,44
 156 220 156 220 169 216.5 c 128,-1,45
 182 213 182 213 194 211 c 0,46,47
 207 208 207 208 221.5 206 c 128,-1,48
 236 204 236 204 252 201 c 0,49,50
 273 198 273 198 297 192.5 c 128,-1,51
 321 187 321 187 341.5 176.5 c 128,-1,52
 362 166 362 166 376 149 c 128,-1,53
 390 132 390 132 390 105 c 0,54,55
 390 72 390 72 374 49.5 c 128,-1,56
 358 27 358 27 332 13.5 c 128,-1,57
 306 0 306 0 274 -6 c 128,-1,58
 242 -12 242 -12 209 -12 c 0,0,1
EndSplineSet
EndChar
StartChar: t
Encoding: 116 116 85
Width: 257
Flags: W
Fore
178 -6 m 0,0,1
 131 -6 131 -6 103.5 22.5 c 128,-1,2
 76 51 76 51 76 111 c 2,3,-1
 76 292 l 1,4,-1
 23 292 l 1,5,-1
 23 330 l 1,6,-1
 75 330 l 1,7,-1
 113 428 l 1,8,-1
 148 428 l 1,9,-1
 148 330 l 1,10,-1
 217 330 l 1,11,-1
 217 292 l 1,12,-1
 148 292 l 1,13,-1
 148 100 l 2,14,15
 148 61 148 61 159 51 c 128,-1,16
 170 41 170 41 183 41 c 256,17,18
 196 41 196 41 210.5 47 c 128,-1,19
 225 53 225 53 247 66 c 1,20,-1
 247 11 l 1,21,22
 234 3 234 3 215.5 -1.5 c 128,-1,23
 197 -6 197 -6 178 -6 c 0,0,1
EndSplineSet
EndChar
StartChar: u
Encoding: 117 117 86
Width: 446
Flags: W
Fore
328 45 m 1,0,1
 317 30 317 30 302 19 c 128,-1,2
 287 8 287 8 271 1.5 c 128,-1,3
 255 -5 255 -5 239 -8 c 128,-1,4
 223 -11 223 -11 210 -11 c 0,5,6
 175 -11 175 -11 145 -3 c 128,-1,7
 115 5 115 5 92.5 22 c 128,-1,8
 70 39 70 39 57.5 65 c 128,-1,9
 45 91 45 91 45 126 c 2,10,-1
 45 348 l 1,11,-1
 119 348 l 1,12,-1
 119 111 l 2,13,14
 119 79 119 79 144.5 53.5 c 128,-1,15
 170 28 170 28 218 28 c 0,16,17
 242 28 242 28 262 38 c 128,-1,18
 282 48 282 48 296.5 65 c 128,-1,19
 311 82 311 82 319.5 104.5 c 128,-1,20
 328 127 328 127 328 153 c 2,21,-1
 328 348 l 1,22,-1
 401 348 l 1,23,-1
 401 -1 l 1,24,-1
 328 -1 l 1,25,-1
 328 45 l 1,0,1
EndSplineSet
EndChar
StartChar: v
Encoding: 118 118 87
Width: 421
Flags: W
Fore
200 -11 m 1,0,-1
 3 348 l 1,1,-1
 85 348 l 1,2,-1
 229 88 l 1,3,-1
 370 348 l 1,4,-1
 418 348 l 1,5,-1
 223 -11 l 1,6,-1
 200 -11 l 1,0,-1
EndSplineSet
EndChar
StartChar: w
Encoding: 119 119 88
Width: 628
Flags: W
Fore
425 -11 m 1,0,-1
 314 230 l 1,1,-1
 205 -11 l 1,2,-1
 181 -11 l 1,3,-1
 3 348 l 1,4,-1
 83 348 l 1,5,-1
 208 91 l 1,6,-1
 320 352 l 1,7,-1
 336 352 l 1,8,-1
 456 93 l 1,9,-1
 578 348 l 1,10,-1
 625 348 l 1,11,-1
 450 -11 l 1,12,-1
 425 -11 l 1,0,-1
EndSplineSet
EndChar
StartChar: x
Encoding: 120 120 89
Width: 411
Flags: W
Fore
193 138 m 1,0,-1
 68 0 l 1,1,-1
 12 0 l 1,2,-1
 167 167 l 1,3,-1
 3 348 l 1,4,-1
 91 348 l 1,5,-1
 212 215 l 1,6,-1
 329 348 l 1,7,-1
 385 348 l 1,8,-1
 238 187 l 1,9,-1
 408 0 l 1,10,-1
 320 0 l 1,11,-1
 193 138 l 1,0,-1
EndSplineSet
EndChar
StartChar: y
Encoding: 121 121 90
Width: 424
Flags: W
Fore
93 -80 m 0,0,1
 114 -80 114 -80 130 -70.5 c 128,-1,2
 146 -61 146 -61 157 -47.5 c 128,-1,3
 168 -34 168 -34 173.5 -18.5 c 128,-1,4
 179 -3 179 -3 179 9 c 0,5,6
 179 20 179 20 175.5 28.5 c 128,-1,7
 172 37 172 37 169 44 c 2,8,-1
 3 348 l 1,9,-1
 85 348 l 1,10,-1
 230 81 l 1,11,-1
 373 348 l 1,12,-1
 421 348 l 1,13,-1
 231 -9 l 2,14,15
 218 -33 218 -33 202.5 -55.5 c 128,-1,16
 187 -78 187 -78 170 -95 c 128,-1,17
 153 -112 153 -112 134.5 -122 c 128,-1,18
 116 -132 116 -132 96 -132 c 256,19,20
 76 -132 76 -132 53.5 -128 c 128,-1,21
 31 -124 31 -124 12 -110 c 1,22,-1
 44 -60 l 1,23,24
 56 -71 56 -71 71 -75.5 c 128,-1,25
 86 -80 86 -80 93 -80 c 0,0,1
EndSplineSet
EndChar
StartChar: z
Encoding: 122 122 91
Width: 411
Flags: W
Fore
381 39 m 1,0,-1
 360 0 l 1,1,-1
 10 0 l 1,2,-1
 280 309 l 1,3,-1
 51 309 l 1,4,-1
 69 348 l 1,5,-1
 401 348 l 1,6,-1
 132 39 l 1,7,-1
 381 39 l 1,0,-1
EndSplineSet
EndChar
StartChar: braceleft
Encoding: 123 123 92
Width: 282
Flags: W
Fore
234 453 m 1,0,1
 205 453 205 453 192 439 c 128,-1,2
 179 425 179 425 179 385 c 2,3,-1
 179 263 l 2,4,5
 179 232 179 232 163 207.5 c 128,-1,6
 147 183 147 183 116 171 c 1,7,8
 145 164 145 164 162 140 c 128,-1,9
 179 116 179 116 179 84 c 2,10,-1
 179 -38 l 2,11,12
 179 -78 179 -78 192 -92 c 128,-1,13
 205 -106 205 -106 234 -106 c 1,14,-1
 234 -136 l 1,15,16
 204 -136 204 -136 179 -131.5 c 128,-1,17
 154 -127 154 -127 136.5 -115.5 c 128,-1,18
 119 -104 119 -104 109.5 -84.5 c 128,-1,19
 100 -65 100 -65 100 -36 c 2,20,-1
 100 92 l 2,21,22
 100 123 100 123 87 142.5 c 128,-1,23
 74 162 74 162 33 173 c 1,24,25
 74 189 74 189 87 206 c 128,-1,26
 100 223 100 223 100 255 c 2,27,-1
 100 382 l 2,28,29
 100 441 100 441 136.5 461.5 c 128,-1,30
 173 482 173 482 234 482 c 1,31,-1
 234 453 l 1,32,-1
 234 453 l 1,0,1
EndSplineSet
EndChar
StartChar: bar
Encoding: 124 124 93
Width: 206
Flags: W
Fore
67 -182 m 1,0,-1
 67 547 l 1,1,-1
 138 547 l 1,2,-1
 138 -182 l 1,3,-1
 67 -182 l 1,0,-1
EndSplineSet
EndChar
StartChar: braceright
Encoding: 125 125 94
Width: 282
Flags: W
Fore
249 173 m 1,0,1
 208 162 208 162 195 142.5 c 128,-1,2
 182 123 182 123 182 92 c 2,3,-1
 182 -36 l 2,4,5
 182 -65 182 -65 172.5 -84.5 c 128,-1,6
 163 -104 163 -104 145.5 -115.5 c 128,-1,7
 128 -127 128 -127 103.5 -131.5 c 128,-1,8
 79 -136 79 -136 48 -136 c 1,9,-1
 48 -106 l 1,10,11
 77 -106 77 -106 90 -92 c 128,-1,12
 103 -78 103 -78 103 -38 c 2,13,-1
 103 84 l 2,14,15
 103 116 103 116 120 140 c 128,-1,16
 137 164 137 164 166 171 c 1,17,18
 135 183 135 183 119 207.5 c 128,-1,19
 103 232 103 232 103 263 c 2,20,-1
 103 385 l 2,21,22
 103 425 103 425 90 439 c 128,-1,23
 77 453 77 453 48 453 c 1,24,-1
 48 482 l 1,25,26
 79 482 79 482 103.5 477.5 c 128,-1,27
 128 473 128 473 145.5 461.5 c 128,-1,28
 163 450 163 450 172.5 431 c 128,-1,29
 182 412 182 412 182 382 c 2,30,-1
 182 255 l 2,31,32
 182 223 182 223 195 206 c 128,-1,33
 208 189 208 189 249 173 c 1,0,1
EndSplineSet
EndChar
StartChar: asciitilde
Encoding: 126 126 95
Width: 461
Flags: W
Fore
418 204 m 1,0,1
 394 178 394 178 369.5 161 c 128,-1,2
 345 144 345 144 307 144 c 0,3,4
 286 144 286 144 266.5 150 c 128,-1,5
 247 156 247 156 228.5 163 c 128,-1,6
 210 170 210 170 190.5 176 c 128,-1,7
 171 182 171 182 150 182 c 0,8,9
 139 182 139 182 130.5 177.5 c 128,-1,10
 122 173 122 173 115 166 c 128,-1,11
 108 159 108 159 101.5 150.5 c 128,-1,12
 95 142 95 142 89 134 c 1,13,-1
 43 176 l 1,14,15
 56 191 56 191 67.5 202 c 128,-1,16
 79 213 79 213 91.5 220.5 c 128,-1,17
 104 228 104 228 119 232 c 128,-1,18
 134 236 134 236 155 236 c 0,19,20
 175 236 175 236 194.5 230 c 128,-1,21
 214 224 214 224 233 216.5 c 128,-1,22
 252 209 252 209 270.5 203 c 128,-1,23
 289 197 289 197 308 197 c 0,24,25
 330 197 330 197 345 213 c 128,-1,26
 360 229 360 229 370 244 c 1,27,-1
 418 204 l 1,28,-1
 418 204 l 1,0,1
EndSplineSet
EndChar
StartChar: uni0E33.alt1
Encoding: 65539 -1 96
Width: 413
Flags: W
Fore
-178 534 m 256,0,1
 -178 517 -178 517 -185 501.5 c 128,-1,2
 -192 486 -192 486 -204 474.5 c 128,-1,3
 -216 463 -216 463 -232 456.5 c 128,-1,4
 -248 450 -248 450 -266 450 c 256,5,6
 -284 450 -284 450 -300 456.5 c 128,-1,7
 -316 463 -316 463 -328 474.5 c 128,-1,8
 -340 486 -340 486 -347 501.5 c 128,-1,9
 -354 517 -354 517 -354 534 c 256,10,11
 -354 551 -354 551 -347 566.5 c 128,-1,12
 -340 582 -340 582 -328 593.5 c 128,-1,13
 -316 605 -316 605 -300 611.5 c 128,-1,14
 -284 618 -284 618 -266 618 c 256,15,16
 -248 618 -248 618 -232 611.5 c 128,-1,17
 -216 605 -216 605 -204 593.5 c 128,-1,18
 -192 582 -192 582 -185 566.5 c 128,-1,19
 -178 551 -178 551 -178 534 c 256,0,1
283 0 m 1,20,-1
 283 278 l 2,21,22
 283 318 283 318 261 345 c 128,-1,23
 239 372 239 372 190 372 c 0,24,25
 164 372 164 372 145.5 363.5 c 128,-1,26
 127 355 127 355 114.5 341 c 128,-1,27
 102 327 102 327 95 309 c 128,-1,28
 88 291 88 291 87 273 c 1,29,-1
 5 273 l 1,30,31
 16 335 16 335 63 371 c 128,-1,32
 110 407 110 407 190 407 c 0,33,34
 269 407 269 407 316 372.5 c 128,-1,35
 363 338 363 338 363 261 c 2,36,-1
 363 0 l 1,37,-1
 283 0 l 1,20,-1
-212 533 m 256,38,39
 -212 554 -212 554 -228 569 c 128,-1,40
 -244 584 -244 584 -266 584 c 256,41,42
 -288 584 -288 584 -304 569 c 128,-1,43
 -320 554 -320 554 -320 533 c 256,44,45
 -320 512 -320 512 -304 497 c 128,-1,46
 -288 482 -288 482 -266 482 c 256,47,48
 -244 482 -244 482 -228 497 c 128,-1,49
 -212 512 -212 512 -212 533 c 256,38,39
EndSplineSet
EndChar
StartChar: quotedbl
Encoding: 34 34 97
Width: 274
Flags: W
Fore
203 252 m 1,0,-1
 177 252 l 1,1,-1
 151 433 l 2,2,3
 150 439 150 439 151 447.5 c 128,-1,4
 152 456 152 456 156.5 463.5 c 128,-1,5
 161 471 161 471 169 476 c 128,-1,6
 177 481 177 481 190 481 c 256,7,8
 203 481 203 481 211 476 c 128,-1,9
 219 471 219 471 223.5 463.5 c 128,-1,10
 228 456 228 456 229 447.5 c 128,-1,11
 230 439 230 439 229 433 c 2,12,-1
 203 252 l 1,0,-1
97 252 m 1,13,-1
 71 252 l 1,14,-1
 46 433 l 2,15,16
 45 439 45 439 46 447.5 c 128,-1,17
 47 456 47 456 51 463.5 c 128,-1,18
 55 471 55 471 63 476 c 128,-1,19
 71 481 71 481 84 481 c 256,20,21
 97 481 97 481 105 476 c 128,-1,22
 113 471 113 471 117.5 463.5 c 128,-1,23
 122 456 122 456 123 447.5 c 128,-1,24
 124 439 124 439 123 433 c 2,25,-1
 97 252 l 1,13,-1
EndSplineSet
EndChar
StartChar: exclam
Encoding: 33 33 98
Width: 234
Flags: W
Fore
135 107 m 1,0,-1
 100 107 l 1,1,-1
 68 392 l 2,2,3
 66 409 66 409 67.5 425.5 c 128,-1,4
 69 442 69 442 75 454.5 c 128,-1,5
 81 467 81 467 91 474.5 c 128,-1,6
 101 482 101 482 117 482 c 256,7,8
 133 482 133 482 143.5 474.5 c 128,-1,9
 154 467 154 467 159.5 454.5 c 128,-1,10
 165 442 165 442 166.5 425.5 c 128,-1,11
 168 409 168 409 166 392 c 2,12,-1
 135 107 l 1,0,-1
166 35 m 256,13,14
 166 16 166 16 152 3 c 128,-1,15
 138 -10 138 -10 118 -10 c 256,16,17
 98 -10 98 -10 84 3 c 128,-1,18
 70 16 70 16 70 35 c 256,19,20
 70 54 70 54 84 67 c 128,-1,21
 98 80 98 80 118 80 c 256,22,23
 138 80 138 80 152 67 c 128,-1,24
 166 54 166 54 166 35 c 256,13,14
EndSplineSet
EndChar
StartChar: uni0E4E.alt1
Encoding: 65540 -1 99
Width: 0
Flags: W
Fore
-104 626 m 1,0,1
 -146 633 -146 633 -166.5 621.5 c 128,-1,2
 -187 610 -187 610 -187 593 c 0,3,4
 -187 584 -187 584 -175.5 572 c 128,-1,5
 -164 560 -164 560 -131 560 c 1,6,-1
 -142 537 l 1,7,8
 -179 533 -179 533 -207.5 522 c 128,-1,9
 -236 511 -236 511 -236 488 c 0,10,11
 -236 470 -236 470 -214 460 c 128,-1,12
 -192 450 -192 450 -140 452 c 1,13,-1
 -149 427 l 1,14,15
 -179 423 -179 423 -208.5 423.5 c 128,-1,16
 -238 424 -238 424 -261.5 430.5 c 128,-1,17
 -285 437 -285 437 -299.5 451 c 128,-1,18
 -314 465 -314 465 -314 488 c 0,19,20
 -314 503 -314 503 -304.5 514.5 c 128,-1,21
 -295 526 -295 526 -280 535 c 128,-1,22
 -265 544 -265 544 -247.5 549 c 128,-1,23
 -230 554 -230 554 -213 555 c 1,24,25
 -236 558 -236 558 -247 569.5 c 128,-1,26
 -258 581 -258 581 -258 596 c 0,27,28
 -258 620 -258 620 -244 634 c 128,-1,29
 -230 648 -230 648 -207.5 654 c 128,-1,30
 -185 660 -185 660 -156 659.5 c 128,-1,31
 -127 659 -127 659 -96 654 c 1,32,-1
 -104 626 l 1,0,1
EndSplineSet
EndChar
StartChar: exclamdown
Encoding: 161 161 100
Width: 206
Flags: W
Fore
159 347 m 256,0,1
 159 328 159 328 145 314.5 c 128,-1,2
 131 301 131 301 111 301 c 256,3,4
 91 301 91 301 77 314.5 c 128,-1,5
 63 328 63 328 63 347 c 256,6,7
 63 366 63 366 77 379 c 128,-1,8
 91 392 91 392 111 392 c 256,9,10
 131 392 131 392 145 379 c 128,-1,11
 159 366 159 366 159 347 c 256,0,1
161 -10 m 2,12,13
 163 -27 163 -27 161.5 -43.5 c 128,-1,14
 160 -60 160 -60 154.5 -72.5 c 128,-1,15
 149 -85 149 -85 138.5 -92.5 c 128,-1,16
 128 -100 128 -100 112 -100 c 256,17,18
 96 -100 96 -100 86 -92.5 c 128,-1,19
 76 -85 76 -85 70.5 -72.5 c 128,-1,20
 65 -60 65 -60 63 -43.5 c 128,-1,21
 61 -27 61 -27 63 -10 c 2,22,-1
 95 276 l 1,23,-1
 130 276 l 1,24,-1
 161 -10 l 2,12,13
EndSplineSet
EndChar
StartChar: cent
Encoding: 162 162 101
Width: 396
Flags: W
Fore
372 172 m 1,0,1
 356 121 356 121 318 96.5 c 128,-1,2
 280 72 280 72 232 67 c 1,3,-1
 232 -12 l 1,4,-1
 179 -12 l 1,5,-1
 179 68 l 1,6,7
 147 72 147 72 118.5 85.5 c 128,-1,8
 90 99 90 99 69 120 c 128,-1,9
 48 141 48 141 36 168.5 c 128,-1,10
 24 196 24 196 24 228 c 0,11,12
 24 259 24 259 36 286 c 128,-1,13
 48 313 48 313 69 334 c 128,-1,14
 90 355 90 355 118.5 368 c 128,-1,15
 147 381 147 381 179 386 c 1,16,-1
 179 460 l 1,17,-1
 232 460 l 1,18,-1
 232 387 l 1,19,20
 280 382 280 382 318 357.5 c 128,-1,21
 356 333 356 333 371 282 c 1,22,-1
 301 282 l 1,23,24
 272 357 272 357 204 357 c 0,25,26
 178 357 178 357 158 346.5 c 128,-1,27
 138 336 138 336 124 319 c 128,-1,28
 110 302 110 302 102.5 278.5 c 128,-1,29
 95 255 95 255 95 230 c 0,30,31
 95 173 95 173 124 135.5 c 128,-1,32
 153 98 153 98 204 98 c 0,33,34
 272 98 272 98 301 172 c 1,35,-1
 372 172 l 1,36,-1
 372 172 l 1,0,1
EndSplineSet
EndChar
StartChar: sterling
Encoding: 163 163 102
Width: 510
Flags: W
Fore
510 126 m 1,0,1
 503 99 503 99 490 74 c 128,-1,2
 477 49 477 49 459 30 c 128,-1,3
 441 11 441 11 417 -0.5 c 128,-1,4
 393 -12 393 -12 364 -12 c 0,5,6
 342 -12 342 -12 324 -3.5 c 128,-1,7
 306 5 306 5 289.5 17 c 128,-1,8
 273 29 273 29 258 43 c 128,-1,9
 243 57 243 57 228 69 c 1,10,11
 204 39 204 39 165.5 14.5 c 128,-1,12
 127 -10 127 -10 84 -10 c 0,13,14
 72 -10 72 -10 57.5 -6 c 128,-1,15
 43 -2 43 -2 30 6 c 128,-1,16
 17 14 17 14 8.5 26 c 128,-1,17
 0 38 0 38 0 55 c 0,18,19
 0 80 0 80 14 97.5 c 128,-1,20
 28 115 28 115 48 125 c 128,-1,21
 68 135 68 135 91 139.5 c 128,-1,22
 114 144 114 144 132 144 c 0,23,24
 146 144 146 144 158.5 143 c 128,-1,25
 171 142 171 142 185 140 c 1,26,-1
 185 147 l 2,27,28
 185 164 185 164 182 182 c 128,-1,29
 179 200 179 200 174 217 c 1,30,-1
 96 217 l 1,31,-1
 115 255 l 1,32,-1
 158 255 l 1,33,34
 156 268 156 268 154.5 283 c 128,-1,35
 153 298 153 298 153 310 c 0,36,37
 153 373 153 373 189.5 412.5 c 128,-1,38
 226 452 226 452 296 452 c 0,39,40
 344 452 344 452 384.5 433 c 128,-1,41
 425 414 425 414 455 361 c 1,42,-1
 375 331 l 1,43,44
 368 375 368 375 340.5 396 c 128,-1,45
 313 417 313 417 279 417 c 0,46,47
 267 417 267 417 256.5 411 c 128,-1,48
 246 405 246 405 237.5 396 c 128,-1,49
 229 387 229 387 224 376 c 128,-1,50
 219 365 219 365 219 354 c 0,51,52
 219 327 219 327 227.5 303.5 c 128,-1,53
 236 280 236 280 248 255 c 1,54,-1
 383 255 l 1,55,-1
 364 217 l 1,56,-1
 266 217 l 1,57,58
 269 207 269 207 270 194 c 128,-1,59
 271 181 271 181 271 170 c 0,60,61
 271 157 271 157 268 144 c 128,-1,62
 265 131 265 131 260 120 c 1,63,64
 274 114 274 114 290.5 103.5 c 128,-1,65
 307 93 307 93 324.5 83 c 128,-1,66
 342 73 342 73 358.5 65.5 c 128,-1,67
 375 58 375 58 390 58 c 0,68,69
 419 58 419 58 439 80 c 128,-1,70
 459 102 459 102 473 137 c 1,71,-1
 510 126 l 1,0,1
178 96 m 1,72,73
 168 101 168 101 155.5 105.5 c 128,-1,74
 143 110 143 110 131 110 c 0,75,76
 107 110 107 110 88.5 98 c 128,-1,77
 70 86 70 86 70 60 c 0,78,79
 70 46 70 46 81.5 39.5 c 128,-1,80
 93 33 93 33 112 33 c 0,81,82
 136 33 136 33 153.5 53.5 c 128,-1,83
 171 74 171 74 178 96 c 1,72,73
EndSplineSet
EndChar
StartChar: currency
Encoding: 164 164 103
Width: 467
Flags: W
Fore
386 39 m 1,0,-1
 344 79 l 1,1,2
 319 63 319 63 290.5 54 c 128,-1,3
 262 45 262 45 231 45 c 0,4,5
 171 45 171 45 121 77 c 1,6,-1
 80 39 l 1,7,-1
 34 83 l 1,8,-1
 74 120 l 1,9,10
 38 167 38 167 38 224 c 0,11,12
 38 252 38 252 48 278.5 c 128,-1,13
 58 305 58 305 75 328 c 1,14,-1
 34 366 l 1,15,-1
 80 409 l 1,16,-1
 122 371 l 1,17,18
 146 387 146 387 174 394.5 c 128,-1,19
 202 402 202 402 231 402 c 0,20,21
 293 402 293 402 343 370 c 1,22,-1
 385 409 l 1,23,-1
 432 366 l 1,24,-1
 389 326 l 1,25,26
 406 304 406 304 415 277.5 c 128,-1,27
 424 251 424 251 424 224 c 0,28,29
 424 168 424 168 390 122 c 1,30,-1
 433 83 l 1,31,-1
 386 39 l 1,0,-1
364 222 m 256,32,33
 364 249 364 249 353.5 272.5 c 128,-1,34
 343 296 343 296 325.5 313.5 c 128,-1,35
 308 331 308 331 284.5 341 c 128,-1,36
 261 351 261 351 234 351 c 256,37,38
 207 351 207 351 183.5 341 c 128,-1,39
 160 331 160 331 142 313.5 c 128,-1,40
 124 296 124 296 114 272.5 c 128,-1,41
 104 249 104 249 104 222 c 256,42,43
 104 195 104 195 114 171.5 c 128,-1,44
 124 148 124 148 142 130 c 128,-1,45
 160 112 160 112 183.5 102 c 128,-1,46
 207 92 207 92 234 92 c 256,47,48
 261 92 261 92 284.5 102 c 128,-1,49
 308 112 308 112 325.5 130 c 128,-1,50
 343 148 343 148 353.5 171.5 c 128,-1,51
 364 195 364 195 364 222 c 256,32,33
EndSplineSet
EndChar
StartChar: yen
Encoding: 165 165 104
Width: 514
Flags: W
Fore
300 221 m 1,0,-1
 402 221 l 1,1,-1
 402 185 l 1,2,-1
 291 185 l 1,3,-1
 291 147 l 1,4,-1
 402 147 l 1,5,-1
 402 111 l 1,6,-1
 291 111 l 1,7,-1
 291 1 l 1,8,-1
 209 1 l 1,9,-1
 209 111 l 1,10,-1
 101 111 l 1,11,-1
 101 147 l 1,12,-1
 209 147 l 1,13,-1
 209 185 l 1,14,-1
 101 185 l 1,15,-1
 101 221 l 1,16,-1
 193 221 l 1,17,-1
 3 455 l 1,18,-1
 98 455 l 1,19,-1
 262 251 l 1,20,-1
 443 455 l 1,21,-1
 511 455 l 1,22,-1
 300 221 l 1,0,-1
EndSplineSet
EndChar
StartChar: brokenbar
Encoding: 166 166 105
Width: 185
Flags: W
Fore
60 225 m 1,0,-1
 60 492 l 1,1,-1
 125 492 l 1,2,-1
 125 225 l 1,3,-1
 60 225 l 1,0,-1
60 -128 m 1,4,-1
 60 140 l 1,5,-1
 125 140 l 1,6,-1
 125 -128 l 1,7,-1
 60 -128 l 1,4,-1
EndSplineSet
EndChar
StartChar: section
Encoding: 167 167 106
Width: 429
Flags: W
Fore
387 21 m 0,0,1
 387 -15 387 -15 369.5 -40.5 c 128,-1,2
 352 -66 352 -66 324.5 -82.5 c 128,-1,3
 297 -99 297 -99 264 -106.5 c 128,-1,4
 231 -114 231 -114 201 -114 c 0,5,6
 168 -114 168 -114 137.5 -104 c 128,-1,7
 107 -94 107 -94 83 -75.5 c 128,-1,8
 59 -57 59 -57 43.5 -30 c 128,-1,9
 28 -3 28 -3 24 31 c 1,10,-1
 108 31 l 1,11,12
 109 10 109 10 115 -9 c 128,-1,13
 121 -28 121 -28 132.5 -42.5 c 128,-1,14
 144 -57 144 -57 161 -66 c 128,-1,15
 178 -75 178 -75 201 -75 c 0,16,17
 220 -75 220 -75 238.5 -70.5 c 128,-1,18
 257 -66 257 -66 271 -56 c 128,-1,19
 285 -46 285 -46 294 -30.5 c 128,-1,20
 303 -15 303 -15 303 7 c 0,21,22
 303 32 303 32 284 46 c 128,-1,23
 265 60 265 60 236 69 c 128,-1,24
 207 78 207 78 174 86 c 128,-1,25
 141 94 141 94 112 106.5 c 128,-1,26
 83 119 83 119 64 140 c 128,-1,27
 45 161 45 161 45 197 c 0,28,29
 45 229 45 229 62 254 c 128,-1,30
 79 279 79 279 107 294 c 1,31,32
 93 309 93 309 87 328 c 128,-1,33
 81 347 81 347 81 367 c 0,34,35
 81 397 81 397 94 419 c 128,-1,36
 107 441 107 441 127.5 455 c 128,-1,37
 148 469 148 469 174.5 475.5 c 128,-1,38
 201 482 201 482 228 482 c 0,39,40
 288 482 288 482 326.5 452 c 128,-1,41
 365 422 365 422 383 365 c 1,42,-1
 305 365 l 1,43,44
 301 380 301 380 295 394 c 128,-1,45
 289 408 289 408 280 419.5 c 128,-1,46
 271 431 271 431 258.5 438 c 128,-1,47
 246 445 246 445 228 445 c 0,48,49
 196 445 196 445 176 427.5 c 128,-1,50
 156 410 156 410 156 378 c 0,51,52
 156 352 156 352 173 337 c 128,-1,53
 190 322 190 322 215.5 311.5 c 128,-1,54
 241 301 241 301 270.5 293 c 128,-1,55
 300 285 300 285 325.5 272.5 c 128,-1,56
 351 260 351 260 368 240 c 128,-1,57
 385 220 385 220 385 186 c 0,58,59
 385 162 385 162 371 142 c 128,-1,60
 357 122 357 122 338 107 c 1,61,62
 361 92 361 92 374 69 c 128,-1,63
 387 46 387 46 387 21 c 0,0,1
308 173 m 0,64,65
 308 194 308 194 289 208 c 128,-1,66
 270 222 270 222 244 231.5 c 128,-1,67
 218 241 218 241 191 248 c 128,-1,68
 164 255 164 255 148 263 c 1,69,70
 136 253 136 253 132 238 c 128,-1,71
 128 223 128 223 128 209 c 0,72,73
 128 187 128 187 148.5 173 c 128,-1,74
 169 159 169 159 196.5 150.5 c 128,-1,75
 224 142 224 142 252 137 c 128,-1,76
 280 132 280 132 296 128 c 1,77,78
 305 136 305 136 306.5 148.5 c 128,-1,79
 308 161 308 161 308 173 c 0,64,65
EndSplineSet
EndChar
StartChar: dieresis
Encoding: 168 168 107
Width: 256
Flags: W
Fore
247 475 m 256,0,1
 247 455 247 455 234 442 c 128,-1,2
 221 429 221 429 201 429 c 256,3,4
 181 429 181 429 168 442 c 128,-1,5
 155 455 155 455 155 475 c 256,6,7
 155 495 155 495 168 508 c 128,-1,8
 181 521 181 521 201 521 c 256,9,10
 221 521 221 521 234 508 c 128,-1,11
 247 495 247 495 247 475 c 256,0,1
102 475 m 256,12,13
 102 455 102 455 89 442 c 128,-1,14
 76 429 76 429 56 429 c 256,15,16
 36 429 36 429 23 442 c 128,-1,17
 10 455 10 455 10 475 c 256,18,19
 10 495 10 495 23 508 c 128,-1,20
 36 521 36 521 56 521 c 256,21,22
 76 521 76 521 89 508 c 128,-1,23
 102 495 102 495 102 475 c 256,12,13
EndSplineSet
EndChar
StartChar: copyright
Encoding: 169 169 108
Width: 575
Flags: W
Fore
551 233 m 256,0,1
 551 179 551 179 529.5 132 c 128,-1,2
 508 85 508 85 472 50 c 128,-1,3
 436 15 436 15 388.5 -5 c 128,-1,4
 341 -25 341 -25 288 -25 c 256,5,6
 235 -25 235 -25 187 -5 c 128,-1,7
 139 15 139 15 103 50 c 128,-1,8
 67 85 67 85 45.5 132 c 128,-1,9
 24 179 24 179 24 233 c 256,10,11
 24 287 24 287 45.5 334 c 128,-1,12
 67 381 67 381 103 416.5 c 128,-1,13
 139 452 139 452 187 472 c 128,-1,14
 235 492 235 492 288 492 c 256,15,16
 341 492 341 492 388.5 471.5 c 128,-1,17
 436 451 436 451 472 416 c 128,-1,18
 508 381 508 381 529.5 334 c 128,-1,19
 551 287 551 287 551 233 c 256,0,1
496 234 m 256,20,21
 496 276 496 276 479 314 c 128,-1,22
 462 352 462 352 433.5 380.5 c 128,-1,23
 405 409 405 409 367.5 426 c 128,-1,24
 330 443 330 443 288 443 c 256,25,26
 246 443 246 443 208 426 c 128,-1,27
 170 409 170 409 141.5 380.5 c 128,-1,28
 113 352 113 352 96 314 c 128,-1,29
 79 276 79 276 79 234 c 256,30,31
 79 192 79 192 96 154.5 c 128,-1,32
 113 117 113 117 142 88.5 c 128,-1,33
 171 60 171 60 208.5 43 c 128,-1,34
 246 26 246 26 288 26 c 256,35,36
 330 26 330 26 367.5 43 c 128,-1,37
 405 60 405 60 433.5 88.5 c 128,-1,38
 462 117 462 117 479 154.5 c 128,-1,39
 496 192 496 192 496 234 c 256,20,21
432 185 m 1,40,41
 424 160 424 160 409.5 142.5 c 128,-1,42
 395 125 395 125 376 113.5 c 128,-1,43
 357 102 357 102 334.5 97 c 128,-1,44
 312 92 312 92 289 92 c 0,45,46
 257 92 257 92 228.5 102.5 c 128,-1,47
 200 113 200 113 178.5 131.5 c 128,-1,48
 157 150 157 150 144.5 176 c 128,-1,49
 132 202 132 202 132 233 c 256,50,51
 132 264 132 264 144.5 290 c 128,-1,52
 157 316 157 316 178.5 334.5 c 128,-1,53
 200 353 200 353 228.5 363.5 c 128,-1,54
 257 374 257 374 289 374 c 0,55,56
 312 374 312 374 334.5 369 c 128,-1,57
 357 364 357 364 376 353 c 128,-1,58
 395 342 395 342 409.5 324.5 c 128,-1,59
 424 307 424 307 432 282 c 1,60,-1
 371 282 l 1,61,62
 358 314 358 314 337 331 c 128,-1,63
 316 348 316 348 286 348 c 0,64,65
 263 348 263 348 246 339 c 128,-1,66
 229 330 229 330 218 314.5 c 128,-1,67
 207 299 207 299 201 278.5 c 128,-1,68
 195 258 195 258 195 236 c 0,69,70
 195 185 195 185 218 152.5 c 128,-1,71
 241 120 241 120 286 120 c 0,72,73
 345 120 345 120 371 185 c 1,74,-1
 432 185 l 1,40,41
EndSplineSet
EndChar
StartChar: ordfeminine
Encoding: 170 170 109
Width: 279
Flags: W
Fore
212 224 m 1,0,1
 210 230 210 230 207 238 c 128,-1,2
 204 246 204 246 204 255 c 1,3,4
 187 235 187 235 163 226.5 c 128,-1,5
 139 218 139 218 113 218 c 0,6,7
 93 218 93 218 74.5 222.5 c 128,-1,8
 56 227 56 227 42 236 c 128,-1,9
 28 245 28 245 19 259 c 128,-1,10
 10 273 10 273 10 292 c 0,11,12
 10 316 10 316 25.5 331.5 c 128,-1,13
 41 347 41 347 64 356 c 128,-1,14
 87 365 87 365 114 368 c 128,-1,15
 141 371 141 371 164 371 c 0,16,17
 166 371 166 371 177.5 371.5 c 128,-1,18
 189 372 189 372 200 371 c 1,19,-1
 200 372 l 2,20,21
 200 397 200 397 184 416.5 c 128,-1,22
 168 436 168 436 133 436 c 0,23,24
 85 436 85 436 73 388 c 1,25,-1
 22 388 l 1,26,27
 33 424 33 424 64.5 441.5 c 128,-1,28
 96 459 96 459 133 459 c 0,29,30
 190 459 190 459 217.5 435 c 128,-1,31
 245 411 245 411 245 372 c 2,32,-1
 245 280 l 2,33,34
 245 263 245 263 248 248 c 128,-1,35
 251 233 251 233 255 224 c 1,36,-1
 212 224 l 1,0,1
164 348 m 2,37,38
 144 348 144 348 125.5 344.5 c 128,-1,39
 107 341 107 341 93 333.5 c 128,-1,40
 79 326 79 326 70.5 315.5 c 128,-1,41
 62 305 62 305 62 291 c 0,42,43
 62 272 62 272 80.5 256 c 128,-1,44
 99 240 99 240 125 240 c 0,45,46
 157 240 157 240 178.5 264.5 c 128,-1,47
 200 289 200 289 200 328 c 2,48,-1
 200 348 l 1,49,-1
 164 348 l 2,37,38
EndSplineSet
EndChar
StartChar: guillemotleft
Encoding: 171 171 110
Width: 409
Flags: W
Fore
327 36 m 1,0,-1
 214 190 l 1,1,-1
 326 343 l 1,2,-1
 374 307 l 1,3,-1
 277 190 l 1,4,-1
 375 73 l 1,5,-1
 327 36 l 1,0,-1
183 36 m 1,6,-1
 70 190 l 1,7,-1
 181 343 l 1,8,-1
 229 307 l 1,9,-1
 133 190 l 1,10,-1
 231 73 l 1,11,-1
 183 36 l 1,6,-1
EndSplineSet
EndChar
StartChar: logicalnot
Encoding: 172 172 111
Width: 412
Flags: W
Fore
307 84 m 1,0,-1
 307 245 l 1,1,-1
 10 245 l 1,2,-1
 10 282 l 1,3,-1
 382 282 l 1,4,-1
 382 84 l 1,5,-1
 307 84 l 1,0,-1
EndSplineSet
EndChar
StartChar: registered
Encoding: 174 174 112
Width: 575
Flags: W
Fore
551 233 m 256,0,1
 551 179 551 179 529.5 132 c 128,-1,2
 508 85 508 85 472 50 c 128,-1,3
 436 15 436 15 388.5 -5 c 128,-1,4
 341 -25 341 -25 288 -25 c 256,5,6
 235 -25 235 -25 187 -5 c 128,-1,7
 139 15 139 15 103 50 c 128,-1,8
 67 85 67 85 45.5 132 c 128,-1,9
 24 179 24 179 24 233 c 256,10,11
 24 287 24 287 45.5 334 c 128,-1,12
 67 381 67 381 103 416.5 c 128,-1,13
 139 452 139 452 187 472 c 128,-1,14
 235 492 235 492 288 492 c 256,15,16
 341 492 341 492 388.5 471.5 c 128,-1,17
 436 451 436 451 472 416 c 128,-1,18
 508 381 508 381 529.5 334 c 128,-1,19
 551 287 551 287 551 233 c 256,0,1
496 234 m 256,20,21
 496 276 496 276 479 314 c 128,-1,22
 462 352 462 352 433.5 380.5 c 128,-1,23
 405 409 405 409 367.5 426 c 128,-1,24
 330 443 330 443 288 443 c 256,25,26
 246 443 246 443 208 426 c 128,-1,27
 170 409 170 409 141.5 380.5 c 128,-1,28
 113 352 113 352 96 314 c 128,-1,29
 79 276 79 276 79 234 c 256,30,31
 79 192 79 192 96 154.5 c 128,-1,32
 113 117 113 117 142 88.5 c 128,-1,33
 171 60 171 60 208.5 43 c 128,-1,34
 246 26 246 26 288 26 c 256,35,36
 330 26 330 26 367.5 43 c 128,-1,37
 405 60 405 60 433.5 88.5 c 128,-1,38
 462 117 462 117 479 154.5 c 128,-1,39
 496 192 496 192 496 234 c 256,20,21
372 104 m 1,40,41
 361 114 361 114 355 128.5 c 128,-1,42
 349 143 349 143 344 158 c 2,43,-1
 338 176 l 2,44,45
 333 193 333 193 322.5 203.5 c 128,-1,46
 312 214 312 214 295 214 c 2,47,-1
 217 214 l 1,48,-1
 217 104 l 1,49,-1
 172 104 l 1,50,-1
 172 360 l 1,51,-1
 263 360 l 2,52,53
 291 360 291 360 315.5 358 c 128,-1,54
 340 356 340 356 358 349 c 128,-1,55
 376 342 376 342 386.5 328 c 128,-1,56
 397 314 397 314 397 290 c 0,57,58
 397 267 397 267 377 250.5 c 128,-1,59
 357 234 357 234 334 228 c 1,60,61
 356 224 356 224 369.5 211 c 128,-1,62
 383 198 383 198 388 181 c 2,63,-1
 397 151 l 2,64,65
 401 141 401 141 407 128.5 c 128,-1,66
 413 116 413 116 427 104 c 1,67,-1
 372 104 l 1,40,41
348 290 m 0,68,69
 348 311 348 311 331.5 324.5 c 128,-1,70
 315 338 315 338 269 338 c 2,71,-1
 217 338 l 1,72,-1
 217 237 l 1,73,-1
 272 237 l 2,74,75
 317 237 317 237 332.5 250.5 c 128,-1,76
 348 264 348 264 348 290 c 0,68,69
EndSplineSet
EndChar
StartChar: macron
Encoding: 175 175 113
Width: 249
Flags: W
Fore
19 391 m 1,0,-1
 19 450 l 1,1,-1
 229 450 l 1,2,-1
 229 391 l 1,3,-1
 19 391 l 1,0,-1
EndSplineSet
EndChar
StartChar: degree
Encoding: 176 176 114
Width: 288
Flags: W
Fore
259 354 m 256,0,1
 259 330 259 330 250 309 c 128,-1,2
 241 288 241 288 225.5 272.5 c 128,-1,3
 210 257 210 257 189 248 c 128,-1,4
 168 239 168 239 144 239 c 256,5,6
 120 239 120 239 99 248 c 128,-1,7
 78 257 78 257 62.5 272.5 c 128,-1,8
 47 288 47 288 38 309 c 128,-1,9
 29 330 29 330 29 354 c 256,10,11
 29 378 29 378 38 399 c 128,-1,12
 47 420 47 420 63 436 c 128,-1,13
 79 452 79 452 99.5 461 c 128,-1,14
 120 470 120 470 144 470 c 256,15,16
 168 470 168 470 188.5 461 c 128,-1,17
 209 452 209 452 225 436 c 128,-1,18
 241 420 241 420 250 399 c 128,-1,19
 259 378 259 378 259 354 c 256,0,1
215 352 m 0,20,21
 215 382 215 382 194.5 403 c 128,-1,22
 174 424 174 424 145 424 c 256,23,24
 116 424 116 424 95 403 c 128,-1,25
 74 382 74 382 74 352 c 0,26,27
 74 323 74 323 95 302.5 c 128,-1,28
 116 282 116 282 145 282 c 256,29,30
 174 282 174 282 194.5 302.5 c 128,-1,31
 215 323 215 323 215 352 c 0,20,21
EndSplineSet
EndChar
StartChar: plusminus
Encoding: 177 177 115
Width: 459
Flags: W
Fore
262 205 m 1,0,-1
 262 86 l 1,1,-1
 197 86 l 1,2,-1
 197 205 l 1,3,-1
 29 205 l 1,4,-1
 29 252 l 1,5,-1
 197 252 l 1,6,-1
 197 370 l 1,7,-1
 262 370 l 1,8,-1
 262 252 l 1,9,-1
 430 252 l 1,10,-1
 430 205 l 1,11,-1
 262 205 l 1,0,-1
29 0 m 1,12,-1
 29 47 l 1,13,-1
 430 47 l 1,14,-1
 430 0 l 1,15,-1
 29 0 l 1,12,-1
EndSplineSet
EndChar
StartChar: twosuperior
Encoding: 178 178 116
Width: 297
Flags: W
Fore
17 184 m 1,0,1
 20 206 20 206 30.5 222.5 c 128,-1,2
 41 239 41 239 56 251.5 c 128,-1,3
 71 264 71 264 89 274 c 128,-1,4
 107 284 107 284 127 294 c 0,5,6
 143 301 143 301 159 310 c 0,7,8
 177 320 177 320 191.5 333.5 c 128,-1,9
 206 347 206 347 206 372 c 0,10,11
 206 395 206 395 190 416 c 128,-1,12
 174 437 174 437 142 437 c 0,13,14
 115 437 115 437 96 417 c 128,-1,15
 77 397 77 397 76 363 c 1,16,-1
 10 363 l 1,17,18
 14 388 14 388 26 406 c 128,-1,19
 38 424 38 424 56 436 c 128,-1,20
 74 448 74 448 96 453.5 c 128,-1,21
 118 459 118 459 142 459 c 0,22,23
 167 459 167 459 190.5 453.5 c 128,-1,24
 214 448 214 448 232 437 c 128,-1,25
 250 426 250 426 260.5 410 c 128,-1,26
 271 394 271 394 271 372 c 0,27,28
 271 351 271 351 260 334.5 c 128,-1,29
 249 318 249 318 232 305.5 c 128,-1,30
 215 293 215 293 194 283.5 c 128,-1,31
 173 274 173 274 152 265 c 0,32,33
 130 256 130 256 111.5 246 c 128,-1,34
 93 236 93 236 85 222 c 1,35,-1
 278 222 l 1,36,-1
 278 184 l 1,37,-1
 17 184 l 1,0,1
EndSplineSet
EndChar
StartChar: threesuperior
Encoding: 179 179 117
Width: 297
Flags: W
Fore
284 267 m 0,0,1
 284 244 284 244 271.5 228 c 128,-1,2
 259 212 259 212 239.5 201.5 c 128,-1,3
 220 191 220 191 195 186 c 128,-1,4
 170 181 170 181 145 181 c 0,5,6
 121 181 121 181 98.5 186.5 c 128,-1,7
 76 192 76 192 58 204 c 128,-1,8
 40 216 40 216 28 234 c 128,-1,9
 16 252 16 252 12 277 c 1,10,-1
 78 277 l 1,11,12
 79 243 79 243 98 223.5 c 128,-1,13
 117 204 117 204 145 204 c 0,14,15
 175 204 175 204 197.5 223 c 128,-1,16
 220 242 220 242 220 268 c 0,17,18
 220 293 220 293 198.5 305 c 128,-1,19
 177 317 177 317 145 317 c 0,20,21
 135 317 135 317 124.5 316 c 128,-1,22
 114 315 114 315 100 313 c 1,23,-1
 100 345 l 1,24,25
 150 337 150 337 177 351.5 c 128,-1,26
 204 366 204 366 204 389 c 0,27,28
 204 407 204 407 190 422.5 c 128,-1,29
 176 438 176 438 147 438 c 0,30,31
 123 438 123 438 109.5 421 c 128,-1,32
 96 404 96 404 94 373 c 1,33,-1
 29 373 l 1,34,35
 33 417 33 417 67 439 c 128,-1,36
 101 461 101 461 147 461 c 0,37,38
 171 461 171 461 193 457 c 128,-1,39
 215 453 215 453 232 444 c 128,-1,40
 249 435 249 435 259 421.5 c 128,-1,41
 269 408 269 408 269 389 c 0,42,43
 269 369 269 369 256 355 c 128,-1,44
 243 341 243 341 224 333 c 1,45,-1
 223 333 l 1,46,47
 248 325 248 325 266 309 c 128,-1,48
 284 293 284 293 284 267 c 0,0,1
EndSplineSet
EndChar
StartChar: acute
Encoding: 180 180 118
Width: 183
Flags: W
Fore
204 521 m 0,0,1
 204 516 204 516 201 507.5 c 128,-1,2
 198 499 198 499 185 492 c 2,3,-1
 66 425 l 1,4,-1
 31 425 l 1,5,-1
 135 531 l 2,6,7
 144 539 144 539 151 544.5 c 128,-1,8
 158 550 158 550 172 550 c 256,9,10
 186 550 186 550 195 542.5 c 128,-1,11
 204 535 204 535 204 521 c 0,0,1
EndSplineSet
EndChar
StartChar: mu
Encoding: 181 181 119
Width: 435
Flags: W
Fore
323 44 m 1,0,1
 312 29 312 29 297 18 c 128,-1,2
 282 7 282 7 266 0.5 c 128,-1,3
 250 -6 250 -6 234 -9 c 128,-1,4
 218 -12 218 -12 205 -12 c 0,5,6
 180 -12 180 -12 155.5 -5.5 c 128,-1,7
 131 1 131 1 114 16 c 1,8,-1
 114 -125 l 1,9,-1
 40 -125 l 1,10,-1
 40 348 l 1,11,-1
 114 348 l 1,12,-1
 114 110 l 2,13,14
 114 78 114 78 139.5 53 c 128,-1,15
 165 28 165 28 213 28 c 0,16,17
 237 28 237 28 257 37.5 c 128,-1,18
 277 47 277 47 291.5 64 c 128,-1,19
 306 81 306 81 314.5 103.5 c 128,-1,20
 323 126 323 126 323 152 c 2,21,-1
 323 348 l 1,22,-1
 396 348 l 1,23,-1
 396 -2 l 1,24,-1
 323 -2 l 1,25,-1
 323 44 l 1,0,1
EndSplineSet
EndChar
StartChar: paragraph
Encoding: 182 182 120
Width: 404
Flags: W
Fore
335 425 m 1,0,-1
 335 -98 l 1,1,-1
 270 -98 l 1,2,-1
 270 425 l 1,3,-1
 228 425 l 1,4,-1
 228 -98 l 1,5,-1
 163 -98 l 1,6,-1
 163 158 l 1,7,8
 91 163 91 163 55 207.5 c 128,-1,9
 19 252 19 252 19 319 c 0,10,11
 19 352 19 352 31 379.5 c 128,-1,12
 43 407 43 407 65 426.5 c 128,-1,13
 87 446 87 446 116 457 c 128,-1,14
 145 468 145 468 180 468 c 2,15,-1
 385 468 l 1,16,-1
 385 425 l 1,17,-1
 335 425 l 1,0,-1
EndSplineSet
EndChar
StartChar: periodcentered
Encoding: 183 183 121
Width: 226
Flags: W
Fore
38 229 m 0,0,1
 38 261 38 261 59.5 282.5 c 128,-1,2
 81 304 81 304 112 304 c 0,3,4
 144 304 144 304 165.5 282.5 c 128,-1,5
 187 261 187 261 187 229 c 0,6,7
 187 198 187 198 165.5 177 c 128,-1,8
 144 156 144 156 112 156 c 0,9,10
 81 156 81 156 59.5 177 c 128,-1,11
 38 198 38 198 38 229 c 0,0,1
EndSplineSet
EndChar
StartChar: cedilla
Encoding: 184 184 122
Width: 180
Flags: W
Fore
171 -95 m 0,0,1
 171 -112 171 -112 161 -124 c 128,-1,2
 151 -136 151 -136 137 -143.5 c 128,-1,3
 123 -151 123 -151 106.5 -154 c 128,-1,4
 90 -157 90 -157 77 -157 c 0,5,6
 62 -157 62 -157 43.5 -155.5 c 128,-1,7
 25 -154 25 -154 4 -144 c 1,8,-1
 14 -113 l 1,9,10
 24 -122 24 -122 39.5 -127 c 128,-1,11
 55 -132 55 -132 66 -132 c 0,12,13
 82 -132 82 -132 92.5 -123 c 128,-1,14
 103 -114 103 -114 103 -98 c 0,15,16
 103 -80 103 -80 81.5 -77 c 128,-1,17
 60 -74 60 -74 32 -82 c 1,18,-1
 71 0 l 1,19,-1
 108 0 l 1,20,-1
 84 -50 l 1,21,22
 90 -50 90 -50 94 -49 c 0,23,24
 104 -47 104 -47 108 -47 c 0,25,26
 132 -47 132 -47 151.5 -59.5 c 128,-1,27
 171 -72 171 -72 171 -95 c 0,0,1
EndSplineSet
EndChar
StartChar: onesuperior
Encoding: 185 185 123
Width: 277
Flags: W
Fore
109 183 m 1,0,-1
 109 406 l 1,1,-1
 42 406 l 1,2,-1
 42 423 l 1,3,4
 58 423 58 423 70.5 423.5 c 128,-1,5
 83 424 83 424 93 428 c 128,-1,6
 103 432 103 432 111 441 c 128,-1,7
 119 450 119 450 126 466 c 1,8,-1
 166 466 l 1,9,-1
 166 183 l 1,10,-1
 109 183 l 1,0,-1
EndSplineSet
EndChar
StartChar: ordmasculine
Encoding: 186 186 124
Width: 302
Flags: W
Fore
296 341 m 256,0,1
 296 313 296 313 284.5 290.5 c 128,-1,2
 273 268 273 268 253.5 252.5 c 128,-1,3
 234 237 234 237 207.5 228.5 c 128,-1,4
 181 220 181 220 151 220 c 256,5,6
 121 220 121 220 95 228.5 c 128,-1,7
 69 237 69 237 49 252.5 c 128,-1,8
 29 268 29 268 17.5 290.5 c 128,-1,9
 6 313 6 313 6 341 c 256,10,11
 6 369 6 369 17.5 391 c 128,-1,12
 29 413 29 413 49 428.5 c 128,-1,13
 69 444 69 444 95.5 452.5 c 128,-1,14
 122 461 122 461 152 461 c 256,15,16
 182 461 182 461 208 453 c 128,-1,17
 234 445 234 445 253.5 429.5 c 128,-1,18
 273 414 273 414 284.5 391.5 c 128,-1,19
 296 369 296 369 296 341 c 256,0,1
229 341 m 0,20,21
 229 389 229 389 207.5 413.5 c 128,-1,22
 186 438 186 438 152 438 c 256,23,24
 118 438 118 438 96.5 413.5 c 128,-1,25
 75 389 75 389 75 341 c 0,26,27
 75 292 75 292 96.5 268 c 128,-1,28
 118 244 118 244 152 244 c 0,29,30
 187 244 187 244 208 268 c 128,-1,31
 229 292 229 292 229 341 c 0,20,21
EndSplineSet
EndChar
StartChar: guillemotright
Encoding: 187 187 125
Width: 387
Flags: W
Fore
242 36 m 1,0,-1
 194 73 l 1,1,-1
 290 190 l 1,2,-1
 192 307 l 1,3,-1
 240 343 l 1,4,-1
 353 190 l 1,5,-1
 242 36 l 1,0,-1
98 36 m 1,6,-1
 50 73 l 1,7,-1
 146 190 l 1,8,-1
 48 307 l 1,9,-1
 96 343 l 1,10,-1
 209 190 l 1,11,-1
 98 36 l 1,6,-1
EndSplineSet
EndChar
StartChar: onequarter
Encoding: 188 188 126
Width: 704
Flags: W
Fore
575 65 m 1,0,-1
 525 65 l 1,1,-1
 525 0 l 1,2,-1
 460 0 l 1,3,-1
 460 65 l 1,4,-1
 320 65 l 1,5,-1
 309 79 l 1,6,-1
 495 276 l 1,7,-1
 525 276 l 1,8,-1
 525 94 l 1,9,-1
 591 94 l 1,10,-1
 575 65 l 1,0,-1
167 -11 m 1,11,-1
 101 -11 l 1,12,-1
 437 460 l 1,13,-1
 503 460 l 1,14,-1
 167 -11 l 1,11,-1
118 186 m 1,15,-1
 118 406 l 1,16,-1
 60 406 l 1,17,-1
 60 423 l 1,18,19
 77 423 77 423 88 423.5 c 128,-1,20
 99 424 99 424 107.5 428 c 128,-1,21
 116 432 116 432 122 441 c 128,-1,22
 128 450 128 450 135 466 c 1,23,-1
 171 466 l 1,24,-1
 171 186 l 1,25,-1
 118 186 l 1,15,-1
460 183 m 1,26,27
 440 161 440 161 419 138.5 c 128,-1,28
 398 116 398 116 378 94 c 1,29,-1
 460 94 l 1,30,-1
 460 183 l 1,26,27
EndSplineSet
Ligature: 0 0 'frac' one fraction four
Ligature: 0 0 'frac' one slash four
EndChar
StartChar: onehalf
Encoding: 189 189 127
Width: 704
Flags: W
Fore
367 -1 m 1,0,1
 371 22 371 22 382 38.5 c 128,-1,2
 393 55 393 55 408 67.5 c 128,-1,3
 423 80 423 80 441.5 90 c 128,-1,4
 460 100 460 100 480 109 c 0,5,6
 488 113 488 113 495.5 116.5 c 128,-1,7
 503 120 503 120 511 125 c 0,8,9
 528 134 528 134 542.5 148 c 128,-1,10
 557 162 557 162 557 187 c 0,11,12
 557 210 557 210 541 231 c 128,-1,13
 525 252 525 252 493 252 c 0,14,15
 465 252 465 252 446.5 232 c 128,-1,16
 428 212 428 212 428 178 c 1,17,-1
 361 178 l 1,18,19
 369 228 369 228 406.5 251 c 128,-1,20
 444 274 444 274 493 274 c 0,21,22
 518 274 518 274 541.5 268.5 c 128,-1,23
 565 263 565 263 583 252 c 128,-1,24
 601 241 601 241 611.5 224.5 c 128,-1,25
 622 208 622 208 622 186 c 0,26,27
 622 165 622 165 611.5 149 c 128,-1,28
 601 133 601 133 584 120.5 c 128,-1,29
 567 108 567 108 546 98.5 c 128,-1,30
 525 89 525 89 504 80 c 0,31,32
 481 71 481 71 462 61 c 128,-1,33
 443 51 443 51 435 36 c 1,34,-1
 628 36 l 1,35,-1
 628 -1 l 1,36,-1
 367 -1 l 1,0,1
167 -11 m 1,37,-1
 101 -11 l 1,38,-1
 437 460 l 1,39,-1
 503 460 l 1,40,-1
 167 -11 l 1,37,-1
103 189 m 1,41,-1
 103 401 l 1,42,-1
 36 401 l 1,43,-1
 36 424 l 1,44,45
 58 424 58 424 72 425.5 c 128,-1,46
 86 427 86 427 95 431.5 c 128,-1,47
 104 436 104 436 110 444 c 128,-1,48
 116 452 116 452 123 466 c 1,49,-1
 168 466 l 1,50,-1
 168 189 l 1,51,-1
 103 189 l 1,41,-1
EndSplineSet
Ligature: 0 0 'frac' one fraction two
Ligature: 0 0 'frac' one slash two
EndChar
StartChar: threequarters
Encoding: 190 190 128
Width: 704
Flags: W
Fore
634 65 m 1,0,-1
 584 65 l 1,1,-1
 584 0 l 1,2,-1
 519 0 l 1,3,-1
 519 65 l 1,4,-1
 379 65 l 1,5,-1
 367 79 l 1,6,-1
 554 276 l 1,7,-1
 584 276 l 1,8,-1
 584 94 l 1,9,-1
 649 94 l 1,10,-1
 634 65 l 1,0,-1
308 267 m 0,11,12
 308 244 308 244 295.5 228 c 128,-1,13
 283 212 283 212 263.5 201.5 c 128,-1,14
 244 191 244 191 219 186 c 128,-1,15
 194 181 194 181 169 181 c 0,16,17
 145 181 145 181 122.5 186.5 c 128,-1,18
 100 192 100 192 82 204 c 128,-1,19
 64 216 64 216 52 234 c 128,-1,20
 40 252 40 252 36 277 c 1,21,-1
 102 277 l 1,22,23
 103 243 103 243 122 223.5 c 128,-1,24
 141 204 141 204 169 204 c 0,25,26
 199 204 199 204 221.5 223 c 128,-1,27
 244 242 244 242 244 268 c 0,28,29
 244 293 244 293 222.5 305 c 128,-1,30
 201 317 201 317 169 317 c 0,31,32
 159 317 159 317 148.5 316 c 128,-1,33
 138 315 138 315 124 313 c 1,34,-1
 124 345 l 1,35,36
 174 337 174 337 201 351.5 c 128,-1,37
 228 366 228 366 228 389 c 0,38,39
 228 407 228 407 214 422.5 c 128,-1,40
 200 438 200 438 171 438 c 0,41,42
 147 438 147 438 133.5 421 c 128,-1,43
 120 404 120 404 118 373 c 1,44,-1
 53 373 l 1,45,46
 57 417 57 417 91 439 c 128,-1,47
 125 461 125 461 171 461 c 0,48,49
 195 461 195 461 217 457 c 128,-1,50
 239 453 239 453 256 444 c 128,-1,51
 273 435 273 435 283 421.5 c 128,-1,52
 293 408 293 408 293 389 c 0,53,54
 293 369 293 369 280 355 c 128,-1,55
 267 341 267 341 248 333 c 1,56,-1
 247 333 l 1,57,58
 272 325 272 325 290 309 c 128,-1,59
 308 293 308 293 308 267 c 0,11,12
237 -11 m 1,60,-1
 171 -11 l 1,61,-1
 507 460 l 1,62,-1
 573 460 l 1,63,-1
 237 -11 l 1,60,-1
519 183 m 1,64,65
 499 161 499 161 478 138.5 c 128,-1,66
 457 116 457 116 437 94 c 1,67,-1
 519 94 l 1,68,-1
 519 183 l 1,64,65
EndSplineSet
Ligature: 0 0 'frac' three fraction four
Ligature: 0 0 'frac' three slash four
EndChar
StartChar: questiondown
Encoding: 191 191 129
Width: 357
Flags: W
Fore
230 357 m 256,0,1
 230 343 230 343 220.5 333.5 c 128,-1,2
 211 324 211 324 197 324 c 256,3,4
 183 324 183 324 173 333.5 c 128,-1,5
 163 343 163 343 163 357 c 256,6,7
 163 371 163 371 173 381 c 128,-1,8
 183 391 183 391 197 391 c 256,9,10
 211 391 211 391 220.5 381 c 128,-1,11
 230 371 230 371 230 357 c 256,0,1
337 50 m 1,12,13
 337 -19 337 -19 295.5 -59 c 128,-1,14
 254 -99 254 -99 185 -99 c 0,15,16
 155 -99 155 -99 127.5 -91 c 128,-1,17
 100 -83 100 -83 78.5 -66.5 c 128,-1,18
 57 -50 57 -50 44 -25.5 c 128,-1,19
 31 -1 31 -1 31 32 c 0,20,21
 31 59 31 59 43 78.5 c 128,-1,22
 55 98 55 98 73 114.5 c 128,-1,23
 91 131 91 131 112.5 147 c 128,-1,24
 134 163 134 163 151.5 183.5 c 128,-1,25
 169 204 169 204 180.5 231.5 c 128,-1,26
 192 259 192 259 191 298 c 1,27,-1
 204 298 l 1,28,29
 205 287 205 287 205.5 277 c 128,-1,30
 206 267 206 267 206 256 c 0,31,32
 206 206 206 206 189 176 c 128,-1,33
 172 146 172 146 151.5 123.5 c 128,-1,34
 131 101 131 101 114 81 c 128,-1,35
 97 61 97 61 97 30 c 0,36,37
 97 7 97 7 101.5 -13 c 128,-1,38
 106 -33 106 -33 116.5 -47.5 c 128,-1,39
 127 -62 127 -62 144 -70.5 c 128,-1,40
 161 -79 161 -79 187 -79 c 0,41,42
 215 -79 215 -79 234 -68 c 128,-1,43
 253 -57 253 -57 264 -38.5 c 128,-1,44
 275 -20 275 -20 279.5 3 c 128,-1,45
 284 26 284 26 284 50 c 1,46,-1
 337 50 l 1,12,13
EndSplineSet
EndChar
StartChar: Aring
Encoding: 197 197 134
Width: 572
Flags: W
Fore
477 0 m 1,0,-1
 351 226 l 1,1,-1
 183 226 l 1,2,-1
 55 0 l 1,3,-1
 0 0 l 1,4,-1
 243 418 l 1,5,6
 211 431 211 431 191.5 459 c 128,-1,7
 172 487 172 487 172 523 c 0,8,9
 172 547 172 547 181 568 c 128,-1,10
 190 589 190 589 206 605 c 128,-1,11
 222 621 222 621 242.5 630 c 128,-1,12
 263 639 263 639 287 639 c 256,13,14
 311 639 311 639 332.5 630 c 128,-1,15
 354 621 354 621 369.5 605 c 128,-1,16
 385 589 385 589 394 568 c 128,-1,17
 403 547 403 547 403 523 c 0,18,19
 403 490 403 490 386 463 c 128,-1,20
 369 436 369 436 341 421 c 1,21,-1
 572 0 l 1,22,-1
 477 0 l 1,0,-1
358 523 m 0,23,24
 358 553 358 553 337.5 574 c 128,-1,25
 317 595 317 595 287 595 c 0,26,27
 258 595 258 595 237.5 574 c 128,-1,28
 217 553 217 553 217 523 c 0,29,30
 217 494 217 494 237.5 473.5 c 128,-1,31
 258 453 258 453 287 453 c 0,32,33
 317 453 317 453 337.5 473.5 c 128,-1,34
 358 494 358 494 358 523 c 0,23,24
269 379 m 1,35,-1
 212 276 l 1,36,-1
 324 276 l 1,37,-1
 269 379 l 1,35,-1
EndSplineSet
EndChar
StartChar: AE
Encoding: 198 198 135
Width: 756
Flags: W
Fore
374 0 m 1,0,-1
 374 230 l 1,1,-1
 227 230 l 1,2,-1
 60 0 l 1,3,-1
 0 0 l 1,4,-1
 338 467 l 1,5,-1
 746 467 l 1,6,-1
 746 425 l 1,7,-1
 458 425 l 1,8,-1
 458 270 l 1,9,-1
 675 270 l 1,10,-1
 675 230 l 1,11,-1
 458 230 l 1,12,-1
 458 40 l 1,13,-1
 746 40 l 1,14,-1
 746 0 l 1,15,-1
 374 0 l 1,0,-1
374 416 m 1,16,-1
 361 416 l 1,17,-1
 256 270 l 1,18,-1
 374 270 l 1,19,-1
 374 416 l 1,16,-1
EndSplineSet
EndChar
StartChar: Eth
Encoding: 208 208 145
Width: 575
Flags: W
Fore
559 247 m 0,0,1
 559 195 559 195 543 150 c 128,-1,2
 527 105 527 105 489 71.5 c 128,-1,3
 451 38 451 38 388.5 19 c 128,-1,4
 326 0 326 0 232 0 c 2,5,-1
 48 0 l 1,6,-1
 48 230 l 1,7,-1
 -4 230 l 1,8,-1
 -4 270 l 1,9,-1
 48 270 l 1,10,-1
 48 466 l 1,11,-1
 228 466 l 2,12,13
 318 466 318 466 380.5 449.5 c 128,-1,14
 443 433 443 433 483 403.5 c 128,-1,15
 523 374 523 374 541 334 c 128,-1,16
 559 294 559 294 559 247 c 0,0,1
464 247 m 0,17,18
 464 283 464 283 453.5 315.5 c 128,-1,19
 443 348 443 348 417.5 372.5 c 128,-1,20
 392 397 392 397 349.5 411.5 c 128,-1,21
 307 426 307 426 242 426 c 2,22,-1
 131 426 l 1,23,-1
 131 270 l 1,24,-1
 271 270 l 1,25,-1
 271 230 l 1,26,-1
 131 230 l 1,27,-1
 131 40 l 1,28,-1
 242 40 l 2,29,30
 306 40 306 40 349 54.5 c 128,-1,31
 392 69 392 69 417.5 96 c 128,-1,32
 443 123 443 123 453.5 161.5 c 128,-1,33
 464 200 464 200 464 247 c 0,17,18
EndSplineSet
EndChar
StartChar: multiply
Encoding: 215 215 152
Width: 459
Flags: W
Fore
276 190 m 1,0,-1
 435 39 l 1,1,-1
 389 -4 l 1,2,-1
 229 146 l 1,3,-1
 70 -4 l 1,4,-1
 24 39 l 1,5,-1
 183 190 l 1,6,-1
 24 340 l 1,7,-1
 70 383 l 1,8,-1
 229 233 l 1,9,-1
 389 383 l 1,10,-1
 435 340 l 1,11,-1
 276 190 l 1,0,-1
EndSplineSet
EndChar
StartChar: Oslash
Encoding: 216 216 153
Width: 632
Flags: W
Fore
516 406 m 1,0,1
 553 373 553 373 574 328.5 c 128,-1,2
 595 284 595 284 595 233 c 0,3,4
 595 181 595 181 572.5 135.5 c 128,-1,5
 550 90 550 90 511 56 c 128,-1,6
 472 22 472 22 420 2.5 c 128,-1,7
 368 -17 368 -17 308 -17 c 0,8,9
 263 -17 263 -17 223 -6 c 128,-1,10
 183 5 183 5 148 25 c 1,11,-1
 76 -49 l 1,12,-1
 10 -49 l 1,13,-1
 108 54 l 1,14,15
 68 88 68 88 45 133 c 128,-1,16
 22 178 22 178 22 232 c 0,17,18
 22 284 22 284 45 329.5 c 128,-1,19
 68 375 68 375 107 409 c 128,-1,20
 146 443 146 443 198 462.5 c 128,-1,21
 250 482 250 482 309 482 c 0,22,23
 357 482 357 482 399.5 470 c 128,-1,24
 442 458 442 458 477 435 c 1,25,-1
 556 516 l 1,26,-1
 622 516 l 1,27,-1
 516 406 l 1,0,1
439 396 m 1,28,29
 414 419 414 419 381.5 432.5 c 128,-1,30
 349 446 349 446 309 446 c 0,31,32
 265 446 265 446 230 429 c 128,-1,33
 195 412 195 412 169.5 383 c 128,-1,34
 144 354 144 354 130.5 315 c 128,-1,35
 117 276 117 276 117 232 c 0,36,37
 117 194 117 194 127 160.5 c 128,-1,38
 137 127 137 127 154 101 c 1,39,-1
 439 396 l 1,28,29
500 233 m 0,40,41
 500 268 500 268 492 299.5 c 128,-1,42
 484 331 484 331 468 357 c 1,43,-1
 185 64 l 1,44,45
 209 43 209 43 240 31 c 128,-1,46
 271 19 271 19 308 19 c 0,47,48
 351 19 351 19 386.5 35.5 c 128,-1,49
 422 52 422 52 447.5 81 c 128,-1,50
 473 110 473 110 486.5 149 c 128,-1,51
 500 188 500 188 500 233 c 0,40,41
EndSplineSet
EndChar
StartChar: Thorn
Encoding: 222 222 159
Width: 545
Flags: W
Fore
513 260 m 0,0,1
 513 229 513 229 500 206.5 c 128,-1,2
 487 184 487 184 465.5 168 c 128,-1,3
 444 152 444 152 416.5 142.5 c 128,-1,4
 389 133 389 133 360 128 c 0,5,6
 309 119 309 119 258.5 118 c 128,-1,7
 208 117 208 117 157 118 c 1,8,-1
 157 0 l 1,9,-1
 71 0 l 1,10,-1
 71 486 l 1,11,-1
 156 486 l 1,12,-1
 156 395 l 1,13,14
 182 395 182 395 219 395.5 c 128,-1,15
 256 396 256 396 295.5 393 c 128,-1,16
 335 390 335 390 374 382.5 c 128,-1,17
 413 375 413 375 444 360 c 128,-1,18
 475 345 475 345 494 320.5 c 128,-1,19
 513 296 513 296 513 260 c 0,0,1
409 261 m 0,20,21
 409 292 409 292 387.5 311 c 128,-1,22
 366 330 366 330 335.5 339.5 c 128,-1,23
 305 349 305 349 272 352 c 128,-1,24
 239 355 239 355 215 355 c 2,25,-1
 157 355 l 1,26,-1
 157 159 l 1,27,-1
 212 159 l 2,28,29
 240 159 240 159 274 161.5 c 128,-1,30
 308 164 308 164 338 174.5 c 128,-1,31
 368 185 368 185 388.5 205 c 128,-1,32
 409 225 409 225 409 261 c 0,20,21
EndSplineSet
EndChar
StartChar: uni00DF
Encoding: 223 223 160
Width: 479
Flags: W
Fore
455 142 m 0,0,1
 455 108 455 108 440.5 80 c 128,-1,2
 426 52 426 52 402 31.5 c 128,-1,3
 378 11 378 11 346.5 -0.5 c 128,-1,4
 315 -12 315 -12 282 -12 c 0,5,6
 259 -12 259 -12 230 -8 c 128,-1,7
 201 -4 201 -4 172 13 c 1,8,-1
 201 73 l 1,9,10
 216 54 216 54 235.5 43 c 128,-1,11
 255 32 255 32 275 32 c 0,12,13
 296 32 296 32 311 42.5 c 128,-1,14
 326 53 326 53 335.5 69 c 128,-1,15
 345 85 345 85 350 104.5 c 128,-1,16
 355 124 355 124 355 143 c 0,17,18
 355 205 355 205 320 235 c 128,-1,19
 285 265 285 265 208 253 c 1,20,-1
 208 309 l 1,21,22
 225 305 225 305 231 304 c 128,-1,23
 237 303 237 303 241 303 c 0,24,25
 285 303 285 303 300 324.5 c 128,-1,26
 315 346 315 346 315 390 c 256,27,28
 315 434 315 434 294.5 462 c 128,-1,29
 274 490 274 490 228 490 c 0,30,31
 198 490 198 490 179 478 c 128,-1,32
 160 466 160 466 149 445.5 c 128,-1,33
 138 425 138 425 134 399 c 128,-1,34
 130 373 130 373 130 345 c 2,35,-1
 130 -1 l 1,36,-1
 48 -1 l 1,37,-1
 48 342 l 2,38,39
 48 381 48 381 59 415.5 c 128,-1,40
 70 450 70 450 92.5 475 c 128,-1,41
 115 500 115 500 149 514.5 c 128,-1,42
 183 529 183 529 228 529 c 0,43,44
 259 529 259 529 291 522 c 128,-1,45
 323 515 323 515 349.5 499.5 c 128,-1,46
 376 484 376 484 393 458 c 128,-1,47
 410 432 410 432 410 394 c 0,48,49
 410 374 410 374 403 356.5 c 128,-1,50
 396 339 396 339 384.5 325 c 128,-1,51
 373 311 373 311 357.5 301 c 128,-1,52
 342 291 342 291 324 287 c 1,53,54
 349 281 349 281 372.5 267 c 128,-1,55
 396 253 396 253 414.5 233.5 c 128,-1,56
 433 214 433 214 444 190.5 c 128,-1,57
 455 167 455 167 455 142 c 0,0,1
EndSplineSet
EndChar
StartChar: ae
Encoding: 230 230 167
Width: 755
Flags: W
Fore
730 151 m 1,0,1
 713 77 713 77 661 32.5 c 128,-1,2
 609 -12 609 -12 529 -12 c 0,3,4
 478 -12 478 -12 428 11.5 c 128,-1,5
 378 35 378 35 348 83 c 1,6,7
 332 57 332 57 314.5 39 c 128,-1,8
 297 21 297 21 276 10 c 128,-1,9
 255 -1 255 -1 229.5 -6 c 128,-1,10
 204 -11 204 -11 172 -11 c 0,11,12
 142 -11 142 -11 114.5 -4 c 128,-1,13
 87 3 87 3 66 17.5 c 128,-1,14
 45 32 45 32 32.5 55.5 c 128,-1,15
 20 79 20 79 20 112 c 256,16,17
 20 145 20 145 35 168 c 128,-1,18
 50 191 50 191 74.5 206 c 128,-1,19
 99 221 99 221 130.5 229 c 128,-1,20
 162 237 162 237 195 240.5 c 128,-1,21
 228 244 228 244 259.5 244.5 c 128,-1,22
 291 245 291 245 316 245 c 1,23,-1
 316 247 l 2,24,25
 316 296 316 296 292 323.5 c 128,-1,26
 268 351 268 351 216 351 c 0,27,28
 187 351 187 351 161.5 331 c 128,-1,29
 136 311 136 311 128 278 c 1,30,-1
 44 278 l 1,31,32
 66 342 66 342 111.5 367 c 128,-1,33
 157 392 157 392 216 392 c 0,34,35
 236 392 236 392 256.5 389.5 c 128,-1,36
 277 387 277 387 297 379 c 128,-1,37
 317 371 317 371 335.5 355 c 128,-1,38
 354 339 354 339 370 312 c 1,39,40
 402 354 402 354 439.5 373 c 128,-1,41
 477 392 477 392 520 392 c 0,42,43
 690 392 690 392 728 232 c 1,44,-1
 404 232 l 1,45,46
 402 223 402 223 401 209 c 128,-1,47
 400 195 400 195 400 186 c 0,48,49
 400 155 400 155 409 126 c 128,-1,50
 418 97 418 97 435 75 c 128,-1,51
 452 53 452 53 478 40 c 128,-1,52
 504 27 504 27 538 27 c 0,53,54
 561 27 561 27 580 37.5 c 128,-1,55
 599 48 599 48 613.5 65 c 128,-1,56
 628 82 628 82 636.5 104.5 c 128,-1,57
 645 127 645 127 647 151 c 1,58,-1
 730 151 l 1,0,1
628 272 m 1,59,60
 614 305 614 305 587 328.5 c 128,-1,61
 560 352 560 352 520 352 c 0,62,63
 478 352 478 352 450.5 328.5 c 128,-1,64
 423 305 423 305 418 272 c 1,65,-1
 628 272 l 1,59,60
316 207 m 1,66,-1
 259 207 l 2,67,68
 231 207 231 207 204 202 c 128,-1,69
 177 197 177 197 155.5 185.5 c 128,-1,70
 134 174 134 174 121 155.5 c 128,-1,71
 108 137 108 137 108 111 c 0,72,73
 108 76 108 76 131 52 c 128,-1,74
 154 28 154 28 192 28 c 0,75,76
 224 28 224 28 247.5 40 c 128,-1,77
 271 52 271 52 286 72 c 128,-1,78
 301 92 301 92 308.5 118.5 c 128,-1,79
 316 145 316 145 316 174 c 2,80,-1
 316 207 l 1,66,-1
EndSplineSet
EndChar
StartChar: eth
Encoding: 240 240 177
Width: 414
Flags: W
Fore
207 -8 m 256,0,1
 168 -8 168 -8 134 4 c 128,-1,2
 100 16 100 16 74 37.5 c 128,-1,3
 48 59 48 59 33 90.5 c 128,-1,4
 18 122 18 122 18 161 c 256,5,6
 18 200 18 200 33 231.5 c 128,-1,7
 48 263 48 263 73.5 285 c 128,-1,8
 99 307 99 307 134 319 c 128,-1,9
 169 331 169 331 208 331 c 0,10,11
 220 331 220 331 234.5 329 c 128,-1,12
 249 327 249 327 268 318 c 1,13,14
 254 341 254 341 238 358 c 128,-1,15
 222 375 222 375 194 398 c 1,16,-1
 74 341 l 1,17,-1
 58 375 l 1,18,-1
 158 422 l 1,19,20
 144 431 144 431 122 442.5 c 128,-1,21
 100 454 100 454 63 467 c 1,22,-1
 76 499 l 1,23,24
 115 485 115 485 146.5 472 c 128,-1,25
 178 459 178 459 205 442 c 1,26,-1
 291 480 l 1,27,-1
 306 447 l 1,28,-1
 246 420 l 1,29,30
 268 403 268 403 294.5 377.5 c 128,-1,31
 321 352 321 352 344 321.5 c 128,-1,32
 367 291 367 291 382 258 c 128,-1,33
 397 225 397 225 397 193 c 0,34,35
 397 143 397 143 382 105.5 c 128,-1,36
 367 68 367 68 341.5 43 c 128,-1,37
 316 18 316 18 281 5 c 128,-1,38
 246 -8 246 -8 207 -8 c 256,0,1
208 297 m 256,39,40
 178 297 178 297 156 286.5 c 128,-1,41
 134 276 134 276 119.5 258 c 128,-1,42
 105 240 105 240 98.5 215 c 128,-1,43
 92 190 92 190 92 162 c 0,44,45
 92 133 92 133 99 108.5 c 128,-1,46
 106 84 106 84 120 65.5 c 128,-1,47
 134 47 134 47 156.5 36.5 c 128,-1,48
 179 26 179 26 209 26 c 256,49,50
 239 26 239 26 261 36.5 c 128,-1,51
 283 47 283 47 296.5 65.5 c 128,-1,52
 310 84 310 84 316.5 108.5 c 128,-1,53
 323 133 323 133 323 161 c 256,54,55
 323 189 323 189 316.5 214 c 128,-1,56
 310 239 310 239 296 257.5 c 128,-1,57
 282 276 282 276 260 286.5 c 128,-1,58
 238 297 238 297 208 297 c 256,39,40
EndSplineSet
EndChar
StartChar: divide
Encoding: 247 247 184
Width: 458
Flags: W
Fore
284 338 m 256,0,1
 284 315 284 315 267.5 298.5 c 128,-1,2
 251 282 251 282 228 282 c 256,3,4
 205 282 205 282 189 298.5 c 128,-1,5
 173 315 173 315 173 338 c 256,6,7
 173 361 173 361 190 377 c 128,-1,8
 207 393 207 393 228 393 c 0,9,10
 251 393 251 393 267.5 377 c 128,-1,11
 284 361 284 361 284 338 c 256,0,1
29 171 m 1,12,-1
 29 223 l 1,13,-1
 429 223 l 1,14,-1
 429 171 l 1,15,-1
 29 171 l 1,12,-1
284 41 m 256,16,17
 284 18 284 18 267.5 2 c 128,-1,18
 251 -14 251 -14 228 -14 c 256,19,20
 205 -14 205 -14 189 2.5 c 128,-1,21
 173 19 173 19 173 41 c 0,22,23
 173 64 173 64 189 80.5 c 128,-1,24
 205 97 205 97 228 97 c 256,25,26
 251 97 251 97 267.5 80.5 c 128,-1,27
 284 64 284 64 284 41 c 256,16,17
EndSplineSet
EndChar
StartChar: oslash
Encoding: 248 248 185
Width: 478
Flags: W
Fore
405 297 m 1,0,1
 428 274 428 274 441 242.5 c 128,-1,2
 454 211 454 211 454 173 c 0,3,4
 454 130 454 130 437.5 96 c 128,-1,5
 421 62 421 62 392.5 38.5 c 128,-1,6
 364 15 364 15 326 2.5 c 128,-1,7
 288 -10 288 -10 245 -10 c 0,8,9
 170 -10 170 -10 117 25 c 1,10,-1
 58 -31 l 1,11,-1
 0 -31 l 1,12,-1
 85 49 l 1,13,14
 62 73 62 73 48.5 104 c 128,-1,15
 35 135 35 135 35 173 c 0,16,17
 35 216 35 216 51.5 250 c 128,-1,18
 68 284 68 284 96.5 308 c 128,-1,19
 125 332 125 332 163 344.5 c 128,-1,20
 201 357 201 357 245 357 c 0,21,22
 319 357 319 357 373 323 c 1,23,-1
 430 377 l 1,24,-1
 489 377 l 1,25,-1
 405 297 l 1,0,1
336 287 m 1,26,27
 301 322 301 322 245 322 c 0,28,29
 187 322 187 322 151 285 c 128,-1,30
 115 248 115 248 115 174 c 0,31,32
 115 126 115 126 132 94 c 1,33,-1
 336 287 l 1,26,27
375 173 m 0,34,35
 375 222 375 222 359 253 c 1,36,-1
 155 61 l 1,37,38
 190 26 190 26 246 26 c 0,39,40
 303 26 303 26 339 63 c 128,-1,41
 375 100 375 100 375 173 c 0,34,35
EndSplineSet
EndChar
StartChar: thorn
Encoding: 254 254 191
Width: 513
Flags: W
Fore
493 192 m 0,0,1
 493 144 493 144 476 104.5 c 128,-1,2
 459 65 459 65 430 37 c 128,-1,3
 401 9 401 9 361 -6 c 128,-1,4
 321 -21 321 -21 275 -21 c 0,5,6
 225 -21 225 -21 186.5 -1 c 128,-1,7
 148 19 148 19 123 50 c 1,8,-1
 123 -147 l 1,9,-1
 45 -147 l 1,10,-1
 45 627 l 1,11,-1
 118 627 l 1,12,-1
 118 331 l 1,13,14
 141 366 141 366 182.5 386 c 128,-1,15
 224 406 224 406 275 406 c 0,16,17
 321 406 321 406 361 389 c 128,-1,18
 401 372 401 372 430.5 343 c 128,-1,19
 460 314 460 314 476.5 275 c 128,-1,20
 493 236 493 236 493 192 c 0,0,1
404 194 m 0,21,22
 404 232 404 232 392 263.5 c 128,-1,23
 380 295 380 295 360.5 317.5 c 128,-1,24
 341 340 341 340 315.5 352.5 c 128,-1,25
 290 365 290 365 262 365 c 0,26,27
 235 365 235 365 209.5 351.5 c 128,-1,28
 184 338 184 338 165 315 c 128,-1,29
 146 292 146 292 134.5 261 c 128,-1,30
 123 230 123 230 123 194 c 256,31,32
 123 158 123 158 134.5 126.5 c 128,-1,33
 146 95 146 95 165 71 c 128,-1,34
 184 47 184 47 209.5 33 c 128,-1,35
 235 19 235 19 262 19 c 256,36,37
 289 19 289 19 315 31.5 c 128,-1,38
 341 44 341 44 360.5 67.5 c 128,-1,39
 380 91 380 91 392 123 c 128,-1,40
 404 155 404 155 404 194 c 0,21,22
EndSplineSet
EndChar
StartChar: Lslash
Encoding: 321 321 193
Width: 462
Flags: W
Fore
48 0 m 1,0,-1
 48 466 l 1,1,-1
 130 466 l 1,2,-1
 130 40 l 1,3,-1
 421 40 l 1,4,-1
 421 0 l 1,5,-1
 48 0 l 1,0,-1
12 201 m 1,6,-1
 12 231 l 1,7,-1
 272 328 l 1,8,-1
 272 298 l 1,9,-1
 12 201 l 1,6,-1
EndSplineSet
EndChar
StartChar: lslash
Encoding: 322 322 194
Width: 212
Flags: W
Fore
29 246 m 1,0,-1
 29 276 l 1,1,-1
 191 337 l 1,2,-1
 191 307 l 1,3,-1
 29 246 l 1,0,-1
72 0 m 1,4,-1
 72 466 l 1,5,-1
 154 466 l 1,6,-1
 154 0 l 1,7,-1
 72 0 l 1,4,-1
EndSplineSet
EndChar
StartChar: OE
Encoding: 338 338 195
Width: 877
Flags: W
Fore
468 0 m 1,0,-1
 468 54 l 1,1,2
 433 22 433 22 389 2.5 c 128,-1,3
 345 -17 345 -17 291 -17 c 0,4,5
 232 -17 232 -17 182 2.5 c 128,-1,6
 132 22 132 22 96 55.5 c 128,-1,7
 60 89 60 89 39.5 134.5 c 128,-1,8
 19 180 19 180 19 232 c 256,9,10
 19 284 19 284 39.5 329.5 c 128,-1,11
 60 375 60 375 96.5 409 c 128,-1,12
 133 443 133 443 183 462.5 c 128,-1,13
 233 482 233 482 292 482 c 0,14,15
 397 482 397 482 468 414 c 1,16,-1
 468 467 l 1,17,-1
 868 467 l 1,18,-1
 868 426 l 1,19,-1
 550 426 l 1,20,-1
 550 270 l 1,21,-1
 797 270 l 1,22,-1
 797 229 l 1,23,-1
 550 229 l 1,24,-1
 551 40 l 1,25,-1
 868 40 l 1,26,-1
 868 0 l 1,27,-1
 468 0 l 1,0,-1
468 257 m 2,28,29
 468 297 468 297 455.5 332 c 128,-1,30
 443 367 443 367 420.5 392 c 128,-1,31
 398 417 398 417 365 431.5 c 128,-1,32
 332 446 332 446 292 446 c 0,33,34
 248 446 248 446 215 429 c 128,-1,35
 182 412 182 412 159.5 383 c 128,-1,36
 137 354 137 354 125.5 315 c 128,-1,37
 114 276 114 276 114 232 c 0,38,39
 114 187 114 187 125.5 148.5 c 128,-1,40
 137 110 137 110 159 81 c 128,-1,41
 181 52 181 52 214 35.5 c 128,-1,42
 247 19 247 19 291 19 c 0,43,44
 331 19 331 19 364 33.5 c 128,-1,45
 397 48 397 48 420 73.5 c 128,-1,46
 443 99 443 99 455.5 134 c 128,-1,47
 468 169 468 169 468 209 c 2,48,-1
 468 257 l 2,28,29
EndSplineSet
EndChar
StartChar: oe
Encoding: 339 339 196
Width: 711
Flags: W
Fore
400 202 m 1,0,1
 399 194 399 194 399.5 186.5 c 128,-1,2
 400 179 400 179 400 171 c 0,3,4
 400 145 400 145 407.5 119.5 c 128,-1,5
 415 94 415 94 429.5 74 c 128,-1,6
 444 54 444 54 465.5 41.5 c 128,-1,7
 487 29 487 29 516 29 c 0,8,9
 535 29 535 29 551.5 38 c 128,-1,10
 568 47 568 47 581.5 62 c 128,-1,11
 595 77 595 77 603.5 97 c 128,-1,12
 612 117 612 117 615 140 c 1,13,-1
 685 140 l 1,14,15
 683 103 683 103 668 74.5 c 128,-1,16
 653 46 653 46 629.5 27 c 128,-1,17
 606 8 606 8 576 -1.5 c 128,-1,18
 546 -11 546 -11 516 -11 c 0,19,20
 469 -11 469 -11 427 11.5 c 128,-1,21
 385 34 385 34 361 75 c 1,22,23
 337 32 337 32 295.5 11 c 128,-1,24
 254 -10 254 -10 209 -10 c 0,25,26
 165 -10 165 -10 130 4 c 128,-1,27
 95 18 95 18 70 43 c 128,-1,28
 45 68 45 68 31.5 101 c 128,-1,29
 18 134 18 134 18 173 c 256,30,31
 18 212 18 212 31.5 245.5 c 128,-1,32
 45 279 45 279 69.5 304 c 128,-1,33
 94 329 94 329 129.5 343 c 128,-1,34
 165 357 165 357 209 357 c 0,35,36
 254 357 254 357 293 341 c 128,-1,37
 332 325 332 325 360 281 c 1,38,39
 385 319 385 319 424 339 c 128,-1,40
 463 359 463 359 508 359 c 0,41,42
 543 359 543 359 574 349.5 c 128,-1,43
 605 340 605 340 629 320.5 c 128,-1,44
 653 301 653 301 669 271.5 c 128,-1,45
 685 242 685 242 689 202 c 1,46,-1
 400 202 l 1,0,1
504 321 m 0,47,48
 473 321 473 321 447 298 c 128,-1,49
 421 275 421 275 415 241 c 1,50,-1
 602 241 l 1,51,52
 592 281 592 281 565 301 c 128,-1,53
 538 321 538 321 504 321 c 0,47,48
209 318 m 256,54,55
 178 318 178 318 156.5 306 c 128,-1,56
 135 294 135 294 121.5 274.5 c 128,-1,57
 108 255 108 255 102 228.5 c 128,-1,58
 96 202 96 202 96 174 c 256,59,60
 96 146 96 146 102 120 c 128,-1,61
 108 94 108 94 121.5 73.5 c 128,-1,62
 135 53 135 53 157 41 c 128,-1,63
 179 29 179 29 210 29 c 256,64,65
 241 29 241 29 262.5 41 c 128,-1,66
 284 53 284 53 297.5 73 c 128,-1,67
 311 93 311 93 317 119 c 128,-1,68
 323 145 323 145 323 173 c 256,69,70
 323 201 323 201 317 227.5 c 128,-1,71
 311 254 311 254 297.5 274 c 128,-1,72
 284 294 284 294 262 306 c 128,-1,73
 240 318 240 318 209 318 c 256,54,55
EndSplineSet
EndChar
StartChar: florin
Encoding: 402 402 202
Width: 498
Flags: W
Fore
421 424 m 1,0,1
 415 443 415 443 404.5 457.5 c 128,-1,2
 394 472 394 472 379 472 c 0,3,4
 358 472 358 472 345.5 455 c 128,-1,5
 333 438 333 438 326 414 c 128,-1,6
 319 390 319 390 316.5 365 c 128,-1,7
 314 340 314 340 312 325 c 1,8,-1
 384 325 l 1,9,-1
 373 291 l 1,10,-1
 308 291 l 1,11,-1
 273 23 l 2,12,13
 268 -13 268 -13 251.5 -44 c 128,-1,14
 235 -75 235 -75 210 -97.5 c 128,-1,15
 185 -120 185 -120 152 -132.5 c 128,-1,16
 119 -145 119 -145 80 -145 c 0,17,18
 57 -145 57 -145 39 -127.5 c 128,-1,19
 21 -110 21 -110 10 -84 c 1,20,-1
 84 -68 l 1,21,22
 90 -84 90 -84 103 -95 c 128,-1,23
 116 -106 116 -106 130 -106 c 0,24,25
 145 -106 145 -106 155.5 -94.5 c 128,-1,26
 166 -83 166 -83 173 -66.5 c 128,-1,27
 180 -50 180 -50 183.5 -33 c 128,-1,28
 187 -16 187 -16 189 -4 c 2,29,-1
 228 291 l 1,30,-1
 160 291 l 1,31,-1
 171 325 l 1,32,-1
 231 325 l 1,33,34
 236 359 236 359 248.5 393 c 128,-1,35
 261 427 261 427 282.5 454 c 128,-1,36
 304 481 304 481 335.5 498 c 128,-1,37
 367 515 367 515 411 515 c 0,38,39
 431 515 431 515 453.5 498 c 128,-1,40
 476 481 476 481 493 459 c 1,41,-1
 421 424 l 1,0,1
EndSplineSet
EndChar
StartChar: circumflex
Encoding: 710 710 203
Width: 440
Flags: W
Fore
300 443 m 1,0,-1
 222 509 l 1,1,-1
 144 443 l 1,2,-1
 104 443 l 1,3,-1
 198 564 l 1,4,-1
 247 564 l 1,5,-1
 340 443 l 1,6,-1
 300 443 l 1,0,-1
EndSplineSet
EndChar
StartChar: caron
Encoding: 711 711 204
Width: 224
Flags: W
Fore
137 419 m 1,0,-1
 84 419 l 1,1,-1
 -18 540 l 1,2,-1
 26 540 l 1,3,-1
 110 474 l 1,4,-1
 196 540 l 1,5,-1
 238 540 l 1,6,-1
 137 419 l 1,0,-1
EndSplineSet
EndChar
StartChar: breve
Encoding: 728 728 205
Width: 221
Flags: W
Fore
221 533 m 1,0,1
 220 510 220 510 212.5 489 c 128,-1,2
 205 468 205 468 191 452 c 128,-1,3
 177 436 177 436 156.5 427 c 128,-1,4
 136 418 136 418 109 418 c 256,5,6
 82 418 82 418 61.5 427 c 128,-1,7
 41 436 41 436 27.5 452 c 128,-1,8
 14 468 14 468 6.5 489 c 128,-1,9
 -1 510 -1 510 -2 533 c 1,10,-1
 32 533 l 1,11,12
 40 498 40 498 57 479 c 128,-1,13
 74 460 74 460 109 460 c 256,14,15
 144 460 144 460 161 479.5 c 128,-1,16
 178 499 178 499 186 533 c 1,17,-1
 221 533 l 1,18,-1
 221 533 l 1,0,1
EndSplineSet
EndChar
StartChar: dotaccent
Encoding: 729 729 206
Width: 183
Flags: W
Fore
137 454 m 256,0,1
 137 434 137 434 123 421.5 c 128,-1,2
 109 409 109 409 91 409 c 0,3,4
 75 409 75 409 63 419 c 128,-1,5
 51 429 51 429 47 444 c 1,6,-1
 45 444 l 1,7,8
 45 471 45 471 58 485.5 c 128,-1,9
 71 500 71 500 91 500 c 256,10,11
 111 500 111 500 124 487 c 128,-1,12
 137 474 137 474 137 454 c 256,0,1
EndSplineSet
EndChar
StartChar: ring
Encoding: 730 730 207
Width: 183
Flags: W
Fore
173 492 m 0,0,1
 173 457 173 457 149.5 434 c 128,-1,2
 126 411 126 411 92 411 c 256,3,4
 58 411 58 411 34.5 434 c 128,-1,5
 11 457 11 457 11 492 c 0,6,7
 11 526 11 526 34 549.5 c 128,-1,8
 57 573 57 573 92 573 c 256,9,10
 127 573 127 573 150 549.5 c 128,-1,11
 173 526 173 526 173 492 c 0,0,1
133 492 m 256,12,13
 133 509 133 509 121 521.5 c 128,-1,14
 109 534 109 534 92 534 c 256,15,16
 75 534 75 534 62.5 521.5 c 128,-1,17
 50 509 50 509 50 492 c 0,18,19
 50 474 50 474 62.5 462 c 128,-1,20
 75 450 75 450 92 450 c 256,21,22
 109 450 109 450 121 462.5 c 128,-1,23
 133 475 133 475 133 492 c 256,12,13
EndSplineSet
EndChar
StartChar: ogonek
Encoding: 731 731 208
Width: 183
Flags: W
Fore
184 -118 m 1,0,1
 155 -140 155 -140 126 -153 c 128,-1,2
 97 -166 97 -166 65 -166 c 0,3,4
 35 -166 35 -166 13.5 -147 c 128,-1,5
 -8 -128 -8 -128 -8 -96 c 0,6,7
 -8 -70 -8 -70 10 -50.5 c 128,-1,8
 28 -31 28 -31 54.5 -17 c 128,-1,9
 81 -3 81 -3 110 6 c 128,-1,10
 139 15 139 15 162 20 c 1,11,-1
 175 2 l 1,12,13
 160 -4 160 -4 140 -12.5 c 128,-1,14
 120 -21 120 -21 102 -32 c 128,-1,15
 84 -43 84 -43 71.5 -57.5 c 128,-1,16
 59 -72 59 -72 59 -90 c 0,17,18
 59 -128 59 -128 92 -128 c 0,19,20
 107 -128 107 -128 130.5 -117 c 128,-1,21
 154 -106 154 -106 169 -91 c 1,22,-1
 184 -118 l 1,23,-1
 184 -118 l 1,0,1
EndSplineSet
EndChar
StartChar: tilde
Encoding: 732 732 209
Width: 235
Flags: W
Fore
236 521 m 1,0,1
 231 489 231 489 211.5 466.5 c 128,-1,2
 192 444 192 444 157 444 c 0,3,4
 141 444 141 444 128.5 449 c 128,-1,5
 116 454 116 454 105 460.5 c 128,-1,6
 94 467 94 467 84 472 c 128,-1,7
 74 477 74 477 64 477 c 0,8,9
 53 477 53 477 45 468 c 128,-1,10
 37 459 37 459 31 444 c 1,11,-1
 -2 444 l 1,12,13
 3 472 3 472 23 494.5 c 128,-1,14
 43 517 43 517 77 517 c 0,15,16
 92 517 92 517 105 512 c 128,-1,17
 118 507 118 507 129.5 500.5 c 128,-1,18
 141 494 141 494 151.5 489 c 128,-1,19
 162 484 162 484 171 484 c 0,20,21
 183 484 183 484 190.5 494.5 c 128,-1,22
 198 505 198 505 205 521 c 1,23,-1
 236 521 l 1,24,-1
 236 521 l 1,0,1
EndSplineSet
EndChar
StartChar: hungarumlaut
Encoding: 733 733 210
Width: 183
Flags: W
Fore
210 529 m 0,0,1
 210 517 210 517 199 506 c 2,2,-1
 100 424 l 1,3,-1
 77 424 l 1,4,-1
 151 531 l 2,5,6
 157 540 157 540 164 545.5 c 128,-1,7
 171 551 171 551 183 551 c 0,8,9
 193 551 193 551 201.5 545 c 128,-1,10
 210 539 210 539 210 529 c 0,0,1
112 529 m 1,11,12
 112 517 112 517 101 506 c 2,13,-1
 2 424 l 1,14,-1
 -21 424 l 1,15,-1
 53 531 l 2,16,17
 59 540 59 540 66 545.5 c 128,-1,18
 73 551 73 551 85 551 c 0,19,20
 95 551 95 551 103 545 c 128,-1,21
 111 539 111 539 111 529 c 1,22,-1
 112 529 l 1,11,12
EndSplineSet
EndChar
StartChar: uni0E01
Encoding: 3585 3585 212
Width: 478
Flags: W
Fore
348 0 m 1,0,-1
 348 280 l 2,1,2
 348 324 348 324 316 348 c 128,-1,3
 284 372 284 372 233 372 c 256,4,5
 182 372 182 372 147 346 c 128,-1,6
 112 320 112 320 112 275 c 1,7,-1
 175 275 l 1,8,-1
 175 249 l 1,9,10
 130 232 130 232 130 184 c 2,11,-1
 130 0 l 1,12,-1
 50 0 l 1,13,-1
 50 175 l 2,14,15
 50 186 50 186 55 198 c 128,-1,16
 60 210 60 210 69 220 c 128,-1,17
 78 230 78 230 91.5 237.5 c 128,-1,18
 105 245 105 245 122 248 c 1,19,-1
 27 248 l 1,20,21
 30 287 30 287 47.5 317 c 128,-1,22
 65 347 65 347 92.5 367 c 128,-1,23
 120 387 120 387 156 397 c 128,-1,24
 192 407 192 407 233 407 c 0,25,26
 270 407 270 407 305.5 399 c 128,-1,27
 341 391 341 391 368 374.5 c 128,-1,28
 395 358 395 358 411.5 332 c 128,-1,29
 428 306 428 306 428 270 c 2,30,-1
 428 0 l 1,31,-1
 348 0 l 1,0,-1
EndSplineSet
EndChar
StartChar: uni0E02
Encoding: 3586 3586 213
Width: 477
Flags: W
Fore
93 0 m 1,0,-1
 93 136 l 1,1,2
 112 140 112 140 137.5 150 c 128,-1,3
 163 160 163 160 185.5 177 c 128,-1,4
 208 194 208 194 223.5 217.5 c 128,-1,5
 239 241 239 241 239 272 c 0,6,7
 239 289 239 289 233.5 307 c 128,-1,8
 228 325 228 325 216 339.5 c 128,-1,9
 204 354 204 354 185 363.5 c 128,-1,10
 166 373 166 373 139 373 c 0,11,12
 122 373 122 373 108 367.5 c 128,-1,13
 94 362 94 362 90 357 c 1,14,15
 116 359 116 359 136.5 352 c 128,-1,16
 157 345 157 345 171 332.5 c 128,-1,17
 185 320 185 320 192 303 c 128,-1,18
 199 286 199 286 199 268 c 0,19,20
 199 233 199 233 172 208 c 128,-1,21
 145 183 145 183 107 183 c 0,22,23
 88 183 88 183 70 189.5 c 128,-1,24
 52 196 52 196 37.5 208.5 c 128,-1,25
 23 221 23 221 14 240 c 128,-1,26
 5 259 5 259 5 285 c 0,27,28
 5 310 5 310 16 332.5 c 128,-1,29
 27 355 27 355 46 371.5 c 128,-1,30
 65 388 65 388 91 397.5 c 128,-1,31
 117 407 117 407 148 407 c 256,32,33
 179 407 179 407 206 397 c 128,-1,34
 233 387 233 387 252 369.5 c 128,-1,35
 271 352 271 352 282 328.5 c 128,-1,36
 293 305 293 305 293 278 c 0,37,38
 293 244 293 244 280 219 c 128,-1,39
 267 194 267 194 248.5 176.5 c 128,-1,40
 230 159 230 159 209 148 c 128,-1,41
 188 137 188 137 173 132 c 1,42,-1
 173 40 l 1,43,-1
 346 40 l 1,44,-1
 346 400 l 1,45,-1
 426 400 l 1,46,-1
 426 0 l 1,47,-1
 93 0 l 1,0,-1
161 273 m 256,48,49
 161 295 161 295 145 311 c 128,-1,50
 129 327 129 327 107 327 c 256,51,52
 85 327 85 327 69 311 c 128,-1,53
 53 295 53 295 53 273 c 256,54,55
 53 251 53 251 69 235 c 128,-1,56
 85 219 85 219 107 219 c 256,57,58
 129 219 129 219 145 235 c 128,-1,59
 161 251 161 251 161 273 c 256,48,49
EndSplineSet
EndChar
StartChar: uni0E03
Encoding: 3587 3587 214
Width: 496
Flags: W
Fore
113 0 m 1,0,-1
 113 147 l 1,1,2
 130 153 130 153 155.5 164.5 c 128,-1,3
 181 176 181 176 204.5 193 c 128,-1,4
 228 210 228 210 245 234.5 c 128,-1,5
 262 259 262 259 262 291 c 0,6,7
 262 328 262 328 248 350 c 128,-1,8
 234 372 234 372 214 372 c 0,9,10
 203 372 203 372 192.5 364.5 c 128,-1,11
 182 357 182 357 174 344 c 1,12,13
 166 355 166 355 153 364 c 128,-1,14
 140 373 140 373 120 373 c 0,15,16
 104 373 104 373 92.5 365 c 128,-1,17
 81 357 81 357 76 346 c 1,18,19
 77 346 77 346 79 347 c 1,20,21
 81 347 81 347 82 347.5 c 128,-1,22
 83 348 83 348 85 348 c 0,23,24
 111 350 111 350 131.5 343 c 128,-1,25
 152 336 152 336 166 323.5 c 128,-1,26
 180 311 180 311 187 294 c 128,-1,27
 194 277 194 277 194 259 c 0,28,29
 194 224 194 224 167 199 c 128,-1,30
 140 174 140 174 102 174 c 0,31,32
 83 174 83 174 65 180.5 c 128,-1,33
 47 187 47 187 32.5 200 c 128,-1,34
 18 213 18 213 9 233.5 c 128,-1,35
 0 254 0 254 0 282 c 0,36,37
 0 309 0 309 9 332 c 128,-1,38
 18 355 18 355 33.5 371.5 c 128,-1,39
 49 388 49 388 69.5 397.5 c 128,-1,40
 90 407 90 407 114 407 c 0,41,42
 137 407 137 407 152 398.5 c 128,-1,43
 167 390 167 390 172 380 c 1,44,45
 180 391 180 391 194 399 c 128,-1,46
 208 407 208 407 227 407 c 0,47,48
 270 407 270 407 298.5 377 c 128,-1,49
 327 347 327 347 327 292 c 0,50,51
 327 258 327 258 312.5 233 c 128,-1,52
 298 208 298 208 277 190 c 128,-1,53
 256 172 256 172 233 160.5 c 128,-1,54
 210 149 210 149 193 142 c 1,55,-1
 193 40 l 1,56,-1
 366 40 l 1,57,-1
 366 400 l 1,58,-1
 446 400 l 1,59,-1
 446 0 l 1,60,-1
 113 0 l 1,0,-1
156 264 m 256,61,62
 156 286 156 286 140 302 c 128,-1,63
 124 318 124 318 102 318 c 256,64,65
 80 318 80 318 64 302 c 128,-1,66
 48 286 48 286 48 264 c 256,67,68
 48 242 48 242 64 226 c 128,-1,69
 80 210 80 210 102 210 c 256,70,71
 124 210 124 210 140 226 c 128,-1,72
 156 242 156 242 156 264 c 256,61,62
EndSplineSet
EndChar
StartChar: uni0E04
Encoding: 3588 3588 215
Width: 505
Flags: W
Fore
375 0 m 1,0,-1
 375 282 l 2,1,2
 375 322 375 322 340.5 347 c 128,-1,3
 306 372 306 372 252 372 c 0,4,5
 194 372 194 372 157.5 344 c 128,-1,6
 121 316 121 316 121 268 c 0,7,8
 121 257 121 257 122 241.5 c 128,-1,9
 123 226 123 226 124.5 209.5 c 128,-1,10
 127.5 176.5 l 128,-1,11
 129 160 129 160 129 148 c 1,12,-1
 154 229 l 2,13,14
 164 260 164 260 186 284.5 c 128,-1,15
 208 309 208 309 249 309 c 256,16,17
 290 309 290 309 315 283 c 128,-1,18
 340 257 340 257 340 219 c 256,19,20
 340 181 340 181 314.5 155 c 128,-1,21
 289 129 289 129 249 129 c 0,22,23
 229 129 229 129 211 137 c 128,-1,24
 193 145 193 145 179 157 c 1,25,-1
 128 0 l 1,26,-1
 51 0 l 1,27,28
 55 69 55 69 47.5 133 c 128,-1,29
 40 197 40 197 40 254 c 0,30,31
 40 291 40 291 57 319.5 c 128,-1,32
 74 348 74 348 103.5 367.5 c 128,-1,33
 133 387 133 387 171.5 397 c 128,-1,34
 210 407 210 407 252 407 c 256,35,36
 294 407 294 407 331 398.5 c 128,-1,37
 368 390 368 390 395.5 372.5 c 128,-1,38
 423 355 423 355 439 328 c 128,-1,39
 455 301 455 301 455 264 c 2,40,-1
 455 0 l 1,41,-1
 375 0 l 1,0,-1
303 220 m 256,42,43
 303 242 303 242 287 258 c 128,-1,44
 271 274 271 274 249 274 c 256,45,46
 227 274 227 274 211 258 c 128,-1,47
 195 242 195 242 195 220 c 256,48,49
 195 198 195 198 211 182 c 128,-1,50
 227 166 227 166 249 166 c 256,51,52
 271 166 271 166 287 182 c 128,-1,53
 303 198 303 198 303 220 c 256,42,43
EndSplineSet
EndChar
StartChar: uni0E05
Encoding: 3589 3589 216
Width: 505
Flags: W
Fore
375 0 m 1,0,-1
 375 301 l 2,1,2
 375 335 375 335 361 353.5 c 128,-1,3
 347 372 347 372 321 372 c 0,4,5
 301 372 301 372 288.5 362 c 128,-1,6
 276 352 276 352 268 338 c 1,7,-1
 239 338 l 1,8,9
 234 355 234 355 220.5 363.5 c 128,-1,10
 207 372 207 372 190 372 c 0,11,12
 155 372 155 372 138 345 c 128,-1,13
 121 318 121 318 121 276 c 0,14,15
 121 244 121 244 124 209 c 128,-1,16
 127 174 127 174 129 142 c 1,17,-1
 158 229 l 2,18,19
 169 260 169 260 190.5 284.5 c 128,-1,20
 212 309 212 309 253 309 c 256,21,22
 294 309 294 309 319 283 c 128,-1,23
 344 257 344 257 344 219 c 256,24,25
 344 181 344 181 318.5 155 c 128,-1,26
 293 129 293 129 253 129 c 0,27,28
 233 129 233 129 215 137 c 128,-1,29
 197 145 197 145 183 157 c 1,30,-1
 128 0 l 1,31,-1
 51 0 l 1,32,33
 54 42 54 42 52.5 76 c 128,-1,34
 51 110 51 110 48.5 140 c 128,-1,35
 46 170 46 170 43 199 c 128,-1,36
 40 228 40 228 40 259 c 0,37,38
 40 287 40 287 48.5 314 c 128,-1,39
 57 341 57 341 74 362 c 128,-1,40
 91 383 91 383 116.5 395.5 c 128,-1,41
 142 408 142 408 176 408 c 0,42,43
 205 408 205 408 226 397.5 c 128,-1,44
 247 387 247 387 256 370 c 1,45,46
 267 384 267 384 286.5 396 c 128,-1,47
 306 408 306 408 335 408 c 0,48,49
 386 408 386 408 420.5 379 c 128,-1,50
 455 350 455 350 455 293 c 2,51,-1
 455 0 l 1,52,-1
 375 0 l 1,0,-1
307 220 m 256,53,54
 307 242 307 242 291 258 c 128,-1,55
 275 274 275 274 253 274 c 256,56,57
 231 274 231 274 215 258 c 128,-1,58
 199 242 199 242 199 220 c 256,59,60
 199 198 199 198 215 182 c 128,-1,61
 231 166 231 166 253 166 c 256,62,63
 275 166 275 166 291 182 c 128,-1,64
 307 198 307 198 307 220 c 256,53,54
EndSplineSet
EndChar
StartChar: uni0E06
Encoding: 3590 3590 217
Width: 551
Flags: W
Fore
431 0 m 1,0,-1
 266 99 l 1,1,-1
 266 94 l 2,2,3
 266 47 266 47 237 21 c 128,-1,4
 208 -5 208 -5 156 -5 c 0,5,6
 112 -5 112 -5 84.5 20.5 c 128,-1,7
 57 46 57 46 57 83 c 0,8,9
 57 121 57 121 86.5 144.5 c 128,-1,10
 116 168 116 168 161 168 c 0,11,12
 171 168 171 168 176.5 167.5 c 128,-1,13
 182 167 182 167 186 167 c 1,14,15
 186 189 186 189 197 204.5 c 128,-1,16
 208 220 208 220 221.5 235 c 128,-1,17
 235 250 235 250 246 268.5 c 128,-1,18
 257 287 257 287 257 314 c 0,19,20
 257 338 257 338 246.5 354.5 c 128,-1,21
 236 371 236 371 219 372 c 0,22,23
 208 372 208 372 197.5 365 c 128,-1,24
 187 358 187 358 179 344 c 1,25,26
 171 355 171 355 158 364 c 128,-1,27
 145 373 145 373 125 373 c 0,28,29
 109 373 109 373 95.5 365 c 128,-1,30
 82 357 82 357 77 346 c 1,31,32
 78 346 78 346 80 347 c 1,33,34
 82 347 82 347 83 347.5 c 128,-1,35
 84 348 84 348 86 348 c 0,36,37
 111 350 111 350 130 343.5 c 128,-1,38
 149 337 149 337 162 325 c 128,-1,39
 175 313 175 313 182 297 c 128,-1,40
 189 281 189 281 189 264 c 256,41,42
 189 247 189 247 182 232.5 c 128,-1,43
 175 218 175 218 163 207 c 128,-1,44
 151 196 151 196 135.5 189.5 c 128,-1,45
 120 183 120 183 102 183 c 256,46,47
 84 183 84 183 66.5 189 c 128,-1,48
 49 195 49 195 35.5 207.5 c 128,-1,49
 22 220 22 220 13.5 240 c 128,-1,50
 5 260 5 260 5 287 c 0,51,52
 5 312 5 312 14 334 c 128,-1,53
 23 356 23 356 38.5 372.5 c 128,-1,54
 54 389 54 389 74.5 398 c 128,-1,55
 95 407 95 407 119 407 c 0,56,57
 142 407 142 407 157 398.5 c 128,-1,58
 172 390 172 390 177 380 c 1,59,60
 185 391 185 391 201.5 399 c 128,-1,61
 218 407 218 407 238 407 c 0,62,63
 277 407 277 407 304.5 385 c 128,-1,64
 332 363 332 363 332 315 c 0,65,66
 332 291 332 291 321.5 275.5 c 128,-1,67
 311 260 311 260 299 247 c 128,-1,68
 287 234 287 234 276.5 220.5 c 128,-1,69
 266 207 266 207 266 186 c 2,70,-1
 266 145 l 1,71,-1
 421 53 l 1,72,-1
 421 400 l 1,73,-1
 501 400 l 1,74,-1
 501 0 l 1,75,-1
 431 0 l 1,0,-1
153 268 m 0,76,77
 153 289 153 289 137.5 304.5 c 128,-1,78
 122 320 122 320 102 320 c 0,79,80
 81 320 81 320 65.5 304.5 c 128,-1,81
 50 289 50 289 50 268 c 0,82,83
 50 248 50 248 65.5 232.5 c 128,-1,84
 81 217 81 217 102 217 c 0,85,86
 122 217 122 217 137.5 232.5 c 128,-1,87
 153 248 153 248 153 268 c 0,76,77
186 125 m 1,88,89
 181 126 181 126 172.5 126.5 c 128,-1,90
 164 127 164 127 156 127 c 0,91,92
 134 127 134 127 118 116 c 128,-1,93
 102 105 102 105 102 82 c 0,94,95
 102 62 102 62 115.5 50 c 128,-1,96
 129 38 129 38 146 38 c 0,97,98
 162 38 162 38 174 48.5 c 128,-1,99
 186 59 186 59 186 81 c 2,100,-1
 186 125 l 1,88,89
EndSplineSet
EndChar
StartChar: uni0E07
Encoding: 3591 3591 218
Width: 438
Flags: W
Fore
191 0 m 1,0,1
 180 30 180 30 160 66 c 128,-1,2
 140 102 140 102 114.5 135.5 c 128,-1,3
 89 169 89 169 59.5 196.5 c 128,-1,4
 30 224 30 224 0 238 c 1,5,-1
 74 286 l 1,6,7
 98 272 98 272 122 244.5 c 128,-1,8
 146 217 146 217 166 182.5 c 128,-1,9
 186 148 186 148 201.5 110.5 c 128,-1,10
 217 73 217 73 225 40 c 1,11,-1
 308 40 l 1,12,-1
 308 229 l 1,13,14
 289 221 289 221 270 221 c 256,15,16
 251 221 251 221 234 228.5 c 128,-1,17
 217 236 217 236 204.5 248.5 c 128,-1,18
 192 261 192 261 184.5 278 c 128,-1,19
 177 295 177 295 177 314 c 0,20,21
 177 352 177 352 204 379.5 c 128,-1,22
 231 407 231 407 278 407 c 0,23,24
 329 407 329 407 358.5 378 c 128,-1,25
 388 349 388 349 388 298 c 2,26,-1
 388 0 l 1,27,-1
 191 0 l 1,0,1
327 314 m 256,28,29
 327 337 327 337 310 354 c 128,-1,30
 293 371 293 371 270 371 c 256,31,32
 247 371 247 371 230 354 c 128,-1,33
 213 337 213 337 213 314 c 256,34,35
 213 291 213 291 230 274 c 128,-1,36
 247 257 247 257 270 257 c 256,37,38
 293 257 293 257 310 274 c 128,-1,39
 327 291 327 291 327 314 c 256,28,29
EndSplineSet
EndChar
StartChar: uni0E08
Encoding: 3592 3592 219
Width: 456
Flags: W
Fore
416 251 m 0,0,1
 416 224 416 224 413 192.5 c 128,-1,2
 410 161 410 161 406 127.5 c 128,-1,3
 402 94 402 94 399 61 c 128,-1,4
 396 28 396 28 396 0 c 1,5,-1
 317 0 l 1,6,-1
 265 131 l 1,7,8
 252 115 252 115 233 104.5 c 128,-1,9
 214 94 214 94 188 94 c 0,10,11
 146 94 146 94 120 121 c 128,-1,12
 94 148 94 148 94 185 c 256,13,14
 94 222 94 222 120 249 c 128,-1,15
 146 276 146 276 188 276 c 0,16,17
 220 276 220 276 245 259.5 c 128,-1,18
 270 243 270 243 284 206 c 2,19,-1
 324 100 l 1,20,21
 325 131 325 131 330.5 179 c 128,-1,22
 336 227 336 227 336 278 c 0,23,24
 336 318 336 318 306 345 c 128,-1,25
 276 372 276 372 219 372 c 0,26,27
 193 372 193 372 169.5 364.5 c 128,-1,28
 146 357 146 357 127.5 341.5 c 128,-1,29
 109 326 109 326 98 303.5 c 128,-1,30
 87 281 87 281 87 251 c 1,31,-1
 0 251 l 1,32,33
 5 292 5 292 24.5 321.5 c 128,-1,34
 44 351 44 351 73.5 370 c 128,-1,35
 103 389 103 389 140.5 398 c 128,-1,36
 178 407 178 407 219 407 c 0,37,38
 313 407 313 407 364.5 365 c 128,-1,39
 416 323 416 323 416 251 c 0,0,1
245 184 m 256,40,41
 245 207 245 207 228.5 224 c 128,-1,42
 212 241 212 241 188 241 c 256,43,44
 164 241 164 241 147.5 224 c 128,-1,45
 131 207 131 207 131 184 c 256,46,47
 131 161 131 161 147.5 144 c 128,-1,48
 164 127 164 127 188 127 c 256,49,50
 212 127 212 127 228.5 144 c 128,-1,51
 245 161 245 161 245 184 c 256,40,41
EndSplineSet
EndChar
StartChar: uni0E09
Encoding: 3593 3593 220
Width: 520
Flags: W
Fore
496 86 m 0,0,1
 496 66 496 66 488 49 c 128,-1,2
 480 32 480 32 466.5 19.5 c 128,-1,3
 453 7 453 7 434.5 -0.5 c 128,-1,4
 416 -8 416 -8 395 -8 c 0,5,6
 375 -8 375 -8 356.5 -0.5 c 128,-1,7
 338 7 338 7 324.5 19.5 c 128,-1,8
 311 32 311 32 302.5 48.5 c 128,-1,9
 294 65 294 65 293 84 c 1,10,11
 268 67 268 67 247 46 c 128,-1,12
 226 25 226 25 206 0 c 1,13,-1
 131 0 l 1,14,-1
 131 77 l 1,15,16
 112 69 112 69 93 69 c 256,17,18
 74 69 74 69 57 76.5 c 128,-1,19
 40 84 40 84 27.5 96.5 c 128,-1,20
 15 109 15 109 7.5 126 c 128,-1,21
 0 143 0 143 0 162 c 0,22,23
 0 200 0 200 27 227.5 c 128,-1,24
 54 255 54 255 101 255 c 0,25,26
 152 255 152 255 181.5 226 c 128,-1,27
 211 197 211 197 211 146 c 2,28,-1
 211 72 l 1,29,30
 248 104 248 104 293 137 c 128,-1,31
 338 170 338 170 390 186 c 1,32,-1
 390 280 l 2,33,34
 390 320 390 320 355 346 c 128,-1,35
 320 372 320 372 252 372 c 0,36,37
 216 372 216 372 190 364 c 128,-1,38
 164 356 164 356 146 342.5 c 128,-1,39
 128 329 128 329 118 311.5 c 128,-1,40
 108 294 108 294 104 275 c 1,41,-1
 22 275 l 1,42,43
 39 335 39 335 95 371 c 128,-1,44
 151 407 151 407 252 407 c 0,45,46
 352 407 352 407 411 372 c 128,-1,47
 470 337 470 337 470 264 c 2,48,-1
 470 181 l 1,49,50
 461 178 461 178 454.5 175 c 128,-1,51
 448 172 448 172 440 167 c 1,52,53
 463 159 463 159 479.5 135.5 c 128,-1,54
 496 112 496 112 496 86 c 0,0,1
452 86 m 256,55,56
 452 109 452 109 435 126 c 128,-1,57
 418 143 418 143 395 143 c 256,58,59
 372 143 372 143 355 126 c 128,-1,60
 338 109 338 109 338 86 c 256,61,62
 338 63 338 63 355 46 c 128,-1,63
 372 29 372 29 395 29 c 256,64,65
 418 29 418 29 435 46 c 128,-1,66
 452 63 452 63 452 86 c 256,55,56
150 162 m 256,67,68
 150 185 150 185 133 202 c 128,-1,69
 116 219 116 219 93 219 c 256,70,71
 70 219 70 219 53 202 c 128,-1,72
 36 185 36 185 36 162 c 256,73,74
 36 139 36 139 53 122 c 128,-1,75
 70 105 70 105 93 105 c 256,76,77
 116 105 116 105 133 122 c 128,-1,78
 150 139 150 139 150 162 c 256,67,68
EndSplineSet
EndChar
StartChar: uni0E0A
Encoding: 3594 3594 221
Width: 486
Flags: W
Fore
456 400 m 1,0,1
 452 376 452 376 427.5 349 c 128,-1,2
 403 322 403 322 368 311 c 1,3,4
 401 303 401 303 418.5 282.5 c 128,-1,5
 436 262 436 262 436 238 c 2,6,-1
 436 0 l 1,7,-1
 93 0 l 1,8,-1
 93 136 l 1,9,10
 112 140 112 140 137.5 150 c 128,-1,11
 163 160 163 160 185.5 177 c 128,-1,12
 208 194 208 194 223.5 217.5 c 128,-1,13
 239 241 239 241 239 272 c 0,14,15
 239 289 239 289 233.5 307 c 128,-1,16
 228 325 228 325 216 339.5 c 128,-1,17
 204 354 204 354 185 363.5 c 128,-1,18
 166 373 166 373 139 373 c 0,19,20
 122 373 122 373 108 367.5 c 128,-1,21
 94 362 94 362 90 357 c 1,22,23
 116 359 116 359 136.5 352 c 128,-1,24
 157 345 157 345 171 332.5 c 128,-1,25
 185 320 185 320 192 303 c 128,-1,26
 199 286 199 286 199 268 c 0,27,28
 199 233 199 233 172 208 c 128,-1,29
 145 183 145 183 107 183 c 0,30,31
 88 183 88 183 70 189.5 c 128,-1,32
 52 196 52 196 37.5 208.5 c 128,-1,33
 23 221 23 221 14 240 c 128,-1,34
 5 259 5 259 5 285 c 0,35,36
 5 310 5 310 16 332.5 c 128,-1,37
 27 355 27 355 46 371.5 c 128,-1,38
 65 388 65 388 91 397.5 c 128,-1,39
 117 407 117 407 148 407 c 256,40,41
 179 407 179 407 206 397 c 128,-1,42
 233 387 233 387 252 369.5 c 128,-1,43
 271 352 271 352 282 328.5 c 128,-1,44
 293 305 293 305 293 278 c 0,45,46
 293 244 293 244 280 219 c 128,-1,47
 267 194 267 194 248.5 176.5 c 128,-1,48
 230 159 230 159 209 148 c 128,-1,49
 188 137 188 137 173 132 c 1,50,-1
 173 40 l 1,51,-1
 356 40 l 1,52,-1
 356 241 l 2,53,54
 356 261 356 261 345.5 280 c 128,-1,55
 335 299 335 299 303 309 c 1,56,57
 321 316 321 316 332.5 327.5 c 128,-1,58
 344 339 344 339 351 352 c 128,-1,59
 358 365 358 365 361 377.5 c 128,-1,60
 364 390 364 390 364 400 c 1,61,-1
 456 400 l 1,0,1
161 273 m 256,62,63
 161 295 161 295 145 311 c 128,-1,64
 129 327 129 327 107 327 c 256,65,66
 85 327 85 327 69 311 c 128,-1,67
 53 295 53 295 53 273 c 256,68,69
 53 251 53 251 69 235 c 128,-1,70
 85 219 85 219 107 219 c 256,71,72
 129 219 129 219 145 235 c 128,-1,73
 161 251 161 251 161 273 c 256,62,63
EndSplineSet
EndChar
StartChar: uni0E0B
Encoding: 3595 3595 222
Width: 516
Flags: W
Fore
486 400 m 1,0,1
 482 376 482 376 457.5 349 c 128,-1,2
 433 322 433 322 398 311 c 1,3,4
 431 303 431 303 448.5 282.5 c 128,-1,5
 466 262 466 262 466 238 c 2,6,-1
 466 0 l 1,7,-1
 113 0 l 1,8,-1
 113 147 l 1,9,10
 130 153 130 153 155.5 164.5 c 128,-1,11
 181 176 181 176 204.5 193 c 128,-1,12
 228 210 228 210 245 234.5 c 128,-1,13
 262 259 262 259 262 291 c 0,14,15
 262 328 262 328 248 350 c 128,-1,16
 234 372 234 372 214 372 c 0,17,18
 203 372 203 372 192.5 364.5 c 128,-1,19
 182 357 182 357 174 344 c 1,20,21
 166 355 166 355 153 364 c 128,-1,22
 140 373 140 373 120 373 c 0,23,24
 104 373 104 373 92.5 365 c 128,-1,25
 81 357 81 357 76 346 c 1,26,27
 77 346 77 346 79 347 c 1,28,29
 81 347 81 347 82 347.5 c 128,-1,30
 83 348 83 348 85 348 c 0,31,32
 111 350 111 350 131.5 343 c 128,-1,33
 152 336 152 336 166 323.5 c 128,-1,34
 180 311 180 311 187 294 c 128,-1,35
 194 277 194 277 194 259 c 0,36,37
 194 224 194 224 167 199 c 128,-1,38
 140 174 140 174 102 174 c 0,39,40
 83 174 83 174 65 180.5 c 128,-1,41
 47 187 47 187 32.5 200 c 128,-1,42
 18 213 18 213 9 233.5 c 128,-1,43
 0 254 0 254 0 282 c 0,44,45
 0 309 0 309 9 332 c 128,-1,46
 18 355 18 355 33.5 371.5 c 128,-1,47
 49 388 49 388 69.5 397.5 c 128,-1,48
 90 407 90 407 114 407 c 0,49,50
 137 407 137 407 152 398.5 c 128,-1,51
 167 390 167 390 172 380 c 1,52,53
 180 391 180 391 194 399 c 128,-1,54
 208 407 208 407 227 407 c 0,55,56
 270 407 270 407 298.5 377 c 128,-1,57
 327 347 327 347 327 292 c 0,58,59
 327 258 327 258 312.5 233 c 128,-1,60
 298 208 298 208 277 190 c 128,-1,61
 256 172 256 172 233 160.5 c 128,-1,62
 210 149 210 149 193 142 c 1,63,-1
 193 40 l 1,64,-1
 386 40 l 1,65,-1
 386 241 l 2,66,67
 386 261 386 261 375.5 280 c 128,-1,68
 365 299 365 299 333 309 c 1,69,70
 351 316 351 316 362.5 327.5 c 128,-1,71
 374 339 374 339 381 352 c 128,-1,72
 388 365 388 365 391 377.5 c 128,-1,73
 394 390 394 390 394 400 c 1,74,-1
 486 400 l 1,0,1
156 264 m 256,75,76
 156 286 156 286 140 302 c 128,-1,77
 124 318 124 318 102 318 c 256,78,79
 80 318 80 318 64 302 c 128,-1,80
 48 286 48 286 48 264 c 256,81,82
 48 242 48 242 64 226 c 128,-1,83
 80 210 80 210 102 210 c 256,84,85
 124 210 124 210 140 226 c 128,-1,86
 156 242 156 242 156 264 c 256,75,76
EndSplineSet
EndChar
StartChar: uni0E0C
Encoding: 3596 3596 223
Width: 712
Flags: W
Fore
588 0 m 1,0,1
 580 9 580 9 569 20 c 128,-1,2
 558 31 558 31 546.5 42 c 128,-1,3
 535 53 535 53 524 63 c 128,-1,4
 513 73 513 73 504 80 c 1,5,6
 504 45 504 45 476.5 19 c 128,-1,7
 449 -7 449 -7 408 -7 c 0,8,9
 388 -7 388 -7 370.5 0 c 128,-1,10
 353 7 353 7 339.5 19.5 c 128,-1,11
 326 32 326 32 318.5 48.5 c 128,-1,12
 311 65 311 65 311 83 c 0,13,14
 311 108 311 108 323 130.5 c 128,-1,15
 335 153 335 153 359 164 c 1,16,17
 357 165 357 165 355.5 166 c 128,-1,18
 354 167 354 167 352 168 c 2,19,-1
 348 170 l 1,20,-1
 348 280 l 2,21,22
 348 324 348 324 316 348 c 128,-1,23
 284 372 284 372 233 372 c 256,24,25
 182 372 182 372 147 346 c 128,-1,26
 112 320 112 320 112 275 c 1,27,-1
 175 275 l 1,28,-1
 175 249 l 1,29,30
 130 232 130 232 130 184 c 2,31,-1
 130 173 l 1,32,33
 149 181 149 181 168 181 c 256,34,35
 187 181 187 181 204 173.5 c 128,-1,36
 221 166 221 166 233.5 153.5 c 128,-1,37
 246 141 246 141 253.5 124 c 128,-1,38
 261 107 261 107 261 88 c 0,39,40
 261 50 261 50 234 22.5 c 128,-1,41
 207 -5 207 -5 160 -5 c 0,42,43
 109 -5 109 -5 79.5 24 c 128,-1,44
 50 53 50 53 50 104 c 2,45,-1
 50 175 l 2,46,47
 50 186 50 186 55 198 c 128,-1,48
 60 210 60 210 69 220 c 128,-1,49
 78 230 78 230 91.5 237.5 c 128,-1,50
 105 245 105 245 122 248 c 1,51,-1
 27 248 l 1,52,53
 30 287 30 287 47.5 317 c 128,-1,54
 65 347 65 347 92.5 367 c 128,-1,55
 120 387 120 387 156 397 c 128,-1,56
 192 407 192 407 233 407 c 0,57,58
 270 407 270 407 305.5 399 c 128,-1,59
 341 391 341 391 368 374.5 c 128,-1,60
 395 358 395 358 411.5 332 c 128,-1,61
 428 306 428 306 428 270 c 2,62,-1
 428 179 l 1,63,64
 447 171 447 171 469 157.5 c 128,-1,65
 491 144 491 144 512 128 c 128,-1,66
 533 112 533 112 551.5 96 c 128,-1,67
 570 80 570 80 582 67 c 1,68,-1
 582 400 l 1,69,-1
 662 400 l 1,70,-1
 662 0 l 1,71,-1
 588 0 l 1,0,1
465 86 m 256,72,73
 465 109 465 109 448 126 c 128,-1,74
 431 143 431 143 408 143 c 256,75,76
 385 143 385 143 368 126 c 128,-1,77
 351 109 351 109 351 86 c 256,78,79
 351 63 351 63 368 46 c 128,-1,80
 385 29 385 29 408 29 c 256,81,82
 431 29 431 29 448 46 c 128,-1,83
 465 63 465 63 465 86 c 256,72,73
225 88 m 256,84,85
 225 111 225 111 208 128 c 128,-1,86
 191 145 191 145 168 145 c 256,87,88
 145 145 145 145 128 128 c 128,-1,89
 111 111 111 111 111 88 c 256,90,91
 111 65 111 65 128 48 c 128,-1,92
 145 31 145 31 168 31 c 256,93,94
 191 31 191 31 208 48 c 128,-1,95
 225 65 225 65 225 88 c 256,84,85
EndSplineSet
EndChar
StartChar: uni0E0D
Encoding: 3597 3597 224
Width: 708
Flags: W
Fore
348 0 m 1,0,-1
 348 280 l 2,1,2
 348 324 348 324 316 348 c 128,-1,3
 284 372 284 372 233 372 c 256,4,5
 182 372 182 372 147 346 c 128,-1,6
 112 320 112 320 112 275 c 1,7,-1
 175 275 l 1,8,-1
 175 249 l 1,9,10
 130 232 130 232 130 184 c 2,11,-1
 130 173 l 1,12,13
 149 181 149 181 168 181 c 256,14,15
 187 181 187 181 204 173.5 c 128,-1,16
 221 166 221 166 233.5 153.5 c 128,-1,17
 246 141 246 141 253.5 124 c 128,-1,18
 261 107 261 107 261 88 c 0,19,20
 261 50 261 50 234 22.5 c 128,-1,21
 207 -5 207 -5 160 -5 c 0,22,23
 109 -5 109 -5 79.5 24 c 128,-1,24
 50 53 50 53 50 104 c 2,25,-1
 50 175 l 2,26,27
 50 186 50 186 55 198 c 128,-1,28
 60 210 60 210 69 220 c 128,-1,29
 78 230 78 230 91.5 237.5 c 128,-1,30
 105 245 105 245 122 248 c 1,31,-1
 27 248 l 1,32,33
 30 287 30 287 47.5 317 c 128,-1,34
 65 347 65 347 92.5 367 c 128,-1,35
 120 387 120 387 156 397 c 128,-1,36
 192 407 192 407 233 407 c 0,37,38
 270 407 270 407 305.5 399 c 128,-1,39
 341 391 341 391 368 374.5 c 128,-1,40
 395 358 395 358 411.5 332 c 128,-1,41
 428 306 428 306 428 270 c 2,42,-1
 428 40 l 1,43,-1
 577 40 l 1,44,-1
 577 400 l 1,45,-1
 657 400 l 1,46,-1
 657 0 l 1,47,-1
 348 0 l 1,0,-1
651 -32 m 1,48,49
 649 -64 649 -64 636 -94.5 c 128,-1,50
 623 -125 623 -125 600 -149 c 128,-1,51
 577 -173 577 -173 543 -188 c 128,-1,52
 509 -203 509 -203 465 -203 c 0,53,54
 406 -203 406 -203 372.5 -178 c 128,-1,55
 339 -153 339 -153 339 -108 c 0,56,57
 339 -71 339 -71 366 -45.5 c 128,-1,58
 393 -20 393 -20 431 -20 c 256,59,60
 469 -20 469 -20 496 -44 c 128,-1,61
 523 -68 523 -68 523 -108 c 0,62,63
 523 -124 523 -124 519 -139.5 c 128,-1,64
 515 -155 515 -155 507 -164 c 1,65,66
 527 -159 527 -159 541 -144.5 c 128,-1,67
 555 -130 555 -130 563.5 -111 c 128,-1,68
 572 -92 572 -92 574.5 -71 c 128,-1,69
 577 -50 577 -50 574 -32 c 1,70,-1
 651 -32 l 1,48,49
487 -108 m 256,71,72
 487 -84 487 -84 470.5 -67.5 c 128,-1,73
 454 -51 454 -51 430 -51 c 256,74,75
 406 -51 406 -51 389.5 -67.5 c 128,-1,76
 373 -84 373 -84 373 -108 c 256,77,78
 373 -132 373 -132 389.5 -148.5 c 128,-1,79
 406 -165 406 -165 430 -165 c 256,80,81
 454 -165 454 -165 470.5 -148.5 c 128,-1,82
 487 -132 487 -132 487 -108 c 256,71,72
225 88 m 256,83,84
 225 111 225 111 208 128 c 128,-1,85
 191 145 191 145 168 145 c 256,86,87
 145 145 145 145 128 128 c 128,-1,88
 111 111 111 111 111 88 c 256,89,90
 111 65 111 65 128 48 c 128,-1,91
 145 31 145 31 168 31 c 256,92,93
 191 31 191 31 208 48 c 128,-1,94
 225 65 225 65 225 88 c 256,83,84
EndSplineSet
Substitution: 0 65534 'L025' uni0E0D.alt1
Substitution: 0 65534 'L025' uni0E0D.alt1
EndChar
StartChar: uni0E0E
Encoding: 3598 3598 225
Width: 570
Flags: W
Fore
434 -170 m 1,0,1
 402 -150 402 -150 377.5 -136 c 128,-1,2
 353 -122 353 -122 327 -109 c 1,3,4
 314 -117 314 -117 300 -128.5 c 128,-1,5
 286 -140 286 -140 268.5 -150.5 c 128,-1,6
 251 -161 251 -161 228.5 -168.5 c 128,-1,7
 206 -176 206 -176 176 -176 c 0,8,9
 130 -176 130 -176 97.5 -157.5 c 128,-1,10
 65 -139 65 -139 65 -107 c 0,11,12
 65 -88 65 -88 75.5 -73.5 c 128,-1,13
 86 -59 86 -59 103.5 -48.5 c 128,-1,14
 121 -38 121 -38 144 -32.5 c 128,-1,15
 167 -27 167 -27 192 -27 c 0,16,17
 238 -27 238 -27 267.5 -37.5 c 128,-1,18
 297 -48 297 -48 321 -59 c 1,19,20
 336 -50 336 -50 357 -43.5 c 128,-1,21
 378 -37 378 -37 411 -32 c 1,22,-1
 411 -75 l 1,23,24
 401 -76 401 -76 389.5 -79 c 128,-1,25
 378 -82 378 -82 371 -84 c 1,26,27
 382 -89 382 -89 394 -95 c 128,-1,28
 406 -101 406 -101 416 -107 c 0,29,30
 427 -114 427 -114 439 -121 c 1,31,-1
 439 280 l 2,32,33
 439 324 439 324 407 348 c 128,-1,34
 375 372 375 372 324 372 c 256,35,36
 273 372 273 372 238 346 c 128,-1,37
 203 320 203 320 203 275 c 1,38,-1
 266 275 l 1,39,-1
 266 249 l 1,40,41
 221 232 221 232 221 184 c 2,42,-1
 221 106 l 2,43,44
 221 55 221 55 190 25 c 128,-1,45
 159 -5 159 -5 108 -5 c 0,46,47
 63 -5 63 -5 36.5 23 c 128,-1,48
 10 51 10 51 10 88 c 0,49,50
 10 107 10 107 17.5 123.5 c 128,-1,51
 25 140 25 140 37.5 152.5 c 128,-1,52
 50 165 50 165 67 172 c 128,-1,53
 84 179 84 179 103 179 c 0,54,55
 113 179 113 179 123 178 c 128,-1,56
 133 177 133 177 141 174 c 1,57,-1
 141 183 l 2,58,59
 141 205 141 205 161 222.5 c 128,-1,60
 181 240 181 240 213 248 c 1,61,-1
 118 248 l 1,62,63
 121 287 121 287 138.5 317 c 128,-1,64
 156 347 156 347 183.5 367 c 128,-1,65
 211 387 211 387 247 397 c 128,-1,66
 283 407 283 407 324 407 c 0,67,68
 361 407 361 407 396.5 399 c 128,-1,69
 432 391 432 391 459 374.5 c 128,-1,70
 486 358 486 358 502.5 332 c 128,-1,71
 519 306 519 306 519 270 c 2,72,-1
 519 -170 l 1,73,-1
 434 -170 l 1,0,1
160 88 m 256,74,75
 160 111 160 111 143 128 c 128,-1,76
 126 145 126 145 103 145 c 256,77,78
 80 145 80 145 63 128 c 128,-1,79
 46 111 46 111 46 88 c 256,80,81
 46 65 46 65 63 48 c 128,-1,82
 80 31 80 31 103 31 c 256,83,84
 126 31 126 31 143 48 c 128,-1,85
 160 65 160 65 160 88 c 256,74,75
284 -88 m 1,86,87
 263 -77 263 -77 240 -72 c 128,-1,88
 217 -67 217 -67 195 -67 c 0,89,90
 171 -67 171 -67 154 -78 c 128,-1,91
 137 -89 137 -89 137 -106 c 256,92,93
 137 -123 137 -123 153 -131 c 128,-1,94
 169 -139 169 -139 186 -139 c 0,95,96
 214 -139 214 -139 237.5 -123.5 c 128,-1,97
 261 -108 261 -108 284 -88 c 1,86,87
EndSplineSet
Substitution: 0 65534 'L025' uni0E0E.alt1
Substitution: 0 65534 'L025' uni0E0E.alt1
EndChar
StartChar: uni0E0F
Encoding: 3599 3599 226
Width: 570
Flags: W
Fore
437 -170 m 1,0,-1
 373 -112 l 1,1,-1
 304 -178 l 1,2,3
 285 -158 285 -158 270 -144 c 128,-1,4
 255 -130 255 -130 240 -117 c 1,5,6
 228 -128 228 -128 215 -139.5 c 128,-1,7
 202 -151 202 -151 186.5 -160.5 c 128,-1,8
 171 -170 171 -170 152.5 -176 c 128,-1,9
 134 -182 134 -182 111 -182 c 0,10,11
 93 -182 93 -182 74.5 -177.5 c 128,-1,12
 56 -173 56 -173 41.5 -164 c 128,-1,13
 27 -155 27 -155 18 -141.5 c 128,-1,14
 9 -128 9 -128 9 -109 c 0,15,16
 9 -88 9 -88 19.5 -73 c 128,-1,17
 30 -58 30 -58 47.5 -48 c 128,-1,18
 65 -38 65 -38 86 -33.5 c 128,-1,19
 107 -29 107 -29 128 -29 c 0,20,21
 160 -29 160 -29 186.5 -37.5 c 128,-1,22
 213 -46 213 -46 238 -60 c 1,23,24
 249 -51 249 -51 263.5 -42 c 128,-1,25
 278 -33 278 -33 304 -28 c 1,26,-1
 304 -72 l 1,27,28
 296 -74 296 -74 287.5 -78 c 128,-1,29
 279 -82 279 -82 274 -85 c 1,30,31
 282 -92 282 -92 292 -100 c 128,-1,32
 302 -108 302 -108 308 -114 c 1,33,-1
 373 -56 l 1,34,-1
 439 -113 l 1,35,-1
 439 280 l 2,36,37
 439 324 439 324 407 348 c 128,-1,38
 375 372 375 372 324 372 c 256,39,40
 273 372 273 372 238 346 c 128,-1,41
 203 320 203 320 203 275 c 1,42,-1
 266 275 l 1,43,-1
 266 249 l 1,44,45
 221 232 221 232 221 184 c 2,46,-1
 221 106 l 2,47,48
 221 55 221 55 190 25 c 128,-1,49
 159 -5 159 -5 108 -5 c 0,50,51
 63 -5 63 -5 36.5 23 c 128,-1,52
 10 51 10 51 10 88 c 0,53,54
 10 107 10 107 17.5 123.5 c 128,-1,55
 25 140 25 140 37.5 152.5 c 128,-1,56
 50 165 50 165 67 172 c 128,-1,57
 84 179 84 179 103 179 c 0,58,59
 113 179 113 179 123 178 c 128,-1,60
 133 177 133 177 141 174 c 1,61,-1
 141 183 l 2,62,63
 141 205 141 205 161 222.5 c 128,-1,64
 181 240 181 240 213 248 c 1,65,-1
 118 248 l 1,66,67
 121 287 121 287 138.5 317 c 128,-1,68
 156 347 156 347 183.5 367 c 128,-1,69
 211 387 211 387 247 397 c 128,-1,70
 283 407 283 407 324 407 c 0,71,72
 361 407 361 407 396.5 399 c 128,-1,73
 432 391 432 391 459 374.5 c 128,-1,74
 486 358 486 358 502.5 332 c 128,-1,75
 519 306 519 306 519 270 c 2,76,-1
 519 -170 l 1,77,-1
 437 -170 l 1,0,-1
160 88 m 256,78,79
 160 111 160 111 143 128 c 128,-1,80
 126 145 126 145 103 145 c 256,81,82
 80 145 80 145 63 128 c 128,-1,83
 46 111 46 111 46 88 c 256,84,85
 46 65 46 65 63 48 c 128,-1,86
 80 31 80 31 103 31 c 256,87,88
 126 31 126 31 143 48 c 128,-1,89
 160 65 160 65 160 88 c 256,78,79
208 -94 m 1,90,91
 186 -80 186 -80 167 -74 c 128,-1,92
 148 -68 148 -68 126 -68 c 256,93,94
 104 -68 104 -68 86 -78.5 c 128,-1,95
 68 -89 68 -89 68 -109 c 0,96,97
 68 -126 68 -126 82.5 -134.5 c 128,-1,98
 97 -143 97 -143 117 -143 c 0,99,100
 146 -143 146 -143 165.5 -129 c 128,-1,101
 185 -115 185 -115 208 -94 c 1,90,91
EndSplineSet
Substitution: 0 65534 'L025' uni0E0F.alt1
Substitution: 0 65534 'L025' uni0E0F.alt1
EndChar
StartChar: uni0E10
Encoding: 3600 3600 227
Width: 434
Flags: W
Fore
411 400 m 1,0,1
 405 361 405 361 377 343 c 128,-1,2
 349 325 349 325 311 325 c 0,3,4
 288 325 288 325 271.5 331 c 128,-1,5
 255 337 255 337 239.5 344.5 c 128,-1,6
 224 352 224 352 208.5 358 c 128,-1,7
 193 364 193 364 174 364 c 0,8,9
 140 364 140 364 119.5 341 c 128,-1,10
 99 318 99 318 99 291 c 1,11,-1
 393 291 l 1,12,13
 394 252 394 252 390 214 c 128,-1,14
 386 176 386 176 381.5 139.5 c 128,-1,15
 377 103 377 103 373.5 68 c 128,-1,16
 370 33 370 33 372 0 c 1,17,-1
 297 0 l 1,18,-1
 227 123 l 1,19,20
 222 107 222 107 211.5 95.5 c 128,-1,21
 201 84 201 84 188.5 76.5 c 128,-1,22
 176 69 176 69 162.5 65.5 c 128,-1,23
 149 62 149 62 137 62 c 0,24,25
 96 62 96 62 68 89 c 128,-1,26
 40 116 40 116 40 154 c 0,27,28
 40 173 40 173 47.5 189.5 c 128,-1,29
 55 206 55 206 67.5 218.5 c 128,-1,30
 80 231 80 231 98 238.5 c 128,-1,31
 116 246 116 246 137 246 c 0,32,33
 166 246 166 246 192 233.5 c 128,-1,34
 218 221 218 221 238 186 c 2,35,-1
 296 82 l 1,36,37
 294 99 294 99 296.5 120.5 c 128,-1,38
 299 142 299 142 302 165 c 128,-1,39
 305 188 305 188 308 212 c 128,-1,40
 311 236 311 236 311 259 c 1,41,-1
 5 259 l 1,42,43
 5 295 5 295 15.5 322 c 128,-1,44
 26 349 26 349 44.5 367.5 c 128,-1,45
 63 386 63 386 88 395.5 c 128,-1,46
 113 405 113 405 143 405 c 256,47,48
 173 405 173 405 192.5 398.5 c 128,-1,49
 212 392 212 392 227 384 c 128,-1,50
 242 376 242 376 254.5 369.5 c 128,-1,51
 267 363 267 363 282 363 c 0,52,53
 296 363 296 363 307.5 373 c 128,-1,54
 319 383 319 383 319 400 c 1,55,-1
 411 400 l 1,0,1
391 -91 m 0,56,57
 391 -126 391 -126 362 -148.5 c 128,-1,58
 333 -171 333 -171 293 -171 c 0,59,60
 264 -171 264 -171 240 -161.5 c 128,-1,61
 216 -152 216 -152 200 -139 c 1,62,63
 197 -144 197 -144 193 -148.5 c 128,-1,64
 189 -153 189 -153 186 -157 c 2,65,66
 182 -161 182 -161 178 -166 c 1,67,-1
 144 -166 l 1,68,69
 133 -146 133 -146 125 -136 c 1,70,71
 109 -149 109 -149 87.5 -157 c 128,-1,72
 66 -165 66 -165 45 -165 c 0,73,74
 14 -165 14 -165 -10.5 -150 c 128,-1,75
 -35 -135 -35 -135 -35 -107 c 0,76,77
 -35 -82 -35 -82 -11.5 -65.5 c 128,-1,78
 12 -49 12 -49 46 -49 c 0,79,80
 68 -49 68 -49 89.5 -56.5 c 128,-1,81
 111 -64 111 -64 124 -76 c 1,82,83
 130 -66 130 -66 135 -55.5 c 128,-1,84
 140 -45 140 -45 142 -33 c 1,85,-1
 186 -33 l 1,86,87
 182 -53 182 -53 173 -74 c 128,-1,88
 164 -95 164 -95 154 -106 c 1,89,90
 156 -109 156 -109 159.5 -114 c 128,-1,91
 163 -119 163 -119 166 -124 c 1,92,93
 171 -119 171 -119 179.5 -108.5 c 128,-1,94
 188 -98 188 -98 196 -87 c 1,95,96
 207 -104 207 -104 229 -119 c 128,-1,97
 251 -134 251 -134 276 -137 c 1,98,99
 257 -129 257 -129 245.5 -114 c 128,-1,100
 234 -99 234 -99 234 -82 c 0,101,102
 234 -56 234 -56 256.5 -38 c 128,-1,103
 279 -20 279 -20 311 -20 c 256,104,105
 343 -20 343 -20 367 -39 c 128,-1,106
 391 -58 391 -58 391 -91 c 0,56,57
202 154 m 256,107,108
 202 179 202 179 183.5 198 c 128,-1,109
 165 217 165 217 139 217 c 256,110,111
 113 217 113 217 94.5 198 c 128,-1,112
 76 179 76 179 76 154 c 256,113,114
 76 129 76 129 94.5 110 c 128,-1,115
 113 91 113 91 139 91 c 256,116,117
 165 91 165 91 183.5 110 c 128,-1,118
 202 129 202 129 202 154 c 256,107,108
351 -84 m 256,119,120
 351 -69 351 -69 339.5 -59 c 128,-1,121
 328 -49 328 -49 311 -49 c 256,122,123
 294 -49 294 -49 282.5 -59 c 128,-1,124
 271 -69 271 -69 271 -84 c 256,125,126
 271 -99 271 -99 282.5 -109 c 128,-1,127
 294 -119 294 -119 311 -119 c 256,128,129
 328 -119 328 -119 339.5 -109 c 128,-1,130
 351 -99 351 -99 351 -84 c 256,119,120
104 -107 m 1,131,132
 93 -95 93 -95 79 -87 c 128,-1,133
 65 -79 65 -79 47 -79 c 0,134,135
 33 -79 33 -79 22 -87 c 128,-1,136
 11 -95 11 -95 11 -107 c 0,137,138
 11 -121 11 -121 22.5 -128 c 128,-1,139
 34 -135 34 -135 49 -135 c 0,140,141
 65 -135 65 -135 78.5 -127 c 128,-1,142
 92 -119 92 -119 104 -107 c 1,131,132
EndSplineSet
Substitution: 0 65534 'L025' uni0E10.alt1
Substitution: 0 65534 'L025' uni0E10.alt1
EndChar
StartChar: uni0E11
Encoding: 3601 3601 228
Width: 594
Flags: W
Fore
464 0 m 1,0,-1
 464 329 l 1,1,-1
 245 0 l 1,2,-1
 171 0 l 1,3,-1
 171 164 l 2,4,5
 171 186 171 186 183.5 200.5 c 128,-1,6
 196 215 196 215 211.5 230 c 128,-1,7
 227 245 227 245 239.5 264 c 128,-1,8
 252 283 252 283 252 315 c 0,9,10
 252 339 252 339 241.5 355.5 c 128,-1,11
 231 372 231 372 214 373 c 0,12,13
 203 373 203 373 192.5 366 c 128,-1,14
 182 359 182 359 174 345 c 1,15,16
 166 356 166 356 153 365 c 128,-1,17
 140 374 140 374 120 374 c 0,18,19
 104 374 104 374 90.5 366 c 128,-1,20
 77 358 77 358 72 347 c 1,21,22
 73 347 73 347 75 348 c 1,23,24
 77 348 77 348 78 348.5 c 128,-1,25
 79 349 79 349 81 349 c 0,26,27
 106 351 106 351 125 344.5 c 128,-1,28
 144 338 144 338 157 326 c 128,-1,29
 170 314 170 314 177 298 c 128,-1,30
 184 282 184 282 184 265 c 256,31,32
 184 248 184 248 177 233.5 c 128,-1,33
 170 219 170 219 158 208 c 128,-1,34
 146 197 146 197 130.5 190.5 c 128,-1,35
 115 184 115 184 97 184 c 256,36,37
 79 184 79 184 61.5 190 c 128,-1,38
 44 196 44 196 30.5 208.5 c 128,-1,39
 17 221 17 221 8.5 241 c 128,-1,40
 0 261 0 261 0 288 c 0,41,42
 0 313 0 313 9 335 c 128,-1,43
 18 357 18 357 33.5 373.5 c 128,-1,44
 49 390 49 390 69.5 399 c 128,-1,45
 90 408 90 408 114 408 c 0,46,47
 137 408 137 408 152 399.5 c 128,-1,48
 167 391 167 391 172 381 c 1,49,50
 180 392 180 392 196.5 400 c 128,-1,51
 213 408 213 408 233 408 c 0,52,53
 272 408 272 408 299.5 386 c 128,-1,54
 327 364 327 364 327 316 c 0,55,56
 327 292 327 292 315 277.5 c 128,-1,57
 303 263 303 263 289 250.5 c 128,-1,58
 275 238 275 238 263 224.5 c 128,-1,59
 251 211 251 211 251 188 c 2,60,-1
 251 83 l 1,61,-1
 465 405 l 1,62,63
 503 405 503 405 523.5 390 c 128,-1,64
 544 375 544 375 544 346 c 2,65,-1
 544 0 l 1,66,-1
 464 0 l 1,0,-1
148 269 m 0,67,68
 148 290 148 290 132.5 305.5 c 128,-1,69
 117 321 117 321 97 321 c 0,70,71
 76 321 76 321 60.5 305.5 c 128,-1,72
 45 290 45 290 45 269 c 0,73,74
 45 249 45 249 60.5 233.5 c 128,-1,75
 76 218 76 218 97 218 c 0,76,77
 117 218 117 218 132.5 233.5 c 128,-1,78
 148 249 148 249 148 269 c 0,67,68
EndSplineSet
EndChar
StartChar: uni0E12
Encoding: 3602 3602 229
Width: 729
Flags: W
Fore
605 0 m 1,0,1
 597 9 597 9 586 20 c 128,-1,2
 575 31 575 31 563.5 42 c 128,-1,3
 552 53 552 53 541 63 c 128,-1,4
 530 73 530 73 521 80 c 1,5,6
 521 45 521 45 493.5 19 c 128,-1,7
 466 -7 466 -7 425 -7 c 0,8,9
 405 -7 405 -7 387.5 0 c 128,-1,10
 370 7 370 7 356.5 19.5 c 128,-1,11
 343 32 343 32 335.5 48.5 c 128,-1,12
 328 65 328 65 328 83 c 0,13,14
 328 108 328 108 340 130.5 c 128,-1,15
 352 153 352 153 376 164 c 1,16,17
 374 165 374 165 372.5 166 c 128,-1,18
 371 167 371 167 369 168 c 2,19,-1
 365 170 l 1,20,-1
 365 301 l 2,21,22
 365 334 365 334 353.5 353 c 128,-1,23
 342 372 342 372 316 372 c 0,24,25
 296 372 296 372 284 362 c 128,-1,26
 272 352 272 352 263 338 c 1,27,-1
 234 338 l 1,28,29
 227 355 227 355 217 363.5 c 128,-1,30
 207 372 207 372 190 372 c 256,31,32
 173 372 173 372 160 364 c 128,-1,33
 147 356 147 356 138.5 342 c 128,-1,34
 130 328 130 328 125.5 309.5 c 128,-1,35
 121 291 121 291 121 271 c 0,36,37
 121 220 121 220 128 163.5 c 128,-1,38
 135 107 135 107 133 47 c 1,39,40
 168 60 168 60 204.5 84.5 c 128,-1,41
 241 109 241 109 262 135 c 1,42,43
 258 134 258 134 253.5 133 c 128,-1,44
 249 132 249 132 244 132 c 0,45,46
 202 132 202 132 176 159 c 128,-1,47
 150 186 150 186 150 224 c 0,48,49
 150 261 150 261 177 287.5 c 128,-1,50
 204 314 204 314 244 314 c 256,51,52
 284 314 284 314 312.5 289 c 128,-1,53
 341 264 341 264 341 224 c 0,54,55
 341 197 341 197 328.5 166.5 c 128,-1,56
 316 136 316 136 290 106 c 128,-1,57
 264 76 264 76 223 48.5 c 128,-1,58
 182 21 182 21 124 0 c 1,59,-1
 51 0 l 1,60,61
 54 42 54 42 52.5 75.5 c 128,-1,62
 51 109 51 109 48.5 138.5 c 128,-1,63
 46 168 46 168 43 196 c 128,-1,64
 40 224 40 224 40 254 c 0,65,66
 40 282 40 282 48.5 309.5 c 128,-1,67
 57 337 57 337 74 359 c 128,-1,68
 91 381 91 381 116.5 394.5 c 128,-1,69
 142 408 142 408 176 408 c 0,70,71
 205 408 205 408 223.5 397.5 c 128,-1,72
 242 387 242 387 251 370 c 1,73,74
 262 384 262 384 281.5 396 c 128,-1,75
 301 408 301 408 330 408 c 0,76,77
 381 408 381 408 413 378.5 c 128,-1,78
 445 349 445 349 445 293 c 2,79,-1
 445 179 l 1,80,81
 464 171 464 171 486 157.5 c 128,-1,82
 508 144 508 144 529 128 c 128,-1,83
 550 112 550 112 568.5 96 c 128,-1,84
 587 80 587 80 599 67 c 1,85,-1
 599 400 l 1,86,-1
 679 400 l 1,87,-1
 679 0 l 1,88,-1
 605 0 l 1,0,1
482 86 m 256,89,90
 482 109 482 109 465 126 c 128,-1,91
 448 143 448 143 425 143 c 256,92,93
 402 143 402 143 385 126 c 128,-1,94
 368 109 368 109 368 86 c 256,95,96
 368 63 368 63 385 46 c 128,-1,97
 402 29 402 29 425 29 c 256,98,99
 448 29 448 29 465 46 c 128,-1,100
 482 63 482 63 482 86 c 256,89,90
301 223 m 256,101,102
 301 246 301 246 284 263 c 128,-1,103
 267 280 267 280 244 280 c 256,104,105
 221 280 221 280 204 263 c 128,-1,106
 187 246 187 246 187 223 c 256,107,108
 187 200 187 200 204 183 c 128,-1,109
 221 166 221 166 244 166 c 256,110,111
 267 166 267 166 284 183 c 128,-1,112
 301 200 301 200 301 223 c 256,101,102
EndSplineSet
EndChar
StartChar: uni0E13
Encoding: 3603 3603 230
Width: 712
Flags: W
Fore
688 86 m 0,0,1
 688 66 688 66 680 49 c 128,-1,2
 672 32 672 32 658 19.5 c 128,-1,3
 644 7 644 7 625.5 -0.5 c 128,-1,4
 607 -8 607 -8 586 -8 c 0,5,6
 545 -8 545 -8 516 17.5 c 128,-1,7
 487 43 487 43 485 81 c 1,8,9
 480 77 480 77 472 67.5 c 128,-1,10
 464 58 464 58 455.5 46.5 c 128,-1,11
 447 35 447 35 439.5 22.5 c 128,-1,12
 432 10 432 10 429 0 c 1,13,-1
 348 0 l 1,14,-1
 348 280 l 2,15,16
 348 324 348 324 316 348 c 128,-1,17
 284 372 284 372 233 372 c 256,18,19
 182 372 182 372 147 346 c 128,-1,20
 112 320 112 320 112 275 c 1,21,-1
 175 275 l 1,22,-1
 175 249 l 1,23,24
 130 232 130 232 130 184 c 2,25,-1
 130 173 l 1,26,27
 149 181 149 181 168 181 c 256,28,29
 187 181 187 181 204 173.5 c 128,-1,30
 221 166 221 166 233.5 153.5 c 128,-1,31
 246 141 246 141 253.5 124 c 128,-1,32
 261 107 261 107 261 88 c 0,33,34
 261 50 261 50 234 22.5 c 128,-1,35
 207 -5 207 -5 160 -5 c 0,36,37
 109 -5 109 -5 79.5 24 c 128,-1,38
 50 53 50 53 50 104 c 2,39,-1
 50 175 l 2,40,41
 50 186 50 186 55 198 c 128,-1,42
 60 210 60 210 69 220 c 128,-1,43
 78 230 78 230 91.5 237.5 c 128,-1,44
 105 245 105 245 122 248 c 1,45,-1
 27 248 l 1,46,47
 30 287 30 287 47.5 317 c 128,-1,48
 65 347 65 347 92.5 367 c 128,-1,49
 120 387 120 387 156 397 c 128,-1,50
 192 407 192 407 233 407 c 0,51,52
 270 407 270 407 305.5 399 c 128,-1,53
 341 391 341 391 368 374.5 c 128,-1,54
 395 358 395 358 411.5 332 c 128,-1,55
 428 306 428 306 428 270 c 2,56,-1
 428 70 l 1,57,58
 440 87 440 87 455.5 104.5 c 128,-1,59
 471 122 471 122 489.5 137.5 c 128,-1,60
 508 153 508 153 531 166 c 128,-1,61
 554 179 554 179 581 186 c 1,62,-1
 581 400 l 1,63,-1
 661 400 l 1,64,-1
 661 181 l 1,65,66
 651 178 651 178 645 175 c 128,-1,67
 639 172 639 172 631 167 c 1,68,69
 654 159 654 159 671 135.5 c 128,-1,70
 688 112 688 112 688 86 c 0,0,1
643 86 m 256,71,72
 643 109 643 109 626 126 c 128,-1,73
 609 143 609 143 586 143 c 256,74,75
 563 143 563 143 546 126 c 128,-1,76
 529 109 529 109 529 86 c 256,77,78
 529 63 529 63 546 46 c 128,-1,79
 563 29 563 29 586 29 c 256,80,81
 609 29 609 29 626 46 c 128,-1,82
 643 63 643 63 643 86 c 256,71,72
225 88 m 256,83,84
 225 111 225 111 208 128 c 128,-1,85
 191 145 191 145 168 145 c 256,86,87
 145 145 145 145 128 128 c 128,-1,88
 111 111 111 111 111 88 c 256,89,90
 111 65 111 65 128 48 c 128,-1,91
 145 31 145 31 168 31 c 256,92,93
 191 31 191 31 208 48 c 128,-1,94
 225 65 225 65 225 88 c 256,83,84
EndSplineSet
EndChar
StartChar: uni0E14
Encoding: 3604 3604 231
Width: 495
Flags: W
Fore
365 0 m 1,0,-1
 365 279 l 2,1,2
 365 320 365 320 332 346 c 128,-1,3
 299 372 299 372 247 372 c 0,4,5
 193 372 193 372 157 343.5 c 128,-1,6
 121 315 121 315 121 265 c 0,7,8
 121 236 121 236 123.5 210 c 128,-1,9
 126 184 126 184 128 158.5 c 128,-1,10
 130 133 130 133 131.5 106 c 128,-1,11
 133 79 133 79 132 49 c 1,12,13
 150 56 150 56 169 66 c 128,-1,14
 188 76 188 76 205 88.5 c 128,-1,15
 222 101 222 101 237 114.5 c 128,-1,16
 252 128 252 128 262 142 c 1,17,18
 252 138 252 138 239 138 c 0,19,20
 197 138 197 138 171 165 c 128,-1,21
 145 192 145 192 145 230 c 0,22,23
 145 267 145 267 172 293.5 c 128,-1,24
 199 320 199 320 239 320 c 256,25,26
 279 320 279 320 307.5 295 c 128,-1,27
 336 270 336 270 336 230 c 0,28,29
 336 203 336 203 323.5 171.5 c 128,-1,30
 311 140 311 140 285 108.5 c 128,-1,31
 259 77 259 77 218 49 c 128,-1,32
 177 21 177 21 119 0 c 1,33,-1
 51 0 l 1,34,35
 54 42 54 42 52.5 75.5 c 128,-1,36
 51 109 51 109 48.5 138.5 c 128,-1,37
 46 168 46 168 43 196 c 128,-1,38
 40 224 40 224 40 254 c 0,39,40
 40 291 40 291 57.5 319.5 c 128,-1,41
 75 348 75 348 104 367.5 c 128,-1,42
 133 387 133 387 170.5 397 c 128,-1,43
 208 407 208 407 247 407 c 0,44,45
 287 407 287 407 323 398.5 c 128,-1,46
 359 390 359 390 386 372.5 c 128,-1,47
 413 355 413 355 429 328 c 128,-1,48
 445 301 445 301 445 264 c 2,49,-1
 445 0 l 1,50,-1
 365 0 l 1,0,-1
296 229 m 256,51,52
 296 252 296 252 279 269 c 128,-1,53
 262 286 262 286 239 286 c 256,54,55
 216 286 216 286 199 269 c 128,-1,56
 182 252 182 252 182 229 c 256,57,58
 182 206 182 206 199 189 c 128,-1,59
 216 172 216 172 239 172 c 256,60,61
 262 172 262 172 279 189 c 128,-1,62
 296 206 296 206 296 229 c 256,51,52
EndSplineSet
EndChar
StartChar: uni0E15
Encoding: 3605 3605 232
Width: 495
Flags: W
Fore
365 0 m 1,0,-1
 365 301 l 2,1,2
 365 334 365 334 353.5 353 c 128,-1,3
 342 372 342 372 316 372 c 0,4,5
 296 372 296 372 284 362 c 128,-1,6
 272 352 272 352 263 338 c 1,7,-1
 234 338 l 1,8,9
 227 355 227 355 217 363.5 c 128,-1,10
 207 372 207 372 190 372 c 256,11,12
 173 372 173 372 160 364 c 128,-1,13
 147 356 147 356 138.5 342 c 128,-1,14
 130 328 130 328 125.5 309.5 c 128,-1,15
 121 291 121 291 121 271 c 0,16,17
 121 220 121 220 128 163.5 c 128,-1,18
 135 107 135 107 133 47 c 1,19,20
 168 60 168 60 204.5 84.5 c 128,-1,21
 241 109 241 109 262 135 c 1,22,23
 258 134 258 134 253.5 133 c 128,-1,24
 249 132 249 132 244 132 c 0,25,26
 202 132 202 132 176 159 c 128,-1,27
 150 186 150 186 150 224 c 0,28,29
 150 261 150 261 177 287.5 c 128,-1,30
 204 314 204 314 244 314 c 256,31,32
 284 314 284 314 312.5 289 c 128,-1,33
 341 264 341 264 341 224 c 0,34,35
 341 197 341 197 328.5 166.5 c 128,-1,36
 316 136 316 136 290 106 c 128,-1,37
 264 76 264 76 223 48.5 c 128,-1,38
 182 21 182 21 124 0 c 1,39,-1
 51 0 l 1,40,41
 54 42 54 42 52.5 75.5 c 128,-1,42
 51 109 51 109 48.5 138.5 c 128,-1,43
 46 168 46 168 43 196 c 128,-1,44
 40 224 40 224 40 254 c 0,45,46
 40 282 40 282 48.5 309.5 c 128,-1,47
 57 337 57 337 74 359 c 128,-1,48
 91 381 91 381 116.5 394.5 c 128,-1,49
 142 408 142 408 176 408 c 0,50,51
 205 408 205 408 223.5 397.5 c 128,-1,52
 242 387 242 387 251 370 c 1,53,54
 262 384 262 384 281.5 396 c 128,-1,55
 301 408 301 408 330 408 c 0,56,57
 381 408 381 408 413 378.5 c 128,-1,58
 445 349 445 349 445 293 c 2,59,-1
 445 0 l 1,60,-1
 365 0 l 1,0,-1
301 223 m 256,61,62
 301 246 301 246 284 263 c 128,-1,63
 267 280 267 280 244 280 c 256,64,65
 221 280 221 280 204 263 c 128,-1,66
 187 246 187 246 187 223 c 256,67,68
 187 200 187 200 204 183 c 128,-1,69
 221 166 221 166 244 166 c 256,70,71
 267 166 267 166 284 183 c 128,-1,72
 301 200 301 200 301 223 c 256,61,62
EndSplineSet
EndChar
StartChar: uni0E16
Encoding: 3606 3606 233
Width: 478
Flags: W
Fore
348 0 m 1,0,-1
 348 280 l 2,1,2
 348 324 348 324 316 348 c 128,-1,3
 284 372 284 372 233 372 c 256,4,5
 182 372 182 372 147 346 c 128,-1,6
 112 320 112 320 112 275 c 1,7,-1
 175 275 l 1,8,-1
 175 249 l 1,9,10
 130 232 130 232 130 184 c 2,11,-1
 130 173 l 1,12,13
 149 181 149 181 168 181 c 256,14,15
 187 181 187 181 204 173.5 c 128,-1,16
 221 166 221 166 233.5 153.5 c 128,-1,17
 246 141 246 141 253.5 124 c 128,-1,18
 261 107 261 107 261 88 c 0,19,20
 261 50 261 50 234 22.5 c 128,-1,21
 207 -5 207 -5 160 -5 c 0,22,23
 109 -5 109 -5 79.5 24 c 128,-1,24
 50 53 50 53 50 104 c 2,25,-1
 50 175 l 2,26,27
 50 186 50 186 55 198 c 128,-1,28
 60 210 60 210 69 220 c 128,-1,29
 78 230 78 230 91.5 237.5 c 128,-1,30
 105 245 105 245 122 248 c 1,31,-1
 27 248 l 1,32,33
 30 287 30 287 47.5 317 c 128,-1,34
 65 347 65 347 92.5 367 c 128,-1,35
 120 387 120 387 156 397 c 128,-1,36
 192 407 192 407 233 407 c 0,37,38
 270 407 270 407 305.5 399 c 128,-1,39
 341 391 341 391 368 374.5 c 128,-1,40
 395 358 395 358 411.5 332 c 128,-1,41
 428 306 428 306 428 270 c 2,42,-1
 428 0 l 1,43,-1
 348 0 l 1,0,-1
225 88 m 256,44,45
 225 111 225 111 208 128 c 128,-1,46
 191 145 191 145 168 145 c 256,47,48
 145 145 145 145 128 128 c 128,-1,49
 111 111 111 111 111 88 c 256,50,51
 111 65 111 65 128 48 c 128,-1,52
 145 31 145 31 168 31 c 256,53,54
 191 31 191 31 208 48 c 128,-1,55
 225 65 225 65 225 88 c 256,44,45
EndSplineSet
EndChar
StartChar: uni0E17
Encoding: 3607 3607 234
Width: 539
Flags: W
Fore
409 0 m 1,0,-1
 409 323 l 1,1,-1
 221 0 l 1,2,-1
 141 0 l 1,3,-1
 141 229 l 1,4,5
 122 221 122 221 103 221 c 256,6,7
 84 221 84 221 67 228.5 c 128,-1,8
 50 236 50 236 37.5 248.5 c 128,-1,9
 25 261 25 261 17.5 278 c 128,-1,10
 10 295 10 295 10 314 c 0,11,12
 10 352 10 352 37 379.5 c 128,-1,13
 64 407 64 407 111 407 c 0,14,15
 162 407 162 407 191.5 378 c 128,-1,16
 221 349 221 349 221 298 c 2,17,-1
 221 80 l 1,18,-1
 410 405 l 1,19,20
 448 405 448 405 468.5 390 c 128,-1,21
 489 375 489 375 489 346 c 2,22,-1
 489 0 l 1,23,-1
 409 0 l 1,0,-1
160 314 m 256,24,25
 160 337 160 337 143 354 c 128,-1,26
 126 371 126 371 103 371 c 256,27,28
 80 371 80 371 63 354 c 128,-1,29
 46 337 46 337 46 314 c 256,30,31
 46 291 46 291 63 274 c 128,-1,32
 80 257 80 257 103 257 c 256,33,34
 126 257 126 257 143 274 c 128,-1,35
 160 291 160 291 160 314 c 256,24,25
EndSplineSet
EndChar
StartChar: uni0E18
Encoding: 3608 3608 235
Width: 457
Flags: W
Fore
420 400 m 1,0,1
 416 362 416 362 390 345.5 c 128,-1,2
 364 329 364 329 326 329 c 0,3,4
 303 329 303 329 287 334.5 c 128,-1,5
 271 340 271 340 256.5 346 c 128,-1,6
 242 352 242 352 227 357.5 c 128,-1,7
 212 363 212 363 192 363 c 0,8,9
 157 363 157 363 136.5 341 c 128,-1,10
 116 319 116 319 112 287 c 1,11,-1
 407 287 l 1,12,-1
 407 0 l 1,13,-1
 55 0 l 1,14,-1
 55 212 l 1,15,-1
 135 212 l 1,16,-1
 135 40 l 1,17,-1
 327 40 l 1,18,-1
 327 252 l 1,19,-1
 26 252 l 1,20,21
 30 328 30 328 65.5 366.5 c 128,-1,22
 101 405 101 405 165 405 c 0,23,24
 190 405 190 405 207 400 c 128,-1,25
 224 395 224 395 237.5 388.5 c 128,-1,26
 251 382 251 382 262.5 377 c 128,-1,27
 274 372 274 372 288 372 c 0,28,29
 305 372 305 372 314 380.5 c 128,-1,30
 323 389 323 389 325 400 c 1,31,-1
 420 400 l 1,32,-1
 420 400 l 1,0,1
EndSplineSet
EndChar
StartChar: uni0E19
Encoding: 3609 3609 236
Width: 530
Flags: W
Fore
510 86 m 0,0,1
 510 66 510 66 502 49 c 128,-1,2
 494 32 494 32 480.5 19.5 c 128,-1,3
 467 7 467 7 448.5 -0.5 c 128,-1,4
 430 -8 430 -8 409 -8 c 0,5,6
 368 -8 368 -8 339 17.5 c 128,-1,7
 310 43 310 43 308 81 c 1,8,9
 282 62 282 62 257.5 40 c 128,-1,10
 233 18 233 18 217 -1 c 1,11,-1
 144 -1 l 1,12,-1
 144 232 l 1,13,14
 135 228 135 228 125 226.5 c 128,-1,15
 115 225 115 225 106 225 c 0,16,17
 86 225 86 225 69 232 c 128,-1,18
 52 239 52 239 38.5 251.5 c 128,-1,19
 25 264 25 264 17.5 280.5 c 128,-1,20
 10 297 10 297 10 316 c 0,21,22
 10 352 10 352 37.5 379.5 c 128,-1,23
 65 407 65 407 111 407 c 0,24,25
 162 407 162 407 193 377.5 c 128,-1,26
 224 348 224 348 224 298 c 2,27,-1
 224 77 l 1,28,29
 262 110 262 110 308.5 138.5 c 128,-1,30
 355 167 355 167 403 186 c 1,31,-1
 403 400 l 1,32,-1
 483 400 l 1,33,-1
 483 181 l 1,34,35
 473 178 473 178 467 175 c 128,-1,36
 461 172 461 172 453 167 c 1,37,38
 476 159 476 159 493 135.5 c 128,-1,39
 510 112 510 112 510 86 c 0,0,1
465 86 m 256,40,41
 465 109 465 109 448 126 c 128,-1,42
 431 143 431 143 408 143 c 256,43,44
 385 143 385 143 368 126 c 128,-1,45
 351 109 351 109 351 86 c 256,46,47
 351 63 351 63 368 46 c 128,-1,48
 385 29 385 29 408 29 c 256,49,50
 431 29 431 29 448 46 c 128,-1,51
 465 63 465 63 465 86 c 256,40,41
159 314 m 256,52,53
 159 337 159 337 142 354 c 128,-1,54
 125 371 125 371 102 371 c 256,55,56
 79 371 79 371 62 354 c 128,-1,57
 45 337 45 337 45 314 c 256,58,59
 45 291 45 291 62 274 c 128,-1,60
 79 257 79 257 102 257 c 256,61,62
 125 257 125 257 142 274 c 128,-1,63
 159 291 159 291 159 314 c 256,52,53
EndSplineSet
EndChar
StartChar: uni0E1A
Encoding: 3610 3610 237
Width: 540
Flags: W
Fore
141 0 m 1,0,-1
 141 229 l 1,1,2
 122 221 122 221 103 221 c 256,3,4
 84 221 84 221 67 228.5 c 128,-1,5
 50 236 50 236 37.5 248.5 c 128,-1,6
 25 261 25 261 17.5 278 c 128,-1,7
 10 295 10 295 10 314 c 0,8,9
 10 352 10 352 37 379.5 c 128,-1,10
 64 407 64 407 111 407 c 0,11,12
 162 407 162 407 191.5 378 c 128,-1,13
 221 349 221 349 221 298 c 2,14,-1
 221 40 l 1,15,-1
 410 40 l 1,16,-1
 410 400 l 1,17,-1
 490 400 l 1,18,-1
 490 0 l 1,19,-1
 141 0 l 1,0,-1
160 314 m 256,20,21
 160 337 160 337 143 354 c 128,-1,22
 126 371 126 371 103 371 c 256,23,24
 80 371 80 371 63 354 c 128,-1,25
 46 337 46 337 46 314 c 256,26,27
 46 291 46 291 63 274 c 128,-1,28
 80 257 80 257 103 257 c 256,29,30
 126 257 126 257 143 274 c 128,-1,31
 160 291 160 291 160 314 c 256,20,21
EndSplineSet
EndChar
StartChar: uni0E1B
Encoding: 3611 3611 238
Width: 540
Flags: W
Fore
141 0 m 1,0,-1
 141 229 l 1,1,2
 122 221 122 221 103 221 c 256,3,4
 84 221 84 221 67 228.5 c 128,-1,5
 50 236 50 236 37.5 248.5 c 128,-1,6
 25 261 25 261 17.5 278 c 128,-1,7
 10 295 10 295 10 314 c 0,8,9
 10 352 10 352 37 379.5 c 128,-1,10
 64 407 64 407 111 407 c 0,11,12
 162 407 162 407 191.5 378 c 128,-1,13
 221 349 221 349 221 298 c 2,14,-1
 221 40 l 1,15,-1
 410 40 l 1,16,-1
 410 530 l 1,17,-1
 490 530 l 1,18,-1
 490 0 l 1,19,-1
 141 0 l 1,0,-1
160 314 m 256,20,21
 160 337 160 337 143 354 c 128,-1,22
 126 371 126 371 103 371 c 256,23,24
 80 371 80 371 63 354 c 128,-1,25
 46 337 46 337 46 314 c 256,26,27
 46 291 46 291 63 274 c 128,-1,28
 80 257 80 257 103 257 c 256,29,30
 126 257 126 257 143 274 c 128,-1,31
 160 291 160 291 160 314 c 256,20,21
EndSplineSet
EndChar
StartChar: uni0E1C
Encoding: 3612 3612 239
Width: 503
Flags: W
Fore
376 0 m 1,0,-1
 252 162 l 1,1,-1
 128 0 l 1,2,-1
 50 0 l 1,3,4
 50 47 50 47 48 87.5 c 128,-1,5
 46 128 46 128 43.5 163.5 c 128,-1,6
 41 199 41 199 39.5 231.5 c 128,-1,7
 38 264 38 264 40 294 c 0,8,9
 45 348 45 348 74.5 377.5 c 128,-1,10
 104 407 104 407 154 407 c 0,11,12
 200 407 200 407 227.5 379.5 c 128,-1,13
 255 352 255 352 255 316 c 0,14,15
 255 297 255 297 247.5 280.5 c 128,-1,16
 240 264 240 264 226.5 251.5 c 128,-1,17
 213 239 213 239 195.5 232 c 128,-1,18
 178 225 178 225 159 225 c 0,19,20
 138 225 138 225 122 231 c 1,21,22
 123 193 123 193 127.5 150 c 128,-1,23
 132 107 132 107 130 68 c 1,24,-1
 253 222 l 1,25,-1
 373 69 l 1,26,-1
 373 400 l 1,27,-1
 453 400 l 1,28,-1
 453 0 l 1,29,-1
 376 0 l 1,0,-1
218 316 m 0,30,31
 218 339 218 339 200 357 c 128,-1,32
 182 375 182 375 159 375 c 0,33,34
 135 375 135 375 117 357 c 128,-1,35
 99 339 99 339 99 316 c 0,36,37
 99 292 99 292 117 274 c 128,-1,38
 135 256 135 256 159 256 c 0,39,40
 182 256 182 256 200 274 c 128,-1,41
 218 292 218 292 218 316 c 0,30,31
EndSplineSet
EndChar
StartChar: uni0E1D
Encoding: 3613 3613 240
Width: 503
Flags: W
Fore
376 0 m 1,0,-1
 252 162 l 1,1,-1
 128 0 l 1,2,-1
 50 0 l 1,3,4
 50 47 50 47 48 87.5 c 128,-1,5
 46 128 46 128 43.5 163.5 c 128,-1,6
 41 199 41 199 39.5 231.5 c 128,-1,7
 38 264 38 264 40 294 c 0,8,9
 45 348 45 348 74.5 377.5 c 128,-1,10
 104 407 104 407 154 407 c 0,11,12
 200 407 200 407 227.5 379.5 c 128,-1,13
 255 352 255 352 255 316 c 0,14,15
 255 297 255 297 247.5 280.5 c 128,-1,16
 240 264 240 264 226.5 251.5 c 128,-1,17
 213 239 213 239 195.5 232 c 128,-1,18
 178 225 178 225 159 225 c 0,19,20
 138 225 138 225 122 231 c 1,21,22
 123 193 123 193 127.5 150 c 128,-1,23
 132 107 132 107 130 68 c 1,24,-1
 253 222 l 1,25,-1
 373 69 l 1,26,-1
 373 530 l 1,27,-1
 453 530 l 1,28,-1
 453 0 l 1,29,-1
 376 0 l 1,0,-1
218 316 m 0,30,31
 218 339 218 339 200 357 c 128,-1,32
 182 375 182 375 159 375 c 0,33,34
 135 375 135 375 117 357 c 128,-1,35
 99 339 99 339 99 316 c 0,36,37
 99 292 99 292 117 274 c 128,-1,38
 135 256 135 256 159 256 c 0,39,40
 182 256 182 256 200 274 c 128,-1,41
 218 292 218 292 218 316 c 0,30,31
EndSplineSet
EndChar
StartChar: uni0E1E
Encoding: 3614 3614 241
Width: 584
Flags: W
Fore
445 0 m 1,0,-1
 338 296 l 1,1,-1
 231 0 l 1,2,-1
 141 0 l 1,3,-1
 141 229 l 1,4,5
 122 221 122 221 103 221 c 256,6,7
 84 221 84 221 67 228.5 c 128,-1,8
 50 236 50 236 37.5 248.5 c 128,-1,9
 25 261 25 261 17.5 278 c 128,-1,10
 10 295 10 295 10 314 c 0,11,12
 10 352 10 352 37 379.5 c 128,-1,13
 64 407 64 407 111 407 c 0,14,15
 162 407 162 407 191.5 378 c 128,-1,16
 221 349 221 349 221 298 c 2,17,-1
 221 95 l 1,18,-1
 339 410 l 1,19,-1
 454 96 l 1,20,-1
 454 400 l 1,21,-1
 534 400 l 1,22,-1
 534 0 l 1,23,-1
 445 0 l 1,0,-1
160 314 m 256,24,25
 160 337 160 337 143 354 c 128,-1,26
 126 371 126 371 103 371 c 256,27,28
 80 371 80 371 63 354 c 128,-1,29
 46 337 46 337 46 314 c 256,30,31
 46 291 46 291 63 274 c 128,-1,32
 80 257 80 257 103 257 c 256,33,34
 126 257 126 257 143 274 c 128,-1,35
 160 291 160 291 160 314 c 256,24,25
EndSplineSet
EndChar
StartChar: uni0E1F
Encoding: 3615 3615 242
Width: 584
Flags: W
Fore
445 0 m 1,0,-1
 338 296 l 1,1,-1
 231 0 l 1,2,-1
 141 0 l 1,3,-1
 141 229 l 1,4,5
 122 221 122 221 103 221 c 256,6,7
 84 221 84 221 67 228.5 c 128,-1,8
 50 236 50 236 37.5 248.5 c 128,-1,9
 25 261 25 261 17.5 278 c 128,-1,10
 10 295 10 295 10 314 c 0,11,12
 10 352 10 352 37 379.5 c 128,-1,13
 64 407 64 407 111 407 c 0,14,15
 162 407 162 407 191.5 378 c 128,-1,16
 221 349 221 349 221 298 c 2,17,-1
 221 95 l 1,18,-1
 339 410 l 1,19,-1
 454 96 l 1,20,-1
 454 530 l 1,21,-1
 534 530 l 1,22,-1
 534 0 l 1,23,-1
 445 0 l 1,0,-1
160 314 m 256,24,25
 160 337 160 337 143 354 c 128,-1,26
 126 371 126 371 103 371 c 256,27,28
 80 371 80 371 63 354 c 128,-1,29
 46 337 46 337 46 314 c 256,30,31
 46 291 46 291 63 274 c 128,-1,32
 80 257 80 257 103 257 c 256,33,34
 126 257 126 257 143 274 c 128,-1,35
 160 291 160 291 160 314 c 256,24,25
EndSplineSet
EndChar
StartChar: uni0E20
Encoding: 3616 3616 243
Width: 570
Flags: W
Fore
439 0 m 1,0,-1
 439 280 l 2,1,2
 439 324 439 324 407 348 c 128,-1,3
 375 372 375 372 324 372 c 256,4,5
 273 372 273 372 238 346 c 128,-1,6
 203 320 203 320 203 275 c 1,7,-1
 266 275 l 1,8,-1
 266 249 l 1,9,10
 221 232 221 232 221 184 c 2,11,-1
 221 106 l 2,12,13
 221 55 221 55 190 25 c 128,-1,14
 159 -5 159 -5 108 -5 c 0,15,16
 63 -5 63 -5 36.5 23 c 128,-1,17
 10 51 10 51 10 88 c 0,18,19
 10 107 10 107 17.5 123.5 c 128,-1,20
 25 140 25 140 37.5 152.5 c 128,-1,21
 50 165 50 165 67 172 c 128,-1,22
 84 179 84 179 103 179 c 0,23,24
 113 179 113 179 123 178 c 128,-1,25
 133 177 133 177 141 174 c 1,26,-1
 141 183 l 2,27,28
 141 205 141 205 161 222.5 c 128,-1,29
 181 240 181 240 213 248 c 1,30,-1
 118 248 l 1,31,32
 121 287 121 287 138.5 317 c 128,-1,33
 156 347 156 347 183.5 367 c 128,-1,34
 211 387 211 387 247 397 c 128,-1,35
 283 407 283 407 324 407 c 0,36,37
 361 407 361 407 396.5 399 c 128,-1,38
 432 391 432 391 459 374.5 c 128,-1,39
 486 358 486 358 502.5 332 c 128,-1,40
 519 306 519 306 519 270 c 2,41,-1
 519 0 l 1,42,-1
 439 0 l 1,0,-1
160 88 m 256,43,44
 160 111 160 111 143 128 c 128,-1,45
 126 145 126 145 103 145 c 256,46,47
 80 145 80 145 63 128 c 128,-1,48
 46 111 46 111 46 88 c 256,49,50
 46 65 46 65 63 48 c 128,-1,51
 80 31 80 31 103 31 c 256,52,53
 126 31 126 31 143 48 c 128,-1,54
 160 65 160 65 160 88 c 256,43,44
EndSplineSet
EndChar
StartChar: uni0E21
Encoding: 3617 3617 244
Width: 526
Flags: W
Fore
397 0 m 1,0,-1
 241 106 l 1,1,-1
 241 94 l 2,2,3
 241 47 241 47 212 21 c 128,-1,4
 183 -5 183 -5 131 -5 c 0,5,6
 87 -5 87 -5 59.5 21 c 128,-1,7
 32 47 32 47 32 85 c 0,8,9
 32 126 32 126 61.5 150.5 c 128,-1,10
 91 175 91 175 136 175 c 0,11,12
 146 175 146 175 151.5 174.5 c 128,-1,13
 157 174 157 174 161 174 c 1,14,-1
 161 229 l 1,15,16
 142 221 142 221 123 221 c 256,17,18
 104 221 104 221 87 228.5 c 128,-1,19
 70 236 70 236 57.5 248.5 c 128,-1,20
 45 261 45 261 37.5 278 c 128,-1,21
 30 295 30 295 30 314 c 0,22,23
 30 352 30 352 57 379.5 c 128,-1,24
 84 407 84 407 131 407 c 0,25,26
 182 407 182 407 211.5 378 c 128,-1,27
 241 349 241 349 241 298 c 2,28,-1
 241 152 l 1,29,-1
 396 50 l 1,30,-1
 396 400 l 1,31,-1
 476 400 l 1,32,-1
 476 0 l 1,33,-1
 397 0 l 1,0,-1
180 314 m 256,34,35
 180 337 180 337 163 354 c 128,-1,36
 146 371 146 371 123 371 c 256,37,38
 100 371 100 371 83 354 c 128,-1,39
 66 337 66 337 66 314 c 256,40,41
 66 291 66 291 83 274 c 128,-1,42
 100 257 100 257 123 257 c 256,43,44
 146 257 146 257 163 274 c 128,-1,45
 180 291 180 291 180 314 c 256,34,35
161 132 m 1,46,47
 156 133 156 133 147.5 133.5 c 128,-1,48
 139 134 139 134 131 134 c 0,49,50
 109 134 109 134 93 120.5 c 128,-1,51
 77 107 77 107 77 84 c 0,52,53
 77 63 77 63 90.5 50.5 c 128,-1,54
 104 38 104 38 121 38 c 0,55,56
 137 38 137 38 149 48.5 c 128,-1,57
 161 59 161 59 161 81 c 2,58,-1
 161 132 l 1,46,47
EndSplineSet
EndChar
StartChar: uni0E22
Encoding: 3618 3618 245
Width: 490
Flags: W
Fore
82 0 m 1,0,-1
 82 94 l 2,1,2
 82 113 82 113 100 134 c 128,-1,3
 118 155 118 155 147 163 c 1,4,5
 90 166 90 166 55 199 c 128,-1,6
 20 232 20 232 20 281 c 0,7,8
 20 307 20 307 30 330 c 128,-1,9
 40 353 40 353 58 369.5 c 128,-1,10
 76 386 76 386 101.5 395.5 c 128,-1,11
 127 405 127 405 157 405 c 0,12,13
 190 405 190 405 213 396.5 c 128,-1,14
 236 388 236 388 251 374 c 128,-1,15
 266 360 266 360 272.5 342.5 c 128,-1,16
 279 325 279 325 279 307 c 0,17,18
 279 272 279 272 252 246.5 c 128,-1,19
 225 221 225 221 187 221 c 0,20,21
 145 221 145 221 120.5 246 c 128,-1,22
 96 271 96 271 96 307 c 0,23,24
 96 312 96 312 97 318.5 c 128,-1,25
 98 325 98 325 100 330 c 1,26,27
 92 326 92 326 86 311.5 c 128,-1,28
 80 297 80 297 80 283 c 0,29,30
 80 253 80 253 95.5 233 c 128,-1,31
 111 213 111 213 134 203 c 128,-1,32
 157 193 157 193 183.5 194 c 128,-1,33
 210 195 210 195 233 207 c 1,34,-1
 250 180 l 1,35,36
 225 172 225 172 206 161 c 0,37,38
 189 151 189 151 175.5 137 c 128,-1,39
 162 123 162 123 162 104 c 2,40,-1
 162 40 l 1,41,-1
 360 40 l 1,42,-1
 360 400 l 1,43,-1
 440 400 l 1,44,-1
 440 0 l 1,45,-1
 82 0 l 1,0,-1
241 308 m 256,46,47
 241 331 241 331 225.5 346.5 c 128,-1,48
 210 362 210 362 187 362 c 256,49,50
 164 362 164 362 148.5 346.5 c 128,-1,51
 133 331 133 331 133 308 c 256,52,53
 133 285 133 285 148.5 269.5 c 128,-1,54
 164 254 164 254 187 254 c 256,55,56
 210 254 210 254 225.5 269.5 c 128,-1,57
 241 285 241 285 241 308 c 256,46,47
EndSplineSet
EndChar
StartChar: uni0E23
Encoding: 3619 3619 246
Width: 436
Flags: W
Fore
414 400 m 1,0,1
 409 360 409 360 379 344.5 c 128,-1,2
 349 329 349 329 311 329 c 0,3,4
 288 329 288 329 269.5 334.5 c 128,-1,5
 251 340 251 340 234.5 346 c 128,-1,6
 218 352 218 352 201.5 357.5 c 128,-1,7
 185 363 185 363 166 363 c 0,8,9
 131 363 131 363 110.5 341 c 128,-1,10
 90 319 90 319 86 287 c 1,11,-1
 381 287 l 1,12,-1
 381 110 l 2,13,14
 381 56 381 56 345.5 24.5 c 128,-1,15
 310 -7 310 -7 258 -7 c 0,16,17
 237 -7 237 -7 219.5 0.5 c 128,-1,18
 202 8 202 8 188.5 20.5 c 128,-1,19
 175 33 175 33 167.5 50 c 128,-1,20
 160 67 160 67 160 87 c 0,21,22
 160 106 160 106 167.5 123.5 c 128,-1,23
 175 141 175 141 188.5 153.5 c 128,-1,24
 202 166 202 166 219.5 173.5 c 128,-1,25
 237 181 237 181 258 181 c 0,26,27
 283 181 283 181 301 172 c 1,28,-1
 301 252 l 1,29,-1
 0 252 l 1,30,31
 4 328 4 328 39.5 366.5 c 128,-1,32
 75 405 75 405 148 405 c 0,33,34
 173 405 173 405 192 399 c 128,-1,35
 211 393 211 393 226.5 386 c 128,-1,36
 242 379 242 379 255 373 c 128,-1,37
 268 367 268 367 282 367 c 0,38,39
 299 367 299 367 308 376 c 128,-1,40
 317 385 317 385 319 400 c 1,41,-1
 414 400 l 1,0,1
319 87 m 256,42,43
 319 112 319 112 301 130 c 128,-1,44
 283 148 283 148 258 148 c 256,45,46
 233 148 233 148 215 130 c 128,-1,47
 197 112 197 112 197 87 c 256,48,49
 197 62 197 62 215 44 c 128,-1,50
 233 26 233 26 258 26 c 256,51,52
 283 26 283 26 301 44 c 128,-1,53
 319 62 319 62 319 87 c 256,42,43
EndSplineSet
EndChar
StartChar: uni0E24
Encoding: 3620 3620 247
Width: 478
Flags: W
Fore
348 -130 m 1,0,-1
 348 280 l 2,1,2
 348 324 348 324 316 348 c 128,-1,3
 284 372 284 372 233 372 c 256,4,5
 182 372 182 372 147 346 c 128,-1,6
 112 320 112 320 112 275 c 1,7,-1
 175 275 l 1,8,-1
 175 249 l 1,9,10
 130 232 130 232 130 184 c 2,11,-1
 130 173 l 1,12,13
 149 181 149 181 168 181 c 256,14,15
 187 181 187 181 204 173.5 c 128,-1,16
 221 166 221 166 233.5 153.5 c 128,-1,17
 246 141 246 141 253.5 124 c 128,-1,18
 261 107 261 107 261 88 c 0,19,20
 261 50 261 50 234 22.5 c 128,-1,21
 207 -5 207 -5 160 -5 c 0,22,23
 109 -5 109 -5 79.5 24 c 128,-1,24
 50 53 50 53 50 104 c 2,25,-1
 50 175 l 2,26,27
 50 186 50 186 55 198 c 128,-1,28
 60 210 60 210 69 220 c 128,-1,29
 78 230 78 230 91.5 237.5 c 128,-1,30
 105 245 105 245 122 248 c 1,31,-1
 27 248 l 1,32,33
 30 287 30 287 47.5 317 c 128,-1,34
 65 347 65 347 92.5 367 c 128,-1,35
 120 387 120 387 156 397 c 128,-1,36
 192 407 192 407 233 407 c 0,37,38
 270 407 270 407 305.5 399 c 128,-1,39
 341 391 341 391 368 374.5 c 128,-1,40
 395 358 395 358 411.5 332 c 128,-1,41
 428 306 428 306 428 270 c 2,42,-1
 428 -130 l 1,43,-1
 348 -130 l 1,0,-1
225 88 m 256,44,45
 225 111 225 111 208 128 c 128,-1,46
 191 145 191 145 168 145 c 256,47,48
 145 145 145 145 128 128 c 128,-1,49
 111 111 111 111 111 88 c 256,50,51
 111 65 111 65 128 48 c 128,-1,52
 145 31 145 31 168 31 c 256,53,54
 191 31 191 31 208 48 c 128,-1,55
 225 65 225 65 225 88 c 256,44,45
EndSplineSet
EndChar
StartChar: uni0E25
Encoding: 3621 3621 248
Width: 507
Flags: W
Fore
377 0 m 1,0,-1
 377 119 l 2,1,2
 377 149 377 149 366 173.5 c 128,-1,3
 355 198 355 198 335.5 215.5 c 128,-1,4
 316 233 316 233 290 243 c 128,-1,5
 264 253 264 253 233 253 c 0,6,7
 191 253 191 253 161 232 c 128,-1,8
 131 211 131 211 122 183 c 1,9,10
 139 190 139 190 163 190 c 0,11,12
 207 190 207 190 235.5 161 c 128,-1,13
 264 132 264 132 264 92 c 0,14,15
 264 72 264 72 256 54 c 128,-1,16
 248 36 248 36 234 22.5 c 128,-1,17
 220 9 220 9 202 1 c 128,-1,18
 184 -7 184 -7 163 -7 c 0,19,20
 111 -7 111 -7 75.5 27 c 128,-1,21
 40 61 40 61 40 125 c 0,22,23
 40 158 40 158 52.5 187.5 c 128,-1,24
 65 217 65 217 89 240 c 128,-1,25
 113 263 113 263 148.5 276.5 c 128,-1,26
 184 290 184 290 231 290 c 0,27,28
 285 290 285 290 320.5 272 c 128,-1,29
 356 254 356 254 377 232 c 1,30,-1
 377 278 l 2,31,32
 377 321 377 321 342.5 346.5 c 128,-1,33
 308 372 308 372 254 372 c 256,34,35
 200 372 200 372 165.5 346.5 c 128,-1,36
 131 321 131 321 121 283 c 1,37,-1
 39 283 l 1,38,39
 48 314 48 314 67.5 337 c 128,-1,40
 87 360 87 360 115.5 375.5 c 128,-1,41
 144 391 144 391 179.5 399 c 128,-1,42
 215 407 215 407 254 407 c 0,43,44
 298 407 298 407 335 398.5 c 128,-1,45
 372 390 372 390 399 371.5 c 128,-1,46
 426 353 426 353 441.5 325 c 128,-1,47
 457 297 457 297 457 258 c 2,48,-1
 457 0 l 1,49,-1
 377 0 l 1,0,-1
224 92 m 256,50,51
 224 117 224 117 206 135 c 128,-1,52
 188 153 188 153 163 153 c 256,53,54
 138 153 138 153 120 135 c 128,-1,55
 102 117 102 117 102 92 c 256,56,57
 102 67 102 67 120 49 c 128,-1,58
 138 31 138 31 163 31 c 256,59,60
 188 31 188 31 206 49 c 128,-1,61
 224 67 224 67 224 92 c 256,50,51
EndSplineSet
EndChar
StartChar: uni0E26
Encoding: 3622 3622 249
Width: 570
Flags: W
Fore
439 -130 m 1,0,-1
 439 280 l 2,1,2
 439 324 439 324 407 348 c 128,-1,3
 375 372 375 372 324 372 c 256,4,5
 273 372 273 372 238 346 c 128,-1,6
 203 320 203 320 203 275 c 1,7,-1
 266 275 l 1,8,-1
 266 249 l 1,9,10
 221 232 221 232 221 184 c 2,11,-1
 221 106 l 2,12,13
 221 55 221 55 190 25 c 128,-1,14
 159 -5 159 -5 108 -5 c 0,15,16
 63 -5 63 -5 36.5 23 c 128,-1,17
 10 51 10 51 10 88 c 0,18,19
 10 107 10 107 17.5 123.5 c 128,-1,20
 25 140 25 140 37.5 152.5 c 128,-1,21
 50 165 50 165 67 172 c 128,-1,22
 84 179 84 179 103 179 c 0,23,24
 113 179 113 179 123 178 c 128,-1,25
 133 177 133 177 141 174 c 1,26,-1
 141 183 l 2,27,28
 141 205 141 205 161 222.5 c 128,-1,29
 181 240 181 240 213 248 c 1,30,-1
 118 248 l 1,31,32
 121 287 121 287 138.5 317 c 128,-1,33
 156 347 156 347 183.5 367 c 128,-1,34
 211 387 211 387 247 397 c 128,-1,35
 283 407 283 407 324 407 c 0,36,37
 361 407 361 407 396.5 399 c 128,-1,38
 432 391 432 391 459 374.5 c 128,-1,39
 486 358 486 358 502.5 332 c 128,-1,40
 519 306 519 306 519 270 c 2,41,-1
 519 -130 l 1,42,-1
 439 -130 l 1,0,-1
160 88 m 256,43,44
 160 111 160 111 143 128 c 128,-1,45
 126 145 126 145 103 145 c 256,46,47
 80 145 80 145 63 128 c 128,-1,48
 46 111 46 111 46 88 c 256,49,50
 46 65 46 65 63 48 c 128,-1,51
 80 31 80 31 103 31 c 256,52,53
 126 31 126 31 143 48 c 128,-1,54
 160 65 160 65 160 88 c 256,43,44
EndSplineSet
EndChar
StartChar: uni0E27
Encoding: 3623 3623 250
Width: 438
Flags: W
Fore
388 110 m 2,0,1
 388 56 388 56 352.5 24.5 c 128,-1,2
 317 -7 317 -7 265 -7 c 0,3,4
 244 -7 244 -7 226.5 0.5 c 128,-1,5
 209 8 209 8 195.5 20.5 c 128,-1,6
 182 33 182 33 174.5 50 c 128,-1,7
 167 67 167 67 167 87 c 0,8,9
 167 106 167 106 174.5 123.5 c 128,-1,10
 182 141 182 141 195.5 153.5 c 128,-1,11
 209 166 209 166 226.5 173.5 c 128,-1,12
 244 181 244 181 265 181 c 0,13,14
 290 181 290 181 308 172 c 1,15,-1
 308 278 l 2,16,17
 308 318 308 318 280.5 345 c 128,-1,18
 253 372 253 372 200 372 c 0,19,20
 172 372 172 372 150.5 363.5 c 128,-1,21
 129 355 129 355 114.5 341 c 128,-1,22
 100 327 100 327 91.5 309 c 128,-1,23
 83 291 83 291 82 273 c 1,24,-1
 0 273 l 1,25,26
 11 335 11 335 62.5 371 c 128,-1,27
 114 407 114 407 200 407 c 0,28,29
 243 407 243 407 277.5 398.5 c 128,-1,30
 312 390 312 390 336.5 372.5 c 128,-1,31
 361 355 361 355 374.5 327.5 c 128,-1,32
 388 300 388 300 388 261 c 2,33,-1
 388 110 l 2,0,1
326 87 m 256,34,35
 326 112 326 112 308 130 c 128,-1,36
 290 148 290 148 265 148 c 256,37,38
 240 148 240 148 222 130 c 128,-1,39
 204 112 204 112 204 87 c 256,40,41
 204 62 204 62 222 44 c 128,-1,42
 240 26 240 26 265 26 c 256,43,44
 290 26 290 26 308 44 c 128,-1,45
 326 62 326 62 326 87 c 256,34,35
EndSplineSet
EndChar
